<?xml version="1.0" encoding="utf-8"?>
<!-- Generator: Adobe Illustrator 25.4.1, SVG Export Plug-In . SVG Version: 6.00 Build 0)  -->
<svg version="1.1" id="Layer_1" xmlns="http://www.w3.org/2000/svg" xmlns:xlink="http://www.w3.org/1999/xlink" x="0px" y="0px"
	 viewBox="0 0 42.7 315.6" style="enable-background:new 0 0 42.7 315.6;" xml:space="preserve">
<style type="text/css">
	.st0{opacity:0.15;}
	.st1{fill:#426E90;}
</style>
<g class="st0">
	<path class="st1" d="M29.7,2.1h5v25.2h-5v-9.7H0.2V12h29.5V2.1z"/>
	<path class="st1" d="M0.2,52h14.9V37.1H0.2v-5.6h34.5v5.6H20V52h14.7v5.6H0.2V52z"/>
	<path class="st1" d="M0.2,64.4h34.5v21.8h-4.9V70H20v13.2h-4.8V70H5.1v16.2H0.2C0.2,86.2,0.2,64.4,0.2,64.4z"/>
	<path class="st1" d="M0.2,105.2l34.5,8.5v11.1l-34.5,8.6v-5.6l7.4-1.9v-13.3l-7.4-1.9V105.2z M30,118l-17.5-4.3v11l17.5-4.1V118z"
		/>
	<path class="st1" d="M11.2,142.2c-4.5,0-6.7,2.4-6.7,7.1s2.2,7.1,6.7,7.1h23.5v5.6H11.3c-4.1,0-7-1.1-8.9-3.2
		c-1.9-2.1-2.8-5.3-2.8-9.5s0.9-7.4,2.8-9.5c1.9-2.1,4.8-3.2,8.9-3.2h23.4v5.6L11.2,142.2L11.2,142.2z"/>
	<path class="st1" d="M29.7,166h5v25.2h-5v-9.7H0.2v-5.6h29.5V166z"/>
	<path class="st1" d="M0.2,215.9h14.9V201H0.2v-5.6h34.5v5.6H20v14.9h14.7v5.6H0.2V215.9z"/>
	<path class="st1" d="M3.9,252.1c-2.8-2.1-4.2-5.7-4.2-10.9s1.4-8.9,4.3-10.9c2.8-2.1,7.3-3.1,13.4-3.1s10.6,1,13.6,3.1
		c3,2.1,4.4,5.7,4.4,10.9c0,5.2-1.5,8.8-4.4,10.9c-2.9,2.1-7.5,3.1-13.6,3.1C11.2,255.2,6.7,254.2,3.9,252.1z M7.5,234.6
		c-2,1.1-3,3.3-3,6.6c0,3.3,1,5.4,2.9,6.5c1.9,1.1,5.2,1.7,9.8,1.7s7.9-0.6,10-1.7c2.1-1.1,3.1-3.3,3.1-6.5s-1-5.3-3.1-6.5
		s-5.4-1.8-10-1.8S9.5,233.5,7.5,234.6z"/>
	<path class="st1" d="M12.5,266.4H0.2v-5.6h34.5v13.1c0,7.8-3.7,11.7-11,11.7c-4.9,0-8.2-1.9-10-5.6l-13.6,5.7v-6.1l12.3-5v-8.2
		H12.5z M23.7,279.9c4.1,0,6.2-2,6.2-5.9v-7.5H17.4v7.5c0,2,0.6,3.5,1.7,4.4C20.2,279.4,21.8,279.9,23.7,279.9z"/>
	<path class="st1" d="M30.4,301.7c0-4.3-1.5-6.4-4.5-6.4c-1.5,0-2.6,0.5-3.3,1.5c-0.7,1-1.5,3.2-2.4,6.7c-1,3.4-2.1,5.9-3.4,7.3
		s-3.4,2.1-6.3,2.1c-3.6,0-6.3-1-8.1-3.1s-2.7-4.9-2.7-8.4c0-2.9,0.3-6,1-9.5l0.3-1.8l4.5,0.6c-0.6,4.5-0.9,8-0.9,10.4
		c0,4.2,1.8,6.2,5.5,6.2c1.4,0,2.5-0.5,3.2-1.4s1.4-3.1,2.3-6.4c0.8-3.3,2-5.7,3.4-7.4c1.4-1.6,3.7-2.4,6.9-2.4s5.5,1,7.1,3
		c1.6,2,2.4,4.8,2.4,8.4c0,2.6-0.3,5.6-0.9,9.2l-0.3,1.8l-4.5-0.5C30.1,307,30.4,303.7,30.4,301.7z"/>
</g>
</svg>
