<?xml version="1.0" encoding="utf-8"?>
<!-- Generator: Adobe Illustrator 25.4.1, SVG Export Plug-In . SVG Version: 6.00 Build 0)  -->
<svg version="1.1" id="Layer_1" xmlns="http://www.w3.org/2000/svg" xmlns:xlink="http://www.w3.org/1999/xlink" x="0px" y="0px"
	 viewBox="0 0 512 521.9" style="enable-background:new 0 0 512 521.9;" xml:space="preserve">
<style type="text/css">
	.st0{fill:#F0F8FF;}
	.st1{opacity:0.43;}
	.st2{fill:#0079B4;}
</style>
<rect x="-0.5" class="st0" width="512.9" height="521.9"/>
<g class="st1">
	<path class="st2" d="M485.4,165.9c-4.2-4.2-10.5-4.2-14.7,0l-24.2,24.2l-80-80l24.2-24.2c4.2-4.2,4.2-10.5,0-14.7
		c-4.2-4.2-10.5-4.2-14.7,0l-31.6,31.6c-4.2,4.2-4.2,10.5,0,14.7l2.1,2.1c-30.5,20-96.8,30.5-122.1,32.6c-4.2,0-8.4,3.2-9.5,7.4
		l-63.1,231.5c-1.1,4.2,0,8.4,3.2,10.5c2.1,2.1,6.3,4.2,10.5,3.2L397,341.6c4.2-1.1,7.4-5.3,7.4-9.5c2.1-25.3,12.6-91.6,32.6-122.1
		l2.1,2.1c4.2,4.2,10.5,4.2,14.7,0l31.6-31.6C489.6,176.4,489.6,170.1,485.4,165.9z M384.4,322.7l-186.3,50.5l68.4-68.4
		c5.3,3.2,11.6,4.2,17.9,4.2c9.5,0,18.9-3.2,26.3-10.5c14.7-14.7,14.7-37.9,0-51.6c-14.7-14.7-37.9-14.7-51.6,0
		c-11.6,11.6-13.7,29.5-6.3,43.1l-69.5,68.4l50.5-186.3c24.2-3.2,93.7-12.6,127.3-37.9l60,60C397,229,387.5,298.5,384.4,322.7z
		 M271.8,284.8c-6.3-6.3-6.3-15.8,0-22.1c3.2-3.2,7.4-4.2,11.6-4.2s8.4,1.1,11.6,4.2c6.3,6.3,6.3,15.8,0,22.1
		C288.6,290,278.1,290,271.8,284.8z"/>
</g>
</svg>
