<?xml version="1.0" encoding="utf-8"?>
<!-- Generator: Adobe Illustrator 24.3.0, SVG Export Plug-In . SVG Version: 6.00 Build 0)  -->
<svg version="1.1" id="Layer_1" xmlns="http://www.w3.org/2000/svg" xmlns:xlink="http://www.w3.org/1999/xlink" x="0px" y="0px"
	 viewBox="0 0 240 80" style="enable-background:new 0 0 240 80;" xml:space="preserve">
<style type="text/css">
	.st0{clip-path:url(#SVGID_2_);fill:#3FBFE9;}
	.st1{clip-path:url(#SVGID_2_);fill:#0081BF;}
</style>
<g>
	<defs>
		<rect id="SVGID_1_" x="14" y="10" width="215.59" height="60"/>
	</defs>
	<clipPath id="SVGID_2_">
		<use xlink:href="#SVGID_1_"  style="overflow:visible;"/>
	</clipPath>
	<path class="st0" d="M39.08,60.72v0.78c0,1.51-0.62,2.79-1.52,3.84h0c-16.4-0.37-24.28-10.51-23.51-21.54
		c0.79-11.46,10.76-22.98,23.43-28.76c-0.41,0.97-0.63,2.04-0.63,3.16c0,3.19,1.82,5.96,4.49,7.31c-1.86,3.49-3.75,7.94-5.58,13.52
		l-3.5,2.85l0.25,0.28h2.29c-0.88,3.01-1.9,6.73-2.63,9.89c-0.18,0.69-0.38,1.72-0.43,2.52C31.43,58.71,34.26,60.42,39.08,60.72"/>
	<path class="st0" d="M72.59,48.37C67.67,54.88,60.13,60.15,51.86,63c-0.15-0.49-0.24-0.99-0.24-1.51v-2.37
		c6.5-1.91,13.45-5.66,18.85-12.12L72.59,48.37z"/>
	<path class="st0" d="M74.05,25.54c-0.53,7.64-8.05,13.24-22.42,14.48V34.6c5.14-1.97,7.64-5.73,7.99-10.8
		c0.36-5.15-1.94-9.16-6.71-9.16c-0.15,0-0.3,0.01-0.46,0.02h0c-0.61-1.27-1.54-2.37-2.68-3.17c1.51-0.19,3.03-0.28,4.54-0.28
		C66.15,11.22,74.61,17.3,74.05,25.54"/>
	<polygon class="st1" points="86.75,15.49 91.6,15.49 91.6,16.57 88,16.57 88,18.75 90.93,18.75 90.93,19.83 88,19.83 88,22.07 
		91.6,22.07 91.6,23.17 86.75,23.17 	"/>
	<path class="st1" d="M97.52,23.17h-1.21v-0.29c0,0-0.82,0.41-1.5,0.41c-1.44,0-2.12-0.75-2.12-2.92c0-2.03,0.73-2.94,2.33-2.94
		c0.45,0,1.21,0.14,1.28,0.15v-2.36h1.22V23.17z M96.3,21.92V18.6c-0.07-0.01-0.72-0.11-1.19-0.11c-0.83,0-1.19,0.61-1.19,1.88
		c0,1.44,0.39,1.83,1.08,1.83C95.64,22.2,96.3,21.92,96.3,21.92"/>
	<path class="st1" d="M103.83,17.56v5.61h-1.21v-0.35c0,0-0.82,0.47-1.51,0.47c-1.6,0-1.94-0.83-1.94-2.8v-2.93h1.22v2.94
		c0,1.24,0.08,1.7,0.95,1.7c0.67,0,1.28-0.29,1.28-0.29v-4.35H103.83z"/>
	<path class="st1" d="M109.32,17.65l-0.05,0.96c0,0-0.89-0.09-1.31-0.09c-1.17,0-1.44,0.47-1.44,1.76c0,1.44,0.23,1.92,1.45,1.92
		c0.43,0,1.31-0.09,1.31-0.09l0.03,0.98c0,0-1.13,0.2-1.7,0.2c-1.73,0-2.32-0.85-2.32-3.01c0-2.01,0.67-2.85,2.34-2.85
		C108.23,17.44,109.32,17.65,109.32,17.65"/>
	<path class="st1" d="M114.87,21.84c0.02,0.34,0.17,0.47,0.49,0.52l-0.03,0.93c-0.68,0-1.08-0.09-1.49-0.41c0,0-0.9,0.41-1.81,0.41
		c-1.11,0-1.67-0.62-1.67-1.78c0-1.19,0.65-1.59,1.85-1.69l1.45-0.12v-0.4c0-0.62-0.27-0.81-0.82-0.81c-0.75,0-2.11,0.11-2.11,0.11
		l-0.05-0.86c0,0,1.22-0.29,2.25-0.29c1.37,0,1.93,0.57,1.93,1.85V21.84z M112.36,20.68c-0.52,0.04-0.77,0.29-0.77,0.8
		c0,0.5,0.21,0.82,0.68,0.82c0.64,0,1.39-0.25,1.39-0.25v-1.49L112.36,20.68z"/>
	<path class="st1" d="M118.1,18.6v2.47c0,0.84,0.03,1.13,0.62,1.13c0.31,0,0.92-0.03,0.92-0.03l0.06,0.98c0,0-0.75,0.15-1.14,0.15
		c-1.27,0-1.66-0.47-1.66-2.09v-2.6h-0.72v-1.04h0.72v-1.63h1.21v1.63h1.55v1.04H118.1z"/>
	<path class="st1" d="M120.88,15.32h1.22v1.29h-1.22V15.32z M120.88,17.56h1.22v5.61h-1.22V17.56z"/>
	<path class="st1" d="M128.53,20.33c0,1.86-0.57,2.96-2.5,2.96c-1.92,0-2.5-1.1-2.5-2.96c0-1.82,0.63-2.89,2.5-2.89
		S128.53,18.51,128.53,20.33 M127.29,20.33c0-1.3-0.28-1.86-1.27-1.86c-0.99,0-1.27,0.56-1.27,1.86c0,1.3,0.22,1.93,1.27,1.93
		C127.07,22.26,127.29,21.63,127.29,20.33"/>
	<path class="st1" d="M129.95,23.17v-5.61h1.21v0.35c0,0,0.82-0.47,1.55-0.47c1.56,0,1.94,0.89,1.94,2.73v3.01h-1.21V20.2
		c0-1.12-0.15-1.67-1-1.67c-0.65,0-1.27,0.29-1.27,0.29v4.35H129.95z"/>
	<rect x="139.14" y="15.49" class="st1" width="1.25" height="7.68"/>
	<path class="st1" d="M142.24,23.17v-5.61h1.21v0.35c0,0,0.82-0.47,1.55-0.47c1.56,0,1.94,0.89,1.94,2.73v3.01h-1.21V20.2
		c0-1.12-0.15-1.67-1-1.67c-0.65,0-1.27,0.29-1.27,0.29v4.35H142.24z"/>
	<path class="st1" d="M150.06,18.6v2.47c0,0.84,0.03,1.13,0.62,1.13c0.31,0,0.92-0.03,0.92-0.03l0.06,0.98c0,0-0.75,0.15-1.14,0.15
		c-1.27,0-1.66-0.47-1.66-2.09v-2.6h-0.72v-1.04h0.72v-1.63h1.21v1.63h1.55v1.04H150.06z"/>
	<path class="st1" d="M157.14,22.13l0.02,0.91c0,0-1.28,0.26-2.26,0.26c-1.68,0-2.33-0.9-2.33-2.87c0-2.05,0.89-2.98,2.43-2.98
		c1.57,0,2.36,0.82,2.36,2.57l-0.08,0.87h-3.48c0.01,0.9,0.35,1.34,1.28,1.34C155.96,22.23,157.14,22.13,157.14,22.13 M156.15,19.94
		c0-1.12-0.34-1.49-1.16-1.49c-0.83,0-1.2,0.41-1.21,1.49H156.15z"/>
	<path class="st1" d="M158.76,17.56h1.21v0.67c0,0,0.95-0.62,1.91-0.8v1.22c-1.02,0.2-1.9,0.59-1.9,0.59v3.91h-1.22V17.56z"/>
	<path class="st1" d="M163.03,23.17v-5.61h1.21v0.35c0,0,0.82-0.47,1.55-0.47c1.56,0,1.94,0.89,1.94,2.73v3.01h-1.21V20.2
		c0-1.12-0.15-1.67-1-1.67c-0.65,0-1.27,0.29-1.27,0.29v4.35H163.03z"/>
	<path class="st1" d="M173.54,21.84c0.02,0.34,0.17,0.47,0.49,0.52L174,23.29c-0.68,0-1.08-0.09-1.49-0.41c0,0-0.9,0.41-1.8,0.41
		c-1.11,0-1.67-0.62-1.67-1.78c0-1.19,0.65-1.59,1.85-1.69l1.45-0.12v-0.4c0-0.62-0.27-0.81-0.82-0.81c-0.75,0-2.11,0.11-2.11,0.11
		l-0.05-0.86c0,0,1.22-0.29,2.25-0.29c1.37,0,1.93,0.57,1.93,1.85V21.84z M171.02,20.68c-0.52,0.04-0.77,0.29-0.77,0.8
		c0,0.5,0.21,0.82,0.68,0.82c0.64,0,1.39-0.25,1.39-0.25v-1.49L171.02,20.68z"/>
	<path class="st1" d="M176.77,18.6v2.47c0,0.84,0.03,1.13,0.62,1.13c0.31,0,0.92-0.03,0.92-0.03l0.06,0.98c0,0-0.75,0.15-1.14,0.15
		c-1.27,0-1.66-0.47-1.66-2.09v-2.6h-0.72v-1.04h0.72v-1.63h1.21v1.63h1.55v1.04H176.77z"/>
	<path class="st1" d="M179.54,15.32h1.22v1.29h-1.22V15.32z M179.54,17.56h1.22v5.61h-1.22V17.56z"/>
	<path class="st1" d="M187.2,20.33c0,1.86-0.57,2.96-2.5,2.96c-1.92,0-2.5-1.1-2.5-2.96c0-1.82,0.63-2.89,2.5-2.89
		C186.57,17.44,187.2,18.51,187.2,20.33 M185.97,20.33c0-1.3-0.28-1.86-1.27-1.86c-0.99,0-1.27,0.56-1.27,1.86
		c0,1.3,0.22,1.93,1.27,1.93C185.74,22.26,185.97,21.63,185.97,20.33"/>
	<path class="st1" d="M188.63,23.17v-5.61h1.21v0.35c0,0,0.82-0.47,1.55-0.47c1.56,0,1.94,0.89,1.94,2.73v3.01h-1.21V20.2
		c0-1.12-0.15-1.67-1-1.67c-0.65,0-1.27,0.29-1.27,0.29v4.35H188.63z"/>
	<path class="st1" d="M199.13,21.84c0.02,0.34,0.17,0.47,0.49,0.52l-0.03,0.93c-0.68,0-1.08-0.09-1.49-0.41c0,0-0.9,0.41-1.8,0.41
		c-1.11,0-1.67-0.62-1.67-1.78c0-1.19,0.65-1.59,1.85-1.69l1.45-0.12v-0.4c0-0.62-0.27-0.81-0.82-0.81c-0.75,0-2.11,0.11-2.11,0.11
		l-0.04-0.86c0,0,1.22-0.29,2.25-0.29c1.37,0,1.93,0.57,1.93,1.85V21.84z M196.62,20.68c-0.52,0.04-0.77,0.29-0.77,0.8
		c0,0.5,0.21,0.82,0.68,0.82c0.64,0,1.39-0.25,1.39-0.25v-1.49L196.62,20.68z"/>
	<rect x="200.96" y="15.23" class="st1" width="1.22" height="7.94"/>
	<rect x="86.75" y="29.51" class="st1" width="1.25" height="7.68"/>
	<path class="st1" d="M89.86,37.19v-5.61h1.21v0.35c0,0,0.82-0.47,1.55-0.47c1.56,0,1.94,0.89,1.94,2.73v3.01h-1.21v-2.97
		c0-1.12-0.15-1.67-1-1.67c-0.65,0-1.27,0.29-1.27,0.29v4.35H89.86z"/>
	<path class="st1" d="M97.7,32.63v2.47c0,0.84,0.03,1.13,0.62,1.13c0.31,0,0.92-0.03,0.92-0.03l0.06,0.98c0,0-0.75,0.15-1.14,0.15
		c-1.27,0-1.66-0.47-1.66-2.09v-2.6h-0.72v-1.04h0.72v-1.63h1.21v1.63h1.55v1.04H97.7z"/>
	<path class="st1" d="M104.81,36.15l0.02,0.91c0,0-1.28,0.26-2.27,0.26c-1.68,0-2.33-0.9-2.33-2.87c0-2.05,0.89-2.98,2.43-2.98
		c1.57,0,2.36,0.82,2.36,2.57l-0.08,0.87h-3.48c0.01,0.9,0.35,1.34,1.28,1.34C103.63,36.25,104.81,36.15,104.81,36.15 M103.82,33.96
		c0-1.12-0.34-1.49-1.16-1.49c-0.83,0-1.2,0.41-1.21,1.49H103.82z"/>
	<path class="st1" d="M106.44,31.59h1.21v0.67c0,0,0.95-0.62,1.91-0.8v1.22c-1.02,0.2-1.9,0.59-1.9,0.59v3.91h-1.22V31.59z"/>
	<path class="st1" d="M110.72,37.19v-5.61h1.21v0.35c0,0,0.82-0.47,1.55-0.47c1.56,0,1.94,0.89,1.94,2.73v3.01h-1.21v-2.97
		c0-1.12-0.14-1.67-1-1.67c-0.65,0-1.27,0.29-1.27,0.29v4.35H110.72z"/>
	<path class="st1" d="M121.24,35.87c0.02,0.34,0.17,0.47,0.49,0.52l-0.03,0.93c-0.68,0-1.08-0.09-1.49-0.41c0,0-0.9,0.41-1.81,0.41
		c-1.11,0-1.67-0.62-1.67-1.78c0-1.19,0.65-1.59,1.85-1.69l1.45-0.12v-0.4c0-0.62-0.27-0.81-0.82-0.81c-0.75,0-2.11,0.11-2.11,0.11
		l-0.05-0.86c0,0,1.22-0.29,2.25-0.29c1.37,0,1.93,0.57,1.93,1.85V35.87z M118.73,34.71c-0.52,0.04-0.77,0.29-0.77,0.8
		c0,0.5,0.21,0.82,0.68,0.82c0.64,0,1.39-0.25,1.39-0.25v-1.49L118.73,34.71z"/>
	<path class="st1" d="M124.5,32.63v2.47c0,0.84,0.03,1.13,0.62,1.13c0.31,0,0.92-0.03,0.92-0.03l0.06,0.98c0,0-0.75,0.15-1.14,0.15
		c-1.27,0-1.66-0.47-1.66-2.09v-2.6h-0.72v-1.04h0.72v-1.63h1.21v1.63h1.55v1.04H124.5z"/>
	<path class="st1" d="M127.3,29.34h1.22v1.29h-1.22V29.34z M127.3,31.59h1.22v5.61h-1.22V31.59z"/>
	<path class="st1" d="M134.98,34.36c0,1.86-0.57,2.96-2.5,2.96c-1.92,0-2.5-1.1-2.5-2.96c0-1.82,0.63-2.89,2.5-2.89
		C134.35,31.46,134.98,32.54,134.98,34.36 M133.75,34.36c0-1.3-0.28-1.86-1.27-1.86c-0.99,0-1.27,0.56-1.27,1.86
		c0,1.3,0.22,1.93,1.27,1.93C133.52,36.29,133.75,35.66,133.75,34.36"/>
	<path class="st1" d="M136.43,37.19v-5.61h1.21v0.35c0,0,0.82-0.47,1.55-0.47c1.56,0,1.94,0.89,1.94,2.73v3.01h-1.21v-2.97
		c0-1.12-0.15-1.67-1-1.67c-0.65,0-1.27,0.29-1.27,0.29v4.35H136.43z"/>
	<path class="st1" d="M146.95,35.87c0.02,0.34,0.17,0.47,0.49,0.52l-0.03,0.93c-0.68,0-1.08-0.09-1.49-0.41c0,0-0.9,0.41-1.8,0.41
		c-1.11,0-1.67-0.62-1.67-1.78c0-1.19,0.65-1.59,1.85-1.69l1.45-0.12v-0.4c0-0.62-0.27-0.81-0.82-0.81c-0.75,0-2.11,0.11-2.11,0.11
		l-0.05-0.86c0,0,1.22-0.29,2.25-0.29c1.37,0,1.93,0.57,1.93,1.85V35.87z M144.44,34.71c-0.52,0.04-0.77,0.29-0.77,0.8
		c0,0.5,0.21,0.82,0.68,0.82c0.64,0,1.39-0.25,1.39-0.25v-1.49L144.44,34.71z"/>
	<rect x="148.81" y="29.25" class="st1" width="1.22" height="7.94"/>
	<path class="st1" d="M156.13,36.15l0.02,0.91c0,0-1.28,0.26-2.26,0.26c-1.68,0-2.33-0.9-2.33-2.87c0-2.05,0.89-2.98,2.43-2.98
		c1.57,0,2.36,0.82,2.36,2.57l-0.08,0.87h-3.48c0.01,0.9,0.35,1.34,1.28,1.34C154.95,36.25,156.13,36.15,156.13,36.15 M155.14,33.96
		c0-1.12-0.34-1.49-1.16-1.49c-0.83,0-1.2,0.41-1.21,1.49H155.14z"/>
	<path class="st1" d="M165.01,37.19h-1.21V36.9c0,0-0.82,0.41-1.5,0.41c-1.44,0-2.12-0.75-2.12-2.92c0-2.03,0.73-2.94,2.33-2.94
		c0.45,0,1.21,0.14,1.28,0.15v-2.36h1.22V37.19z M163.78,35.95v-3.32c-0.07-0.01-0.72-0.11-1.19-0.11c-0.83,0-1.19,0.61-1.19,1.88
		c0,1.44,0.39,1.83,1.08,1.83C163.12,36.23,163.78,35.95,163.78,35.95"/>
	<path class="st1" d="M171.03,36.15l0.02,0.91c0,0-1.28,0.26-2.27,0.26c-1.68,0-2.33-0.9-2.33-2.87c0-2.05,0.89-2.98,2.43-2.98
		c1.57,0,2.35,0.82,2.35,2.57l-0.08,0.87h-3.48c0.01,0.9,0.35,1.34,1.28,1.34C169.86,36.25,171.03,36.15,171.03,36.15 M170.05,33.96
		c0-1.12-0.34-1.49-1.16-1.49c-0.83,0-1.2,0.41-1.21,1.49H170.05z"/>
	<rect x="175.39" y="29.25" class="st1" width="1.22" height="7.94"/>
	<polygon class="st1" points="178.7,29.43 179.98,29.43 179.12,32.07 178.19,32.07 	"/>
	<polygon class="st1" points="181.47,29.51 186.31,29.51 186.31,30.6 182.72,30.6 182.72,32.78 185.64,32.78 185.64,33.85 
		182.72,33.85 182.72,36.09 186.31,36.09 186.31,37.19 181.47,37.19 	"/>
	<path class="st1" d="M192.27,37.19h-1.21V36.9c0,0-0.82,0.41-1.5,0.41c-1.44,0-2.12-0.75-2.12-2.92c0-2.03,0.73-2.94,2.33-2.94
		c0.45,0,1.21,0.14,1.28,0.15v-2.36h1.22V37.19z M191.05,35.95v-3.32c-0.07-0.01-0.72-0.11-1.19-0.11c-0.83,0-1.19,0.61-1.19,1.88
		c0,1.44,0.39,1.83,1.08,1.83C190.39,36.23,191.05,35.95,191.05,35.95"/>
	<path class="st1" d="M198.61,31.59v5.61h-1.21v-0.35c0,0-0.82,0.47-1.51,0.47c-1.6,0-1.94-0.83-1.94-2.8v-2.93h1.22v2.94
		c0,1.24,0.08,1.7,0.95,1.7c0.67,0,1.28-0.29,1.28-0.29v-4.35H198.61z"/>
	<path class="st1" d="M204.12,31.68l-0.05,0.96c0,0-0.89-0.09-1.31-0.09c-1.17,0-1.44,0.47-1.44,1.76c0,1.44,0.24,1.92,1.45,1.92
		c0.43,0,1.31-0.09,1.31-0.09l0.03,0.98c0,0-1.13,0.2-1.71,0.2c-1.73,0-2.32-0.85-2.32-3.01c0-2.01,0.67-2.85,2.34-2.85
		C203.04,31.46,204.12,31.68,204.12,31.68"/>
	<path class="st1" d="M209.7,35.87c0.02,0.34,0.17,0.47,0.49,0.52l-0.03,0.93c-0.68,0-1.08-0.09-1.49-0.41c0,0-0.9,0.41-1.81,0.41
		c-1.11,0-1.67-0.62-1.67-1.78c0-1.19,0.65-1.59,1.85-1.69l1.45-0.12v-0.4c0-0.62-0.27-0.81-0.82-0.81c-0.75,0-2.11,0.11-2.11,0.11
		l-0.04-0.86c0,0,1.22-0.29,2.25-0.29c1.37,0,1.93,0.57,1.93,1.85V35.87z M207.19,34.71c-0.52,0.04-0.77,0.29-0.77,0.8
		c0,0.5,0.21,0.82,0.68,0.82c0.64,0,1.39-0.25,1.39-0.25v-1.49L207.19,34.71z"/>
	<path class="st1" d="M212.96,32.63v2.47c0,0.84,0.03,1.13,0.62,1.13c0.31,0,0.92-0.03,0.92-0.03l0.06,0.98c0,0-0.75,0.15-1.14,0.15
		c-1.27,0-1.66-0.47-1.66-2.09v-2.6h-0.72v-1.04h0.72v-1.63h1.21v1.63h1.55v1.04H212.96z"/>
	<path class="st1" d="M215.75,29.34h1.22v1.29h-1.22V29.34z M215.75,31.59h1.22v5.61h-1.22V31.59z"/>
	<path class="st1" d="M223.43,34.36c0,1.86-0.57,2.96-2.5,2.96c-1.92,0-2.5-1.1-2.5-2.96c0-1.82,0.63-2.89,2.5-2.89
		C222.81,31.46,223.43,32.54,223.43,34.36 M222.2,34.36c0-1.3-0.28-1.86-1.27-1.86c-0.99,0-1.27,0.56-1.27,1.86
		c0,1.3,0.22,1.93,1.27,1.93C221.98,36.29,222.2,35.66,222.2,34.36"/>
	<path class="st1" d="M224.89,37.19v-5.61h1.21v0.35c0,0,0.82-0.47,1.55-0.47c1.56,0,1.94,0.89,1.94,2.73v3.01h-1.21v-2.97
		c0-1.12-0.15-1.67-1-1.67c-0.65,0-1.27,0.29-1.27,0.29v4.35H224.89z"/>
	<rect x="86.75" y="43.54" class="st1" width="1.25" height="7.68"/>
	<path class="st1" d="M89.84,51.22v-5.61h1.21v0.35c0,0,0.82-0.47,1.55-0.47c1.56,0,1.94,0.89,1.94,2.73v3.01h-1.21v-2.97
		c0-1.12-0.15-1.67-1-1.67c-0.65,0-1.27,0.29-1.27,0.29v4.35H89.84z"/>
	<path class="st1" d="M97.66,46.66v2.47c0,0.84,0.03,1.13,0.62,1.13c0.31,0,0.92-0.03,0.92-0.03l0.06,0.98c0,0-0.75,0.15-1.14,0.15
		c-1.27,0-1.66-0.47-1.66-2.09v-2.6h-0.72v-1.04h0.72v-1.63h1.21v1.63h1.55v1.04H97.66z"/>
	<path class="st1" d="M104.74,50.18l0.02,0.91c0,0-1.28,0.26-2.26,0.26c-1.68,0-2.33-0.9-2.33-2.87c0-2.05,0.89-2.98,2.43-2.98
		c1.57,0,2.35,0.82,2.35,2.57l-0.08,0.87h-3.48c0.01,0.9,0.35,1.35,1.28,1.35C103.56,50.28,104.74,50.18,104.74,50.18 M103.75,47.99
		c0-1.12-0.34-1.49-1.16-1.49c-0.83,0-1.2,0.41-1.21,1.49H103.75z"/>
	<path class="st1" d="M106.35,45.61h1.21v0.67c0,0,0.95-0.62,1.91-0.8v1.22c-1.02,0.2-1.9,0.6-1.9,0.6v3.91h-1.22V45.61z"/>
	<path class="st1" d="M110.61,51.22v-5.61h1.21v0.35c0,0,0.82-0.47,1.55-0.47c1.56,0,1.94,0.89,1.94,2.73v3.01h-1.21v-2.97
		c0-1.12-0.15-1.67-1-1.67c-0.65,0-1.27,0.29-1.27,0.29v4.35H110.61z"/>
	<path class="st1" d="M121.11,49.9c0.02,0.34,0.17,0.47,0.49,0.52l-0.03,0.93c-0.68,0-1.08-0.09-1.49-0.41c0,0-0.9,0.41-1.8,0.41
		c-1.11,0-1.67-0.62-1.67-1.78c0-1.19,0.65-1.59,1.85-1.69l1.45-0.12v-0.4c0-0.62-0.27-0.81-0.82-0.81c-0.75,0-2.11,0.11-2.11,0.11
		l-0.04-0.86c0,0,1.22-0.29,2.25-0.29c1.37,0,1.93,0.57,1.93,1.85V49.9z M118.6,48.73c-0.52,0.05-0.77,0.29-0.77,0.8
		c0,0.5,0.21,0.82,0.68,0.82c0.64,0,1.39-0.25,1.39-0.25v-1.49L118.6,48.73z"/>
	<path class="st1" d="M127.93,43.37h1.22v1.29h-1.22V43.37z M127.93,45.61h1.22v5.61h-1.22V45.61z"/>
	<path class="st1" d="M135.5,48.38c0,1.86-0.57,2.96-2.5,2.96c-1.92,0-2.5-1.1-2.5-2.96c0-1.82,0.63-2.89,2.5-2.89
		C134.87,45.49,135.5,46.57,135.5,48.38 M134.27,48.38c0-1.3-0.28-1.86-1.27-1.86c-0.99,0-1.27,0.56-1.27,1.86
		c0,1.3,0.22,1.93,1.27,1.93C134.04,50.31,134.27,49.68,134.27,48.38"/>
	<path class="st1" d="M136.52,51.22v-5.61h1.21v0.35c0,0,0.82-0.47,1.55-0.47c1.56,0,1.94,0.89,1.94,2.73v3.01h-1.21v-2.97
		c0-1.12-0.14-1.67-1-1.67c-0.65,0-1.27,0.29-1.27,0.29v4.35H136.52z"/>
	<path class="st1" d="M146.86,49.9c0.02,0.34,0.17,0.47,0.49,0.52l-0.03,0.93c-0.68,0-1.08-0.09-1.49-0.41c0,0-0.9,0.41-1.81,0.41
		c-1.11,0-1.67-0.62-1.67-1.78c0-1.19,0.65-1.59,1.85-1.69l1.45-0.12v-0.4c0-0.62-0.27-0.81-0.82-0.81c-0.75,0-2.11,0.11-2.11,0.11
		l-0.04-0.86c0,0,1.22-0.29,2.25-0.29c1.37,0,1.93,0.57,1.93,1.85V49.9z M144.35,48.73c-0.52,0.05-0.77,0.29-0.77,0.8
		c0,0.5,0.21,0.82,0.68,0.82c0.64,0,1.39-0.25,1.39-0.25v-1.49L144.35,48.73z"/>
	<rect x="148.53" y="43.28" class="st1" width="1.22" height="7.94"/>
	<path class="st1" d="M158.71,51.22h-1.21v-0.29c0,0-0.82,0.41-1.5,0.41c-1.44,0-2.12-0.75-2.12-2.92c0-2.03,0.73-2.94,2.33-2.94
		c0.45,0,1.21,0.14,1.28,0.15v-2.36h1.22V51.22z M157.49,49.98v-3.32c-0.07-0.01-0.72-0.11-1.19-0.11c-0.83,0-1.19,0.61-1.19,1.88
		c0,1.44,0.39,1.83,1.08,1.83C156.83,50.26,157.49,49.98,157.49,49.98"/>
	<path class="st1" d="M164.73,50.18l0.02,0.91c0,0-1.28,0.26-2.27,0.26c-1.68,0-2.33-0.9-2.33-2.87c0-2.05,0.89-2.98,2.43-2.98
		c1.57,0,2.36,0.82,2.36,2.57l-0.08,0.87h-3.48c0.01,0.9,0.35,1.35,1.28,1.35C163.55,50.28,164.73,50.18,164.73,50.18 M163.74,47.99
		c0-1.12-0.34-1.49-1.16-1.49c-0.83,0-1.2,0.41-1.21,1.49H163.74z"/>
	<rect x="169.02" y="43.28" class="st1" width="1.22" height="7.94"/>
	<path class="st1" d="M176.16,49.9c0.02,0.34,0.17,0.47,0.49,0.52l-0.03,0.93c-0.68,0-1.08-0.09-1.49-0.41c0,0-0.9,0.41-1.81,0.41
		c-1.11,0-1.67-0.62-1.67-1.78c0-1.19,0.65-1.59,1.85-1.69l1.45-0.12v-0.4c0-0.62-0.27-0.81-0.82-0.81c-0.75,0-2.11,0.11-2.11,0.11
		l-0.05-0.86c0,0,1.22-0.29,2.25-0.29c1.37,0,1.93,0.57,1.93,1.85V49.9z M173.65,48.73c-0.52,0.05-0.77,0.29-0.77,0.8
		c0,0.5,0.21,0.82,0.68,0.82c0.64,0,1.39-0.25,1.39-0.25v-1.49L173.65,48.73z"/>
	<polygon class="st1" points="180.68,43.54 185.53,43.54 185.53,44.63 181.93,44.63 181.93,46.8 184.86,46.8 184.86,47.88 
		181.93,47.88 181.93,50.12 185.53,50.12 185.53,51.22 180.68,51.22 	"/>
	<path class="st1" d="M191.46,51.22h-1.21v-0.29c0,0-0.82,0.41-1.5,0.41c-1.44,0-2.12-0.75-2.12-2.92c0-2.03,0.73-2.94,2.33-2.94
		c0.45,0,1.21,0.14,1.28,0.15v-2.36h1.22V51.22z M190.23,49.98v-3.32c-0.07-0.01-0.72-0.11-1.19-0.11c-0.83,0-1.19,0.61-1.19,1.88
		c0,1.44,0.39,1.83,1.08,1.83C189.57,50.26,190.23,49.98,190.23,49.98"/>
	<path class="st1" d="M197.77,45.61v5.61h-1.21v-0.35c0,0-0.82,0.47-1.51,0.47c-1.6,0-1.94-0.83-1.94-2.8v-2.93h1.22v2.94
		c0,1.24,0.08,1.7,0.95,1.7c0.67,0,1.28-0.29,1.28-0.29v-4.35H197.77z"/>
	<path class="st1" d="M203.26,45.7l-0.05,0.96c0,0-0.89-0.09-1.31-0.09c-1.17,0-1.44,0.47-1.44,1.76c0,1.44,0.24,1.92,1.45,1.92
		c0.43,0,1.31-0.09,1.31-0.09l0.03,0.98c0,0-1.13,0.2-1.7,0.2c-1.73,0-2.32-0.85-2.32-3.01c0-2.01,0.67-2.85,2.34-2.85
		C202.17,45.49,203.26,45.7,203.26,45.7"/>
	<path class="st1" d="M208.81,49.9c0.02,0.34,0.17,0.47,0.49,0.52l-0.03,0.93c-0.68,0-1.08-0.09-1.49-0.41c0,0-0.9,0.41-1.8,0.41
		c-1.11,0-1.67-0.62-1.67-1.78c0-1.19,0.65-1.59,1.85-1.69l1.45-0.12v-0.4c0-0.62-0.27-0.81-0.82-0.81c-0.75,0-2.11,0.11-2.11,0.11
		l-0.04-0.86c0,0,1.22-0.29,2.25-0.29c1.37,0,1.93,0.57,1.93,1.85V49.9z M206.3,48.73c-0.52,0.05-0.77,0.29-0.77,0.8
		c0,0.5,0.21,0.82,0.68,0.82c0.64,0,1.39-0.25,1.39-0.25v-1.49L206.3,48.73z"/>
	<path class="st1" d="M214.36,45.7l-0.05,0.96c0,0-0.89-0.09-1.31-0.09c-1.17,0-1.44,0.47-1.44,1.76c0,1.44,0.24,1.92,1.45,1.92
		c0.43,0,1.31-0.09,1.31-0.09l0.03,0.98c0,0-1.13,0.2-1.7,0.2c-1.73,0-2.32-0.85-2.32-3.01c0-2.01,0.67-2.85,2.34-2.85
		C213.27,45.49,214.36,45.7,214.36,45.7"/>
	<path class="st1" d="M215.76,43.37h1.22v1.29h-1.22V43.37z M215.76,45.61h1.22v5.61h-1.22V45.61z"/>
	<path class="st1" d="M220.92,45.49c1.87,0,2.5,1.08,2.5,2.89c0,1.86-0.57,2.96-2.5,2.96c-1.92,0-2.5-1.1-2.5-2.96
		C218.42,46.57,219.05,45.49,220.92,45.49 M219.43,43.97l0.29,0.8l2.74-0.87l-0.38-1.05L219.43,43.97z M220.92,50.31
		c1.04,0,1.27-0.63,1.27-1.93c0-1.3-0.28-1.86-1.27-1.86c-0.99,0-1.27,0.56-1.27,1.86C219.66,49.68,219.88,50.31,220.92,50.31"/>
	<path class="st1" d="M224.86,51.22v-5.61h1.21v0.35c0,0,0.82-0.47,1.55-0.47c1.56,0,1.94,0.89,1.94,2.73v3.01h-1.21v-2.97
		c0-1.12-0.14-1.67-1-1.67c-0.65,0-1.27,0.29-1.27,0.29v4.35H224.86z"/>
	<path class="st1" d="M126.7,45.62l-0.05,0.98c0,0-0.9-0.09-1.33-0.09c-1.19,0-1.46,0.48-1.46,1.79c0,1.46,0.24,1.95,1.47,1.95
		c0.43,0,1.34-0.09,1.34-0.09l0.03,0.99c0,0-1.15,0.21-1.73,0.21c-1.76,0-2.36-0.87-2.36-3.06c0-2.04,0.68-2.9,2.38-2.9
		C125.6,45.4,126.7,45.62,126.7,45.62"/>
	<path class="st1" d="M89.67,57.57c1.52,0,2.34,0.57,2.34,2c0,0.93-0.29,1.39-0.91,1.73c0.66,0.26,1.1,0.73,1.1,1.78
		c0,1.57-0.95,2.18-2.45,2.18h-3.01v-7.68H89.67z M88,58.64v2.2h1.65c0.76,0,1.1-0.38,1.1-1.13c0-0.74-0.38-1.07-1.14-1.07H88z
		 M88,61.89v2.28h1.69c0.77,0,1.23-0.25,1.23-1.17c0-0.87-0.65-1.11-1.26-1.11H88z"/>
	<path class="st1" d="M93.69,57.4h1.22v1.29h-1.22V57.4z M93.69,59.64h1.22v5.61h-1.22V59.64z"/>
	<rect x="96.67" y="57.31" class="st1" width="1.22" height="7.94"/>
	<path class="st1" d="M104.24,65.25h-1.21v-0.29c0,0-0.82,0.41-1.5,0.41c-1.44,0-2.12-0.75-2.12-2.92c0-2.03,0.73-2.94,2.33-2.94
		c0.45,0,1.21,0.14,1.28,0.15v-2.36h1.22V65.25z M103.02,64v-3.32c-0.07-0.01-0.72-0.11-1.19-0.11c-0.83,0-1.19,0.6-1.19,1.88
		c0,1.44,0.39,1.83,1.08,1.83C102.36,64.28,103.02,64,103.02,64"/>
	<path class="st1" d="M110.55,59.64v5.61h-1.21V64.9c0,0-0.82,0.47-1.51,0.47c-1.6,0-1.94-0.83-1.94-2.8v-2.93h1.22v2.94
		c0,1.24,0.08,1.7,0.95,1.7c0.67,0,1.28-0.29,1.28-0.29v-4.35H110.55z"/>
	<path class="st1" d="M112.25,65.25v-5.61h1.21v0.35c0,0,0.82-0.47,1.55-0.47c1.56,0,1.94,0.89,1.94,2.73v3.01h-1.21v-2.97
		c0-1.12-0.15-1.67-1-1.67c-0.65,0-1.27,0.29-1.27,0.29v4.35H112.25z"/>
	<path class="st1" d="M118.33,66.24c0-0.57,0.28-0.92,0.85-1.36c-0.23-0.16-0.37-0.47-0.37-0.82c0-0.26,0.4-0.9,0.4-0.9
		c-0.41-0.25-0.81-0.67-0.81-1.68c0-1.41,0.95-1.95,2.24-1.95c0.52,0,1.14,0.15,1.14,0.15l1.74-0.05v0.99l-0.93-0.06
		c0.15,0.19,0.3,0.48,0.3,0.92c0,1.53-0.8,1.94-2.29,1.94c-0.11,0-0.39-0.02-0.49-0.05c0,0-0.16,0.38-0.16,0.53
		c0,0.36,0.12,0.43,1.21,0.44c1.77,0.01,2.32,0.38,2.32,1.67c0,1.32-1.09,1.84-2.59,1.84C119.22,67.85,118.33,67.51,118.33,66.24
		 M119.98,65.33c-0.31,0.26-0.45,0.45-0.45,0.8c0,0.52,0.37,0.73,1.39,0.73c0.91,0,1.36-0.22,1.36-0.77c0-0.61-0.29-0.67-1.2-0.68
		C120.73,65.39,119.98,65.33,119.98,65.33 M121.69,61.48c0-0.67-0.29-1-1.04-1c-0.72,0-1.03,0.33-1.03,1c0,0.68,0.31,1,1.03,1
		C121.4,62.48,121.69,62.16,121.69,61.48"/>
	<path class="st1" d="M128.59,60.8c0,0-1.32-0.18-2-0.18c-0.67,0-0.98,0.16-0.98,0.62c0,0.37,0.24,0.47,1.33,0.66
		c1.35,0.24,1.83,0.57,1.83,1.69c0,1.31-0.83,1.78-2.22,1.78c-0.77,0-2.07-0.25-2.07-0.25l0.05-1.02c0,0,1.34,0.18,1.92,0.18
		c0.81,0,1.12-0.17,1.12-0.66c0-0.39-0.19-0.52-1.3-0.69c-1.23-0.2-1.86-0.47-1.86-1.66c0-1.27,0.99-1.74,2.1-1.74
		c0.82,0,2.11,0.25,2.11,0.25L128.59,60.8z"/>
	<path class="st1" d="M130.18,57.4h1.22v1.29h-1.22V57.4z M130.18,59.64h1.22v5.61h-1.22V59.64z"/>
	<path class="st1" d="M133.1,65.25v-5.61h1.21v0.35c0,0,0.82-0.47,1.55-0.47c1.56,0,1.94,0.89,1.94,2.73v3.01h-1.21v-2.97
		c0-1.12-0.15-1.67-1-1.67c-0.65,0-1.27,0.29-1.27,0.29v4.35H133.1z"/>
	<path class="st1" d="M140.92,60.68v2.47c0,0.84,0.03,1.13,0.62,1.13c0.31,0,0.92-0.03,0.92-0.03l0.06,0.98c0,0-0.75,0.15-1.14,0.15
		c-1.27,0-1.66-0.47-1.66-2.09v-2.6h-0.72v-1.04h0.72v-1.63h1.21v1.63h1.55v1.04H140.92z"/>
	<path class="st1" d="M148,64.21l0.02,0.91c0,0-1.28,0.26-2.27,0.26c-1.68,0-2.33-0.9-2.33-2.87c0-2.05,0.89-2.98,2.43-2.98
		c1.57,0,2.36,0.82,2.36,2.57l-0.08,0.87h-3.48c0.01,0.9,0.35,1.34,1.28,1.34C146.82,64.31,148,64.21,148,64.21 M147.01,62.02
		c0-1.12-0.34-1.49-1.16-1.49c-0.83,0-1.2,0.41-1.21,1.49H147.01z"/>
	<path class="st1" d="M149.6,59.64h1.21v0.67c0,0,0.95-0.62,1.91-0.8v1.22c-1.02,0.2-1.9,0.59-1.9,0.59v3.91h-1.22V59.64z"/>
	<path class="st1" d="M153.88,65.25v-5.61h1.21v0.35c0,0,0.82-0.47,1.55-0.47c1.56,0,1.94,0.89,1.94,2.73v3.01h-1.21v-2.97
		c0-1.12-0.14-1.67-1-1.67c-0.65,0-1.27,0.29-1.27,0.29v4.35H153.88z"/>
	<path class="st1" d="M164.38,63.93c0.02,0.34,0.17,0.47,0.49,0.52l-0.03,0.93c-0.68,0-1.08-0.09-1.49-0.41c0,0-0.9,0.41-1.8,0.41
		c-1.11,0-1.67-0.62-1.67-1.78c0-1.19,0.65-1.59,1.85-1.69l1.45-0.12v-0.4c0-0.62-0.27-0.81-0.82-0.81c-0.75,0-2.11,0.11-2.11,0.11
		l-0.04-0.86c0,0,1.22-0.29,2.25-0.29c1.37,0,1.93,0.57,1.93,1.85V63.93z M161.87,62.76c-0.52,0.05-0.77,0.29-0.77,0.8
		c0,0.5,0.21,0.82,0.68,0.82c0.64,0,1.39-0.25,1.39-0.25v-1.49L161.87,62.76z"/>
	<path class="st1" d="M167.61,60.68v2.47c0,0.84,0.03,1.13,0.62,1.13c0.31,0,0.92-0.03,0.92-0.03l0.06,0.98c0,0-0.75,0.15-1.14,0.15
		c-1.27,0-1.66-0.47-1.66-2.09v-2.6h-0.72v-1.04h0.72v-1.63h1.21v1.63h1.55v1.04H167.61z"/>
	<path class="st1" d="M170.38,57.4h1.22v1.29h-1.22V57.4z M170.38,59.64h1.22v5.61h-1.22V59.64z"/>
	<path class="st1" d="M178.05,62.41c0,1.86-0.57,2.96-2.5,2.96c-1.92,0-2.5-1.1-2.5-2.96c0-1.82,0.63-2.89,2.5-2.89
		C177.42,59.52,178.05,60.59,178.05,62.41 M176.81,62.41c0-1.3-0.28-1.86-1.27-1.86c-0.99,0-1.27,0.56-1.27,1.86
		c0,1.3,0.22,1.93,1.27,1.93C176.59,64.34,176.81,63.71,176.81,62.41"/>
	<path class="st1" d="M179.47,65.25v-5.61h1.21v0.35c0,0,0.82-0.47,1.55-0.47c1.56,0,1.94,0.89,1.94,2.73v3.01h-1.21v-2.97
		c0-1.12-0.15-1.67-1-1.67c-0.65,0-1.27,0.29-1.27,0.29v4.35H179.47z"/>
	<path class="st1" d="M189.97,63.93c0.02,0.34,0.17,0.47,0.49,0.52l-0.03,0.93c-0.68,0-1.08-0.09-1.49-0.41c0,0-0.9,0.41-1.8,0.41
		c-1.11,0-1.67-0.62-1.67-1.78c0-1.19,0.65-1.59,1.85-1.69l1.45-0.12v-0.4c0-0.62-0.27-0.81-0.82-0.81c-0.75,0-2.11,0.11-2.11,0.11
		l-0.05-0.86c0,0,1.22-0.29,2.25-0.29c1.37,0,1.93,0.57,1.93,1.85V63.93z M187.46,62.76c-0.52,0.05-0.77,0.29-0.77,0.8
		c0,0.5,0.21,0.82,0.68,0.82c0.64,0,1.39-0.25,1.39-0.25v-1.49L187.46,62.76z"/>
	<rect x="191.81" y="57.31" class="st1" width="1.22" height="7.94"/>
	<path class="st1" d="M199.11,64.21l0.02,0.91c0,0-1.28,0.26-2.27,0.26c-1.68,0-2.33-0.9-2.33-2.87c0-2.05,0.88-2.98,2.43-2.98
		c1.57,0,2.36,0.82,2.36,2.57l-0.08,0.87h-3.48c0.01,0.9,0.35,1.34,1.28,1.34C197.93,64.31,199.11,64.21,199.11,64.21 M198.12,62.02
		c0-1.12-0.34-1.49-1.16-1.49c-0.83,0-1.2,0.41-1.21,1.49H198.12z"/>
	<path class="st1" d="M53.25,18.2c0,4.53-3.68,8.2-8.2,8.2c-4.53,0-8.2-3.67-8.2-8.2c0-4.53,3.68-8.2,8.2-8.2
		C49.57,10,53.25,13.67,53.25,18.2"/>
	<path class="st1" d="M39.09,61.49c0,4.11-4.6,6.53-6.79,7.01V70h25.8v-1.49c-2.63-0.62-6.47-3.51-6.47-7.01V27.8l-1.32-0.62
		l-18.05,14.7l0.25,0.28h3.38c2.46,0,3.21,0.12,3.21,2.83V61.49z"/>
</g>
</svg>
