<?xml version="1.0" encoding="utf-8"?>
<!-- Generator: Adobe Illustrator 25.0.1, SVG Export Plug-In . SVG Version: 6.00 Build 0)  -->
<svg version="1.1" id="Layer_1" xmlns="http://www.w3.org/2000/svg" xmlns:xlink="http://www.w3.org/1999/xlink" x="0px" y="0px"
	 viewBox="0 0 720 720" style="enable-background:new 0 0 720 720;" xml:space="preserve">
<style type="text/css">
	.st0{fill:#C5CFD3;}
	.st1{display:none;}
	.st2{display:inline;fill:#C6E7F3;}
	.st3{display:inline;fill:none;stroke:#C6E7F3;stroke-width:25.8948;stroke-miterlimit:10;}
	.st4{display:inline;}
	.st5{clip-path:url(#SVGID_2_);fill:#0080BE;}
	.st6{clip-path:url(#SVGID_4_);fill:#0081BF;}
	.st7{clip-path:url(#SVGID_6_);fill:#0080BE;}
	.st8{clip-path:url(#SVGID_8_);fill:#0080BE;}
	.st9{clip-path:url(#SVGID_10_);fill:#0080BE;}
	.st10{clip-path:url(#SVGID_12_);fill:#0080BE;}
	.st11{clip-path:url(#SVGID_14_);fill:#0080BE;}
	.st12{clip-path:url(#SVGID_16_);fill:#0080BE;}
	.st13{clip-path:url(#SVGID_18_);fill:#0080BE;}
	.st14{clip-path:url(#SVGID_20_);fill:#0080BE;}
	.st15{clip-path:url(#SVGID_22_);fill:#0081BF;}
	.st16{clip-path:url(#SVGID_24_);fill:none;stroke:#0081BF;stroke-width:51.7896;stroke-miterlimit:10;}
	.st17{clip-path:url(#SVGID_26_);fill:#0081BF;}
	.st18{clip-path:url(#SVGID_28_);fill:none;stroke:#C6E7F3;stroke-width:9.1623;stroke-miterlimit:10;}
	.st19{clip-path:url(#SVGID_30_);fill:#C5E6F3;}
	.st20{clip-path:url(#SVGID_32_);fill:#0080BE;}
	.st21{clip-path:url(#SVGID_34_);fill:#0080BE;}
	.st22{clip-path:url(#SVGID_36_);fill:#C5E6F3;}
	.st23{clip-path:url(#SVGID_38_);fill:#C5E6F3;}
	.st24{display:inline;fill:#C6E7F3;stroke:#C6E7F3;stroke-width:25.7942;stroke-miterlimit:10;}
	.st25{display:inline;fill:#0080BE;}
	.st26{display:inline;fill:#C6E7F3;stroke:#C6E7F3;stroke-width:25.7305;stroke-miterlimit:10;}
	.st27{clip-path:url(#SVGID_40_);fill:#C6E7F3;}
	.st28{clip-path:url(#SVGID_42_);fill:#0081BF;}
	.st29{fill:#C6E7F3;stroke:#C6E7F3;stroke-width:25.928;stroke-miterlimit:10;}
	.st30{fill:none;}
	.st31{fill:#0080BE;}
	.st32{fill:#0081BF;}
</style>
<ellipse class="st0" cx="361" cy="653.8" rx="319.3" ry="53.4"/>
<g class="st1">
	<ellipse class="st2" cx="360.4" cy="360.1" rx="339" ry="333.1"/>
	<ellipse class="st3" cx="360.4" cy="360.1" rx="339" ry="333.1"/>
	<g class="st4">
		<g>
			<defs>
				<ellipse id="SVGID_1_" cx="359.6" cy="370.7" rx="339" ry="333.1"/>
			</defs>
			<clipPath id="SVGID_2_">
				<use xlink:href="#SVGID_1_"  style="overflow:visible;"/>
			</clipPath>
			<path class="st5" d="M555.4,245.4H212.6c-4.7,0-8.9,4.1-8.9,8.7v190.5c0,4.6,4.2,8.7,8.9,8.7s8.9-4.1,8.9-8.7V262.9h325V461
				H312.9c-4.7,0-8.9,4.1-8.9,8.7s4.2,8.7,8.9,8.7h242.4c4.7,0,8.9-4.1,8.9-8.7V254.1C564.2,249.5,560.6,245.4,555.4,245.4z"/>
		</g>
		<g>
			<defs>
				<ellipse id="SVGID_3_" cx="359.6" cy="370.7" rx="339" ry="333.1"/>
			</defs>
			<clipPath id="SVGID_4_">
				<use xlink:href="#SVGID_3_"  style="overflow:visible;"/>
			</clipPath>
			<ellipse class="st6" cx="131.6" cy="394.8" rx="47.5" ry="46.7"/>
		</g>
		<g>
			<defs>
				<ellipse id="SVGID_5_" cx="359.6" cy="370.7" rx="339" ry="333.1"/>
			</defs>
			<clipPath id="SVGID_6_">
				<use xlink:href="#SVGID_5_"  style="overflow:visible;"/>
			</clipPath>
			<path class="st7" d="M485.9,495.9c23.4,0,42.3,18.6,42.3,41.6s-18.9,41.6-42.3,41.6s-42.3-18.6-42.3-41.6
				S462.5,495.9,485.9,495.9z"/>
		</g>
		<g>
			<defs>
				<ellipse id="SVGID_7_" cx="359.6" cy="370.7" rx="339" ry="333.1"/>
			</defs>
			<clipPath id="SVGID_8_">
				<use xlink:href="#SVGID_7_"  style="overflow:visible;"/>
			</clipPath>
			<ellipse class="st8" cx="328.1" cy="537.5" rx="42.3" ry="41.6"/>
		</g>
		<g>
			<defs>
				<ellipse id="SVGID_9_" cx="359.6" cy="370.7" rx="339" ry="333.1"/>
			</defs>
			<clipPath id="SVGID_10_">
				<use xlink:href="#SVGID_9_"  style="overflow:visible;"/>
			</clipPath>
			<path class="st9" d="M296.7,440l61.1-77.5c2.1-2.6,1.6-6.2-1-8.2c-2.6-2.1-6.3-1.5-8.4,1l-60.6,78c-5.7-2.1-12.5-1-17.2,3.1
				l-40.8,34.4l-83.1-16.4c-1,0-2.6-0.5-3.7-0.5c-3.7-0.5-7.3-1-11.5-1h-1c-27.2,0-49.6,18.5-49.6,41.6v131.9h99.8V496.9l49.6,9.8
				c1,0,2.1,0.5,3.7,0.5c4.2,0,8.4-1.5,11.5-4.1l47-40C300.4,456.9,302,447.1,296.7,440z"/>
		</g>
		<g>
			<defs>
				<ellipse id="SVGID_11_" cx="359.6" cy="370.7" rx="339" ry="333.1"/>
			</defs>
			<clipPath id="SVGID_12_">
				<use xlink:href="#SVGID_11_"  style="overflow:visible;"/>
			</clipPath>
			<path class="st10" d="M486.4,587.8h-1c-29.8,0-53.3,16.4-53.3,37v2.1h108.2v-2.1C540.2,604.2,516.2,587.8,486.4,587.8z"/>
		</g>
		<g>
			<defs>
				<ellipse id="SVGID_13_" cx="359.6" cy="370.7" rx="339" ry="333.1"/>
			</defs>
			<clipPath id="SVGID_14_">
				<use xlink:href="#SVGID_13_"  style="overflow:visible;"/>
			</clipPath>
			<path class="st11" d="M328.6,587.8h-1c-29.8,0-53.3,16.4-53.3,37v2.1h108.2v-2.1C381.9,604.2,357.9,587.8,328.6,587.8z"/>
		</g>
		<g>
			<defs>
				<ellipse id="SVGID_15_" cx="359.6" cy="370.7" rx="339" ry="333.1"/>
			</defs>
			<clipPath id="SVGID_16_">
				<use xlink:href="#SVGID_15_"  style="overflow:visible;"/>
			</clipPath>
			<path class="st12" d="M503.6,291.1H289.4c-4.7,0-8.9,4.1-8.9,8.7s4.2,8.7,8.9,8.7h214.2c4.7,0,8.9-4.1,8.9-8.7
				S508.9,291.1,503.6,291.1z"/>
		</g>
		<g>
			<defs>
				<ellipse id="SVGID_17_" cx="359.6" cy="370.7" rx="339" ry="333.1"/>
			</defs>
			<clipPath id="SVGID_18_">
				<use xlink:href="#SVGID_17_"  style="overflow:visible;"/>
			</clipPath>
			<path class="st13" d="M503.6,353.2H395c-4.7,0-8.9,4.1-8.9,8.7s4.2,8.7,8.9,8.7h109.2c4.7,0,8.9-4.1,8.9-8.7
				C512.5,356.8,508.9,353.2,503.6,353.2z"/>
		</g>
		<g>
			<defs>
				<ellipse id="SVGID_19_" cx="359.6" cy="370.7" rx="339" ry="333.1"/>
			</defs>
			<clipPath id="SVGID_20_">
				<use xlink:href="#SVGID_19_"  style="overflow:visible;"/>
			</clipPath>
			<path class="st14" d="M503.6,418.9H369.4c-4.7,0-8.9,4.1-8.9,8.7s4.2,8.7,8.9,8.7h134.8c4.7,0,8.9-4.1,8.9-8.7
				C512.5,422.5,508.9,418.9,503.6,418.9z"/>
		</g>
		<g>
			<defs>
				<ellipse id="SVGID_21_" cx="359.6" cy="370.7" rx="339" ry="333.1"/>
			</defs>
			<clipPath id="SVGID_22_">
				<use xlink:href="#SVGID_21_"  style="overflow:visible;"/>
			</clipPath>
			<path class="st15" d="M112.5,11.2v-77.5h866.9V624l-220.6-93.9l-66.7,24.4L654,489.8l-74.6-23.2l-41.3,23.2l-66.7-145.3
				l-15.9,18.3l-47.6-64.7l-41.3,6.1l-41.3-75.7c0,0-31.8,19.5-34.9,23.2S204.6,126,204.6,126s-88.9-65.6-90.5-62"/>
		</g>
		<g>
			<defs>
				<ellipse id="SVGID_23_" cx="359.6" cy="370.7" rx="339" ry="333.1"/>
			</defs>
			<clipPath id="SVGID_24_">
				<use xlink:href="#SVGID_23_"  style="overflow:visible;"/>
			</clipPath>
			<path class="st16" d="M112.5,11.2v-77.5h866.9V624l-220.6-93.9l-66.7,24.4L654,489.8l-74.6-23.2l-41.3,23.2l-66.7-145.3
				l-15.9,18.3l-47.6-64.7l-41.3,6.1l-41.3-75.7c0,0-31.8,19.5-34.9,23.2S204.6,126,204.6,126s-88.9-65.6-90.5-62"/>
		</g>
		<g>
			<defs>
				<ellipse id="SVGID_25_" cx="359.6" cy="370.7" rx="339" ry="333.1"/>
			</defs>
			<clipPath id="SVGID_26_">
				<use xlink:href="#SVGID_25_"  style="overflow:visible;"/>
			</clipPath>
			<path class="st17" d="M981.3,626.3l-220.6-93.9L694,556.8l-38.1-64.7l-74.6-23.2L540,492.1l-66.7-145.3l-15.9,18.3l-47.6-64.7
				l-41.3,6.1l-41.3-75.7L292.3,254l-85.7-125.7c0,0-88.9-75.9-90.5-72.2"/>
		</g>
		<g>
			<defs>
				<ellipse id="SVGID_27_" cx="359.6" cy="370.7" rx="339" ry="333.1"/>
			</defs>
			<clipPath id="SVGID_28_">
				<use xlink:href="#SVGID_27_"  style="overflow:visible;"/>
			</clipPath>
			<path class="st18" d="M981.3,626.3l-220.6-93.9L694,556.8l-38.1-64.7l-74.6-23.2L540,492.1l-66.7-145.3l-15.9,18.3l-47.6-64.7
				l-41.3,6.1l-41.3-75.7L292.3,254l-85.7-125.7c0,0-88.9-75.9-90.5-72.2"/>
		</g>
		<g>
			<defs>
				<ellipse id="SVGID_29_" cx="359.6" cy="370.7" rx="339" ry="333.1"/>
			</defs>
			<clipPath id="SVGID_30_">
				<use xlink:href="#SVGID_29_"  style="overflow:visible;"/>
			</clipPath>
			<path class="st19" d="M551,196.9c-17.3-1.8-29.9-2.8-37.8-2.8c-7.9,0-12.5,0.2-13.7,0.6c-1.3,0.4-1.9,1.3-1.9,2.6
				s0.7,2.3,2.3,3.1c1.5,0.7,5.7,1.8,12.5,3.3c6.8,1.5,12.4,2.9,16.8,4.2c4.4,1.3,8.6,2.9,12.6,4.9s7,4.3,8.8,7
				c3.8,5.5,5.6,13.6,5.6,24.2c0,14.4-3.7,24.8-11.2,31.2c-7.5,6.4-18.7,9.9-33.8,10.4v13.5h-11.7v-13.5
				c-14.5-0.7-27.3-2.5-38.4-5.2l-5.8-1.3l1.7-32c18.8,2.7,34.2,4.1,46.3,4.1c3.6,0,6.1-0.3,7.5-1s2.1-1.7,2.1-3.1
				c0-1.4-0.7-2.3-2.2-2.8c-1.4-0.5-5.4-1.2-11.9-2.2c-17.2-2.7-28.9-6.9-35.1-12.6c-6.2-5.7-9.3-14.8-9.3-27.5
				c0-15.6,3.7-26.5,11.1-32.7s18.7-9.4,34-9.6v-15.2h11.7v15.2c11.2,0.5,22.8,1.7,34.8,3.5l6,0.9L551,196.9z"/>
		</g>
		<g>
			<defs>
				<ellipse id="SVGID_31_" cx="359.6" cy="370.7" rx="339" ry="333.1"/>
			</defs>
			<clipPath id="SVGID_32_">
				<use xlink:href="#SVGID_31_"  style="overflow:visible;"/>
			</clipPath>
			<rect x="274.3" y="624.8" class="st20" width="108.2" height="94.5"/>
		</g>
		<g>
			<defs>
				<ellipse id="SVGID_33_" cx="359.6" cy="370.7" rx="339" ry="333.1"/>
			</defs>
			<clipPath id="SVGID_34_">
				<use xlink:href="#SVGID_33_"  style="overflow:visible;"/>
			</clipPath>
			<rect x="432.1" y="624.8" class="st21" width="108.2" height="94.5"/>
		</g>
		<g>
			<defs>
				<ellipse id="SVGID_35_" cx="359.6" cy="370.7" rx="339" ry="333.1"/>
			</defs>
			<clipPath id="SVGID_36_">
				<use xlink:href="#SVGID_35_"  style="overflow:visible;"/>
			</clipPath>
			<path class="st22" d="M412.3,128.5c-11.5-1.2-19.9-1.8-25.2-1.8c-5.3,0-8.3,0.1-9.2,0.4c-0.8,0.3-1.3,0.9-1.3,1.7
				c0,0.9,0.5,1.5,1.5,2s3.8,1.2,8.3,2.2c4.6,1,8.3,1.9,11.2,2.8c2.9,0.9,5.7,2,8.4,3.3c2.7,1.3,4.6,2.9,5.9,4.7
				c2.5,3.7,3.8,9.1,3.8,16.1c0,9.6-2.5,16.6-7.5,20.8c-5,4.3-12.5,6.6-22.5,6.9v9h-7.8v-9c-9.7-0.5-18.2-1.6-25.6-3.4l-3.9-0.9
				l1.1-21.3c12.5,1.8,22.8,2.7,30.8,2.7c2.4,0,4.1-0.2,5-0.7c0.9-0.4,1.4-1.1,1.4-2s-0.5-1.5-1.4-1.8c-1-0.3-3.6-0.8-8-1.5
				c-11.5-1.8-19.2-4.6-23.4-8.4c-4.1-3.8-6.2-9.9-6.2-18.4c0-10.4,2.5-17.7,7.4-21.8c4.9-4.1,12.5-6.2,22.7-6.4V93.6h7.8v10.1
				c7.4,0.3,15.2,1.1,23.2,2.3l4,0.6L412.3,128.5z"/>
		</g>
		<g>
			<defs>
				<ellipse id="SVGID_37_" cx="359.6" cy="370.7" rx="339" ry="333.1"/>
			</defs>
			<clipPath id="SVGID_38_">
				<use xlink:href="#SVGID_37_"  style="overflow:visible;"/>
			</clipPath>
			<path class="st23" d="M604.4,367.3c-7.3-0.8-12.6-1.2-16-1.2c-3.3,0-5.3,0.1-5.8,0.3c-0.5,0.2-0.8,0.5-0.8,1.1c0,0.5,0.3,1,1,1.3
				c0.6,0.3,2.4,0.8,5.3,1.4c2.9,0.6,5.3,1.2,7.1,1.8c1.8,0.5,3.6,1.2,5.3,2.1c1.7,0.8,2.9,1.8,3.7,3c1.6,2.3,2.4,5.7,2.4,10.2
				c0,6.1-1.6,10.5-4.7,13.2c-3.1,2.7-7.9,4.2-14.3,4.4v5.7h-4.9v-5.7c-6.1-0.3-11.5-1-16.2-2.2l-2.5-0.5l0.7-13.5
				c7.9,1.1,14.5,1.7,19.5,1.7c1.5,0,2.6-0.1,3.2-0.4s0.9-0.7,0.9-1.3c0-0.6-0.3-1-0.9-1.2c-0.6-0.2-2.3-0.5-5-0.9
				c-7.3-1.1-12.2-2.9-14.8-5.3s-3.9-6.3-3.9-11.6c0-6.6,1.6-11.2,4.7-13.8c3.1-2.6,7.9-4,14.4-4.1v-6.4h4.9v6.4
				c4.7,0.2,9.6,0.7,14.7,1.5l2.5,0.4L604.4,367.3z"/>
		</g>
	</g>
	<ellipse class="st3" cx="360.4" cy="358.1" rx="339" ry="333.1"/>
</g>
<g class="st1">
	<ellipse class="st24" cx="356.5" cy="360" rx="336.5" ry="333"/>
	<path class="st25" d="M556.1,463.6l39.1-38.7c4-4,4-10.4,0-14.4c-1.2-1.2-2.7-2.1-4.4-2.6l-32.4-9.4
		c35.3-122.2-36.1-249.6-159.6-284.6c-19.6-5.6-39.9-8.5-60.3-8.9c-1.2-0.1-2.4-0.1-3.6-0.1c-0.1,0-0.3,0-0.4,0
		c-1.2,0-2.4,0-3.1,0.1c-128.4,1.9-231,106.3-229.2,233.4c1.8,124.4,103.1,224.9,228.9,226.9c1.2,0.1,2.5,0.1,3.8,0.1s2.5,0,3.4-0.1
		c32.4-0.3,64.4-7.5,93.9-21l4.7,16c1.6,5.4,7.3,8.5,12.7,6.9c1.7-0.5,3.2-1.4,4.4-2.6l39.1-38.7l56.7,56c4.2,4,10.8,4,15,0
		l47.9-47.4c4-4.2,4-10.7,0-14.9L556.1,463.6z M468.3,372.4c0.8-8.8,1.4-17.9,1.6-27h76.7c-0.8,16.1-3.4,32-7.9,47.4L468.3,372.4z
		 M378.3,362.6l19.4,65.4c-17.1-1.2-34.7-1.9-52.6-2.1v-80.6h104.1c-0.2,7.2-0.6,14.2-1.2,21.2L391,350c-5.4-1.6-11.2,1.5-12.7,6.9
		C377.7,358.7,377.7,360.7,378.3,362.6L378.3,362.6z M345.1,244.5c30.5-0.3,61-2.2,91.3-5.9c7.9,28.2,12.2,57.2,12.9,86.4H345.1
		V244.5z M345.1,224.2v-98c34.1,5.8,65.6,40.2,84.9,92.8C401.8,222.2,373.5,223.9,345.1,224.2L345.1,224.2z M324.5,126.2v98
		c-28.4-0.3-56.7-2-84.9-5.2C259,166.5,290.5,132.1,324.5,126.2z M324.5,244.5V325H220.3c0.7-29.2,5-58.2,12.9-86.4
		C263.5,242.3,294,244.2,324.5,244.5z M324.5,345.4v80.5c-30.5,0.3-61,2.2-91.3,5.8c-7.9-28.1-12.3-57.2-13-86.4L324.5,345.4z
		 M324.5,446.2v97.9c-34-5.8-65.5-40.2-84.9-92.7C267.8,448.2,296.2,446.5,324.5,446.2z M345.1,544.1v-97.9
		c20,0.2,39.7,1.1,58.8,2.6l10.7,36.2C395.4,519.1,371.1,539.8,345.1,544.1z M546.5,325h-76.6c-0.7-30.2-5-60.1-12.9-89.3
		c19.3-2.8,38.3-7.1,57-12.7C533.5,253.7,544.8,288.8,546.5,325z M501.5,205.5c-16.7,4.6-33.6,8.2-50.7,10.7
		c-9.4-29.4-25.3-56.4-46.4-79.1C442.7,150.3,476.4,174,501.5,205.5z M265.2,137.1c-21.1,22.7-36.9,49.7-46.4,79.1
		c-17.1-2.5-34.1-6-50.8-10.7C193.2,174,226.9,150.3,265.2,137.1L265.2,137.1z M155.7,223.1c18.6,5.6,37.7,9.9,57,12.7
		c-7.9,29.1-12.3,59.1-12.9,89.3h-76.6C124.8,288.8,136,253.7,155.7,223.1z M123.1,345.4h76.6c0.7,30.2,5,60.1,12.9,89.2
		c-19.3,2.9-38.3,7.1-57,12.7C136,416.7,124.8,381.6,123.1,345.4z M168.1,464.9c16.7-4.6,33.6-8.2,50.8-10.6
		c9.4,29.4,25.3,56.4,46.4,79.1C226.9,520.1,193.2,496.4,168.1,464.9z M404,533.5c6.7-6.9,12.9-14.3,18.3-22.2l3.9,13.2
		C419,527.9,411.6,531,404,533.5z M557.2,560.6l-56.9-56.3c-4-4-10.5-4-14.5,0l-34.1,33.8l-48.4-163.4l165.2,47.9l-34.1,33.8
		c-4,4-4,10.4,0,14.4l56.9,56.3L557.2,560.6z"/>
</g>
<g class="st1">
	<polygon class="st25" points="458.3,506.2 418.8,545.8 368.5,374.1 540.1,424.4 500.6,464 554.6,518.1 512.4,560.2 	"/>
	<path class="st2" d="M382.7,388.3l139.2,40.8l-28.8,28.8c-3.4,3.4-3.4,8.9,0,12.2l47.9,48l-28.6,28.6l-48-47.9
		c-1.7-1.7-3.9-2.5-6.1-2.5s-4.4,0.8-6.1,2.5l-28.8,28.8L382.7,388.3 M354.3,360l9.9,33.8L405,532.9l9.1,31.1l22.9-22.9l21.3-21.3
		l40.5,40.4l13.6,13.6l13.6-13.6l28.6-28.6l13.6-13.6l-13.6-13.6L514.2,464l21.3-21.3l22.9-22.9l-31.1-9.1l-139.2-40.8L354.3,360
		L354.3,360z"/>
</g>
<g class="st1">
	<ellipse class="st26" cx="360" cy="354.9" rx="340" ry="327.9"/>
	<g class="st4">
		<g>
			<defs>
				<ellipse id="SVGID_39_" cx="360" cy="365.1" rx="340" ry="327.9"/>
			</defs>
			<clipPath id="SVGID_40_">
				<use xlink:href="#SVGID_39_"  style="overflow:visible;"/>
			</clipPath>
			<path class="st27" d="M490.5,712.3v-97.2l73.6-70.9V393.9l-31.5-30.4v-87c0-27.9-23.6-50.7-52.5-50.7c-17.2,0-32.4,8.2-42,20.6
				c-9.6-12.4-24.8-20.6-42-20.6s-32.4,8.2-42,20.6c-9.6-12.4-24.8-20.6-42-20.6s-32.4,8.2-42,20.6c-9.6-12.4-24.8-20.6-42-20.6
				c-29,0-52.5,22.7-52.5,50.7v91.2v30.4v176.5l42,40.5v97.2H490.5z"/>
		</g>
		<g>
			<defs>
				<ellipse id="SVGID_41_" cx="360" cy="365.1" rx="340" ry="327.9"/>
			</defs>
			<clipPath id="SVGID_42_">
				<use xlink:href="#SVGID_41_"  style="overflow:visible;"/>
			</clipPath>
			<path class="st28" d="M493.5,714.2V617l73.6-70.9V395.8l-31.5-30.4v-87c0-27.9-23.6-50.7-52.5-50.7c-17.2,0-32.4,8.2-42,20.6
				c-9.6-12.4-24.8-20.6-42-20.6s-32.4,8.2-42,20.6c-9.6-12.4-24.8-20.6-42-20.6s-32.4,8.2-42,20.6c-9.6-12.4-24.8-20.6-42-20.6
				c-29,0-52.5,22.7-52.5,50.7v91.2V400v176.5l42,40.5v97.2H493.5z M483,247.9c17.4,0,31.5,13.6,31.5,30.4v81.1h-63v-81.1
				C451.5,261.6,465.6,247.9,483,247.9z M398.9,247.9c17.4,0,31.5,13.6,31.5,30.4v81.1h-63v-81.1
				C367.4,261.6,381.5,247.9,398.9,247.9z M314.9,247.9c17.4,0,31.5,13.6,31.5,30.4v81.1h-21v10.1c0,17.4,5,34.1,14.6,48.7
				c-0.9,1.1-1.8,2.2-2.8,3.2c-6.1,5.8-14,8.9-22.4,8.9c-17.4,0-31.5-13.6-31.5-30.4V278.3C283.3,261.6,297.5,247.9,314.9,247.9z
				 M199.3,278.3c0-16.8,14.1-30.4,31.5-30.4s31.5,13.6,31.5,30.4V400c0,16.8-14.1,30.4-31.5,30.4s-31.5-13.6-31.5-30.4v-30.4
				L199.3,278.3L199.3,278.3z M199.3,568.1V440.2c8.8,6.4,19.6,10.4,31.5,10.4c17.2,0,32.4-8.2,42-20.6c9.6,12.4,24.8,20.6,42,20.6
				c13.9,0,27.1-5.3,37.3-14.9c0.5-0.5,0.8-1,1.3-1.5c15.5,14.8,35.9,24.1,57.7,26.1c-14,12.9-22.8,31.1-22.8,51.2h21
				c0-27.9,23.6-50.7,52.5-50.7h21v-20.3h-63c-23.2,0-45.3-10.7-59-28.7c-7.4-9.6-12.1-20.5-13.8-32.2h83.3h90.2l25.4,24.5v133.5
				l-73.6,70.9v85.3h-231v-85.3L199.3,568.1z"/>
		</g>
	</g>
</g>
<g>
	<g>
		<ellipse class="st29" cx="360" cy="360" rx="340" ry="333"/>
	</g>
	<g>
		<path class="st30" d="M411.7,372.8c1.9-2.3,2.8-5.3,2.6-8.2c-0.2,2.4-1,4.7-2.6,6.5c-15.4,18.1-30.5,32.9-39.4,44.3
			c-2.9,3.8-9.2,10.4-8.5,15.3c0.6-4.7,5.8-10.3,8.5-13.7C381.2,405.7,396.3,390.9,411.7,372.8z"/>
		<path class="st30" d="M410.6,436.8c-18,16.6-43.5,28.6-64.5,11.4c-9.8-14-4.4-33.1,7.1-47.1c8.7-11.1,20.9-23.7,32.8-37
			l-42.4-41.4c-48.7,60.3-97.7,119.9-146.8,180.2l106.5,95h25.5l141.3-157.6l-29.3-28.6C431.7,419.2,420.7,427.9,410.6,436.8z"/>
		<path class="st30" d="M320.9,255.6c-9.1,12-16.5,32.9-21.4,56.9c-2.2,10.7-3.3,21.5-4.9,32.6l0.3-0.3c1.5-10.4,2.6-20.5,4.6-30.6
			c4.9-24,12.3-44.9,21.4-56.9c87.6-38.8,152.7-82.4,243.7-79.8v-1.7C473.6,173.2,408.5,216.8,320.9,255.6z"/>
		<path class="st31" d="M577.5,152.4c-103-11.8-193,46.8-270.1,83.3c-1.7,0.8-3.2,1.9-4.3,3.3c-14.4,17.5-21.8,42.4-27.2,68.8
			c-5.1,25-8,51.1-10.9,73.6l-94,115.5c-3.7,4.6-3.1,12,1.3,15.9l95.3,84.9l-99.2-0.3v23.4l360.2,0.3v-23.4H360.7l134.9-150.5
			c3.9-4.4,3.7-11.8-0.6-15.9L458.8,396c6.5-5.7,12.6-11.4,18-17.4c15.7-17.5,25.6-38.7,27.2-66.5l78.2-37.1c3.9-2,6.4-6.2,6.4-10.4
			V163.9C588.5,158.1,583.4,152.8,577.5,152.4z M470.1,440.3L328.8,597.9h-25.5l-106.5-95c49.1-60.3,98.1-119.9,146.8-180.2
			l42.4,41.4c-11.9,13.3-24.1,25.9-32.8,37c-11.5,14-16.9,33.1-7.1,47.1c21,17.2,46.5,5.2,64.5-11.4c10.1-8.9,21.1-17.6,30.2-25.1
			L470.1,440.3z M564.6,177.5v80.3v1.7l-77.7,36.9c-3.8,2-6.3,6.1-6.4,10.3c0,26.9-7.3,42.1-21.8,58.2c-22.4,22.6-45.7,40-64.7,56.6
			c-8.9,8.2-22.7,19.3-29.6,12.6c-0.6-1-0.7-2.1-0.6-3.3c-0.7-4.9,5.5-11.6,8.5-15.3c8.9-11.4,24-26.2,39.4-44.3
			c1.6-1.8,2.4-4.2,2.6-6.5c-0.2-2.8-1.3-5.5-3.4-7.5l-60-58.6c-4.8-4.6-13.7-4-17.8,1.1l-38.5,47.2c0.1-0.7,0.2-1.3,0.3-2l-0.3,0.3
			c1.6-11.1,2.7-21.9,4.9-32.6c4.9-24,12.3-44.9,21.4-56.9c87.6-38.8,152.7-82.4,243.7-79.8V177.5z"/>
		<path class="st32" d="M320.9,257.3c-9.1,12-16.5,32.9-21.4,56.9c-2.1,10.1-3.2,20.2-4.6,30.6c-0.1,0.7-0.2,1.3-0.3,2l38.5-47.2
			c4.1-5.1,13-5.7,17.8-1.1l60,58.6c2,2,3.2,4.7,3.4,7.5c0.2,2.9-0.6,6-2.6,8.2c-15.4,18.1-30.5,32.9-39.4,44.3
			c-2.6,3.3-7.9,9-8.5,13.7c-0.2,1.2,0,2.3,0.6,3.3c6.9,6.7,20.7-4.4,29.6-12.6c19-16.6,42.3-34,64.7-56.6
			c14.5-16.1,21.8-31.3,21.8-58.2c0.1-4.2,2.6-8.3,6.4-10.3l77.7-36.9v-1.7v-80.3C473.6,174.9,408.5,218.5,320.9,257.3z"/>
	</g>
</g>
</svg>
