<?xml version="1.0" standalone="no"?>
<!DOCTYPE svg PUBLIC "-//W3C//DTD SVG 20010904//EN"
 "http://www.w3.org/TR/2001/REC-SVG-20010904/DTD/svg10.dtd">
<svg version="1.0" xmlns="http://www.w3.org/2000/svg"
 width="400.000000pt" height="400.000000pt" viewBox="0 0 400.000000 400.000000"
 preserveAspectRatio="xMidYMid meet">
<metadata>
Created by potrace 1.14, written by Peter Selinger 2001-2017
</metadata>
<g transform="translate(0.000000,400.000000) scale(0.100000,-0.100000)"
fill="#000000" stroke="none">
<path d="M2339 3516 c-3 -4 32 -45 78 -91 64 -65 91 -85 111 -85 45 0 144 -54
189 -102 87 -95 118 -202 110 -373 -12 -232 -100 -399 -271 -510 l-76 -49 0
-153 0 -153 24 0 c47 0 292 49 391 79 226 67 370 147 501 276 142 141 194 261
194 448 0 79 -5 113 -25 174 -87 257 -333 440 -695 515 -69 14 -153 21 -310
25 -118 3 -218 2 -221 -1z"/>
<path d="M1947 3459 c-104 -25 -213 -112 -260 -209 -99 -205 -14 -446 190
-543 63 -30 75 -32 173 -32 92 0 112 4 162 27 279 130 320 504 75 685 -97 71
-227 99 -340 72z"/>
<path d="M1462 3210 c-567 -324 -957 -806 -1047 -1295 -24 -127 -17 -368 14
-480 104 -374 422 -652 844 -739 84 -18 106 -14 197 35 62 33 143 112 153 148
4 16 -2 21 -27 27 -119 25 -212 91 -243 172 -34 88 -21 192 67 529 22 83 40
154 40 157 0 3 -20 6 -44 6 -39 0 -48 5 -95 55 -35 37 -51 62 -49 76 2 12 70
76 168 157 l165 137 28 75 c16 41 56 139 89 218 l61 143 -24 16 c-13 9 -50 42
-81 73 -96 97 -138 206 -138 355 0 52 6 113 15 140 8 27 13 50 12 51 -1 2 -48
-23 -105 -56z"/>
<path d="M1870 2260 c-239 -198 -436 -365 -438 -370 -2 -6 45 -10 123 -10 149
0 178 -10 195 -68 8 -25 10 -182 8 -492 l-3 -455 -27 -51 c-15 -28 -51 -73
-80 -99 -48 -43 -155 -104 -208 -118 -15 -4 -20 -13 -20 -41 l0 -36 635 0 635
0 -1 33 c0 30 -5 34 -78 69 -91 44 -168 115 -209 191 l-27 52 -3 862 -2 863
-30 15 c-16 8 -30 15 -32 15 -2 0 -199 -162 -438 -360z"/>
<path d="M3313 1515 c-200 -205 -439 -363 -723 -479 -96 -39 -105 -45 -108
-72 -5 -36 12 -91 37 -123 l18 -23 84 37 c174 79 380 206 544 338 83 67 315
299 334 335 10 18 5 24 -39 51 -28 17 -51 31 -53 31 -1 0 -44 -43 -94 -95z"/>
</g>
</svg>
