<?xml version="1.0" encoding="utf-8"?>
<!-- Generator: Adobe Illustrator 26.3.1, SVG Export Plug-In . SVG Version: 6.00 Build 0)  -->
<svg version="1.1" id="Layer_1" xmlns="http://www.w3.org/2000/svg" xmlns:xlink="http://www.w3.org/1999/xlink" x="0px" y="0px"
	 viewBox="0 0 1600 842" style="enable-background:new 0 0 1600 842;" xml:space="preserve">
<style type="text/css">
	.st0{fill:#F2F2F2;}
	.st1{opacity:0.2;}
	.st2{fill:#0081BE;}
	.st3{fill:#0081BE;stroke:#0081BE;stroke-width:20.8431;stroke-linecap:round;stroke-linejoin:round;stroke-miterlimit:56;}
	.st4{fill:#0081BE;stroke:#FFFFFF;stroke-width:9.3049;stroke-linecap:round;stroke-linejoin:round;stroke-miterlimit:56;}
</style>
<rect y="-9" class="st0" width="1618" height="868"/>
<g class="st1">
	<path class="st2" d="M382,804.7c4.7-2.9,6.8-8.2,5.6-13.2c-1.8-5.4-6.8-8.7-11.9-9.2l0,0l-10.2-0.4c-0.8-2.1-2.2-3.7-3-5.8l5.1-8.6
		c2.8-4.9,2-10.4-1.9-14.4s-9.7-5-14.4-2.1l-9,4.6c-1.9-1.4-3.7-2.3-5.5-3.2l-0.2-10.1c-0.2-5.6-3.6-10.3-8.9-11.8
		c-5.3-1.6-10.6,0.8-13.5,5.1l-5.7,8.6c-2.3-0.3-4.5,0-6.8-0.2l-5.1-8.9c-2.3-4.8-7.7-6.9-13.2-5.6c-5.5,1.3-8.9,5.7-9.3,11.4
		l-0.4,10.2c-2.1,0.8-3.7,2.2-5.8,3l-8.6-5.1c-4.9-2.8-10.4-2-14.4,1.9s-5,9.7-2.1,14.4l4.6,9c-1.4,1.9-2.3,3.7-3.2,5.5l-10.7,0.3
		c-5.6,0.2-10.3,3.6-11.8,8.9c-1.6,5.3,0.8,10.6,5.1,13.5l8.6,5.7c-0.3,2.3,0,4.5-0.2,6.8l-8.9,5.1c-4.2,2.2-6.4,7.6-5.1,13.1
		c1.3,5.5,5.7,8.9,11.4,9.3l10.2,0.4c0.8,2.1,2.2,3.7,3,5.8l-5.1,8.6c-2.8,4.9-2,10.4,1.9,14.4s9.7,5,14.4,2.1l9-4.6
		c1.9,1.4,3.7,2.3,5.5,3.2l0.2,10.1c0.2,5.6,3.6,10.3,8.9,11.8c5.3,1.6,10.6-0.8,13.5-5.1l5.7-8.6c2.3,0.3,4.5,0,6.8,0.2l5.1,8.9
		c2.2,4.2,7,6.4,12,5.8l1.7-0.2c5.5-1.3,8.9-5.7,9.3-11.4l0.4-10.2c2.1-0.8,3.7-2.2,5.8-3l8.6,5.1c4.9,2.8,10.4,2,14.4-1.9
		s5-9.7,2.1-14.4l-4.6-9c1.4-1.9,2.3-3.7,3.2-5.5l10.1-0.2c5.6-0.2,10.3-3.6,11.8-8.9c1.6-5.3-0.8-10.6-5.1-13.5l-8.6-5.7
		c0.3-2.3,0-4.5,0.2-6.8L382,804.7z M309,851.4c-21.7,2.8-41.7-12.7-44.5-34.3c-2.8-21.7,12.7-41.7,34.3-44.5
		c21.7-2.8,41.7,12.7,44.5,34.3C346.1,828.5,330.7,848.6,309,851.4z"/>
	<path class="st2" d="M664.9,548.9l9.8,2.4c0.5,2.3,1.3,4.2,2.1,6l-6.5,7.8c-3.5,4.4-4,10.1-1,14.8c3,4.6,8.6,6.3,13.6,4.9l9.9-2.9
		c1.6,1.7,3.4,2.9,5,4.6l-1.9,10.1c-1.3,5.1,1.3,10.2,6.3,12.8s10.4,1.5,14.4-2.6l6.9-7.5c2.2,0.8,4.2,0.7,6.4,1.5l3.2,9.4
		c1.9,5.3,6.6,8.3,12.2,8c5.6-0.4,10.1-4.1,11-9.6l2.4-9.8c2.3-0.5,4.2-1.3,6-2.1l8.3,6.8c4.4,3.5,10.1,4,14.8,1
		c4.6-3,6.3-8.6,4.9-13.6l-2.9-9.9c1.7-1.6,2.9-3.4,4.6-5l10.1,1.9c4.7,1.1,9.8-1.6,12.4-6.6c2.6-5,1.5-10.4-2.6-14.4l-7.5-6.9
		c0.8-2.2,0.7-4.2,1.5-6.4l9.4-3.2c5.3-1.9,8.3-6.6,8-12.2c-0.4-5.6-4.1-10.1-9.6-11l-9.8-2.4c-0.5-2.3-1.3-4.2-2.1-6l6.5-7.8
		c3.5-4.4,4-10.1,1-14.8c-3-4.6-8.6-6.3-13.6-4.9l-9.9,2.9c-1.6-1.7-3.4-2.9-5-4.6l1.9-10.1c1.1-4.7-1.2-9.5-5.4-12.2l-1.4-0.9
		c-5-2.6-10.4-1.5-14.4,2.6l-6.9,7.5c-2.2-0.8-4.2-0.7-6.4-1.5l-3.2-9.4c-1.9-5.3-6.6-8.3-12.2-8c-5.6,0.4-10.1,4.1-11,9.6l-2.4,9.8
		c-2.3,0.5-4.2,1.3-6,2.1l-7.8-6.5c-4.4-3.5-10.1-4-14.8-1c-4.6,3-6.3,8.6-4.9,13.6l2.9,9.9c-1.7,1.6-2.9,3.4-4.6,5l-10.1-1.9
		c-5.4-0.9-10.5,1.8-12.8,6.3c-2.1,5.3-0.5,11,3.1,14.7l0,0l7.5,6.9c-0.8,2.2-0.7,4.2-1.5,6.4l-9.4,3.2c-5.3,1.9-8.3,6.6-8,12.2
		C655.7,543.5,659.5,548,664.9,548.9z M707.4,511.7c12-18.3,36.8-23.4,55-11.5c18.3,12,23.4,36.8,11.5,55
		c-12,18.3-36.8,23.4-55,11.5C700.6,554.8,695.4,530,707.4,511.7z"/>
	<path class="st2" d="M626.8,730.5c1.2-3.9,2-8.1,2.4-11.8l11.5-5.2c4-2.1,7.3-6,7.1-10.8c0.3-4.5-2.2-8.8-6.3-10.8l-11.4-6.1
		c-0.5-4.3-0.8-7.9-1.6-11.8l9.1-8.8c3.4-3.1,4.4-7.8,3-12.8c-1.3-4.2-5.2-7.4-9.9-8.5l-12.1-1.9c-1.6-3.7-3.9-7.3-5.5-11l5.3-11.2
		c2-4.1,1.3-9.2-1.5-13c-2.8-3.9-7.2-5.4-11.8-4.4l-12.4,2.6c-3-2.6-5.6-5.7-9.4-8.2l1.5-12.4c0.3-4.5-1.5-9-5.2-11.5
		s-9-2.6-12.9,0.3l-10.4,6.6c-3.6-1.7-7.9-3.2-11.5-4.9l-3.4-12.2c-1-4.7-4.9-7.9-9.1-8.6c-4.7-1.1-9.2,0.7-12.1,4.1l-7.7,9.7
		c-4,0-8.2-0.7-12.3-0.7l-7.1-10.7c-2.8-3.9-6.9-5.8-12-5.2c-4.3,0.5-8.5,3.8-10,8.2l-3.9,12.1c-3.9,0.8-7.6,2.4-11.8,3.7l-10.5-7.5
		c-3.7-2.5-8.7-3-12.7-1c-4,2.1-6.3,6.6-6.6,11.1l0.6,12.4c-3.6,2.4-6.6,5-9.7,7.7l-12-3.2c-4.4-1.5-9.3-0.1-12.2,3.4
		c-3.2,3.9-4.3,8.6-2.5,13.1l0,0l4.4,11.6l-1.8,2.8c-1.5,2.3-3.4,5.2-4.4,7.8l-12.7,1c-4.8,0.2-8.7,3-10.2,7.4s-0.9,9.5,2.3,12.9
		l8.5,9.6c-1.2,3.9-2,8.1-2.4,11.8l-11.5,5.2c-4,2.1-7.3,6-7.1,10.8c0.2,4.8,2.2,8.8,6.3,10.8l11.4,6.1c0.5,4.3,0.8,7.9,1.6,11.8
		l-9.1,8.8c-3.4,3.1-4.4,7.8-3,12.8c1.3,4.2,5.2,7.4,9.9,8.5l12.4,1.5c1.6,3.7,3.9,7.3,5.5,11l-5.3,11.2c-2,4.1-1.8,8.9,1,12.7
		c2.8,3.9,7.2,5.4,11.8,4.4l12.4-2.6c3,2.6,5.6,5.7,9.4,8.2l-1.5,12.4c-0.3,4.5,1.9,9.3,5.7,11.8c3.7,2.5,9,2.6,12.6,0.2l10.4-6.6
		c3.6,1.7,7.9,3.2,11.5,4.9l3.7,11.8c1,4.7,4.9,7.9,9.1,8.6c4.7,1.1,9.2-0.7,12.1-4.1l7.7-9.7c4,0,8.2,0.7,12.3,0.7l7.1,10.7
		c2.8,3.9,6.9,5.8,12,5.2c4.3-0.5,8.5-3.8,10-8.2l3.9-12.1c3.9-0.8,7.6-2.4,11.8-3.7l10.5,7.5c3.7,2.5,8.7,3,12.7,1
		c4-2.1,6.8-6.3,6.6-11.1l-0.6-12.4c3.6-2.4,6.6-5,9.7-7.7l12,3.2c4.4,1.5,9.3,0.1,12.2-3.4s4-8.1,2.2-12.6l-4.4-11.6l1.8-2.8
		c1.5-2.3,3.4-5.2,4.4-7.8l12.7-1c4.8-0.2,8.7-3,10.2-7.4s0.9-9.5-2.3-12.9L626.8,730.5z M580.5,749c-8.7,13.3-20.2,23.7-33.2,31
		l-2.7-6.5l-11-3.4l-14.7,5.7L483,765.2c-4,3.2-9.7,13.1-11.8,19.8l2.7,3.1c-8.7-2.6-17.2-6.5-25.2-11.7
		c-44-28.8-56.3-87.8-27.5-131.8S509,588.3,553,617.1l0,0C597.1,646.1,609.4,705,580.5,749z"/>
	<path class="st2" d="M1234.4,623.1L1234.4,623.1l-14.7-8l-0.6-4.5c-0.5-3.7-1.1-8.2-2.3-11.8l12.1-12.2c4.7-4.4,6.2-10.7,3.9-16.5
		c-2.3-5.8-7.4-10.4-13.6-11.1l-17-2.3c-2.2-5-5.1-10-7.9-14.2l7.1-15.3c2.3-5.6,2.2-12.4-2.2-17.2c-4.4-4.7-10-7-15.9-5.5l-17,3.7
		c-4.3-4-7.8-7.3-12-10.6l1.6-16.9c0.7-6.2-2.3-11.8-8.1-15.6c-5-3.2-11.8-3-17.5,0l-14,9.4c-4.9-2.4-10.4-4-15.2-6.4l-4.4-16.1
		c-1.5-5.9-5.9-10.6-12.2-12.1c-6.3-1.5-12,0.8-15.9,5.9l-10.4,13.5c-5.3-0.1-10.7-0.9-16.7-0.1l-9.4-14c-3.7-4.8-10.1-7.8-16.1-7
		s-11.5,5.3-13,10.8l-4.8,15.8c-5.1,1.4-10.9,3.7-16,5.1l-14-8.8c-5.1-3.9-11.9-3.8-16.8-0.9c-5.7,3-8.7,8.7-8.7,14.8l0.6,16.6
		c-4.1,3.6-9,6.5-13.1,10.1l-16.5-4.7c-6.3-1.5-12.1,0.1-16.8,5.2c-4,4.3-5.4,11.3-3.1,17.1l6.6,15.8c-3.2,4.2-5.7,9.1-8.8,14
		l-17.3,1.5c-6,0.8-11.6,4.5-13.9,10.1s-1.4,12.3,3,17.1l11.4,12.2c-1.6,5.5-2.4,10.9-3.2,16.4l-15,7.3c-5.8,2.3-9.6,8.1-9.5,14.1
		c0,6.1,3,11.7,8.8,14.8l14.7,8l0.6,4.5c0.5,3.7,1.1,8.2,2.3,11.8l-12.1,12.2c-4.7,4.4-6.2,10.7-3.9,16.5c0.8,2.1,2,4.1,3.6,5.7
		l-10.2-3.2c-0.8-3.9-2.1-8.1-3.7-11.8l7.2-10c2.8-4.2,2.9-9.5,0.5-13c-2.5-4.3-7-6.6-12.2-6l-11.8,1.6c-2.7-3.1-5.3-6.2-8.8-9.1
		l1.9-12.1c1.1-4.7-1.2-9.5-5.4-12.2c-4.2-2.8-9-2.6-13.4,0l-10.4,6.6c-3.6-1.7-7.9-3.2-11.8-4.4l-3.2-11.5c-1.4-5-5.8-8.5-10.3-8.8
		l0,0c-5-0.6-9.8,1.6-11.8,5.7l-6.3,10.6c-4,0-8.4,0.5-12.3,1.3l-8-9.3c-3.1-3.4-8.3-4.7-12.5-3.5c-4.5,1.7-7.7,5.7-8.3,10.6
		l-1.1,12c-3.7,1.6-7.3,3.9-10.8,6.3l-11.1-4.6c-4.4-1.5-9.5-0.9-12.9,2.3c-3.4,3.1-4.7,8.3-3,12.8l4,11.3l-3.4,5.2l-3.4,5.2
		l-12,0.9c-4.8,0.2-9,3.5-10.5,7.9s-0.4,9.8,3.1,12.7l7.1,8.6c-0.7,4.2-1.5,8.4-1.5,12.4l-10.5,5.8c-4.3,2.5-6.6,7-6.4,11.9
		c0.2,4.8,3.5,9,8.2,10l11.8,4.4c1.3,4.2,2.1,8.1,3.7,11.8l-7.2,10c-2.8,4.2-2.9,9.5-0.5,13c2.4,3.6,7,6.6,12.2,6l11.8-1.6
		c2.7,3.1,5.3,6.2,8.8,9.1l-1.9,12.1c-1.1,4.7,1.2,9.5,5.4,12.2c4.2,2.8,9,2.6,13.4,0L714,814c3.6,1.7,7.9,3.2,11.8,4.4l3.2,11.5
		c1.4,5,5.3,8.2,10.3,8.8s9.8-1.6,11.8-5.7l6.3-10.6c4,0,8.4-0.5,12.3-1.3l8.3,8.8c3.1,3.4,8.3,4.7,12.9,3.8
		c4.5-1.7,7.7-5.7,8.3-10.6l1.1-12c3.7-1.6,7.3-3.9,10.8-6.3l11.1,4.6c4.4,1.5,9.5,0.9,12.9-2.3c3.4-3.1,4.7-8.3,3-12.8l-4-11.3
		l3.4-5.2l3.4-5.2l12-0.9c4.8-0.2,9-3.5,10.5-7.9c2.1-5.3,0.7-10.3-2.4-13.6l-8.6-8.3c0.7-4.2,1.5-8.4,1.5-12.4l10.5-5.8
		c4.3-2.5,6.6-7,6.4-11.9c-0.1-2-0.7-3.9-1.8-5.5c0.7,0.2,1.4,0.3,2.1,0.4l17,2.3c2.2,5,5.1,10,7.9,14.2l-7.1,15.3
		c-2.3,5.6-2.2,12.4,2.2,17.2c3.7,4.8,10,7,15.9,5.5l17-3.7c4.3,4,7.8,7.3,12,10.6l-1.6,16.9c-0.7,6.2,2.3,11.8,8.1,15.6
		c5,3.2,11.8,3,17.5,0l14.1-8.7c4.9,2.4,10.4,4,15.2,6.4l4.4,16.1c1.5,5.9,6.7,10.5,12.9,12c6.3,1.5,12-0.8,15.9-5.9l10.4-13.5
		c5.3,0.1,10.7,0.9,16.7,0.1l9.4,14c3.7,4.8,9.4,7.9,15.3,7.1c6-0.8,11.5-5.3,12.9-11.5l4.8-15.8c5.1-1.4,10.9-3.7,16-5.1l14.1,9.5
		c5.1,3.9,11.9,3.8,16.8,0.9c5.7-3,8.7-8.7,8.7-14.8l-0.6-16.6c4.1-3.6,9-6.5,13.1-10.1l16.5,4.7c6.3,1.5,12.1-0.1,16.8-5.2
		c4-4.3,5.4-11.3,3.1-17.1l-6.6-15.8c3.2-4.2,5.7-9.1,8.8-14l17.3-1.5c6-0.8,11.6-4.5,13.9-10.1s0.7-12.2-3-17.1l-11.4-12.2
		c1.6-5.5,2.4-10.9,3.2-16.4l15-7.3c5.8-2.3,9.6-8.1,9.5-14.1C1243.1,631.8,1240.1,626.1,1234.4,623.1z M808.9,759
		c-19.6,30-60.3,38.8-90.7,18.9c-30-19.6-38.8-60.3-18.9-90.7c19.9-30.4,60.7-38.5,90.7-18.9S828.9,728.6,808.9,759z M1062.4,760
		L1062.4,760c-55.3,7.2-106.9-22-130.7-69.1c1.6,0.4,3.2,0.7,4.7,0.8l15.1-6.1l3.6-11.8l-6.2-15.8l8.5-29.5
		c-3.5-4.3-14-10.5-21.3-12.7l-13.2,11.4l-4.7,13.5c-4-66.6,44.1-125.7,111.3-134.4c70.2-9.1,134.2,40.3,143.4,110.4
		c0.9,6.6,1.2,13.2,1,19.7l-4.7-12.4l-13.5-11c-7.4,2.6-17.2,8.9-20.9,13.3l9.2,29.3l-5.7,16l3.9,11.7l15.2,5.8
		c1.3-0.2,2.7-0.5,4.1-0.8C1143.5,725.9,1107.2,754.2,1062.4,760z"/>
	<polygon class="st2" points="302.9,788.3 317.5,813.6 302.9,838.9 316.2,838.9 330.8,813.6 316.2,788.3 	"/>
	<polygon class="st2" points="293.5,788.3 280.2,788.3 294.8,813.6 280.2,838.9 293.5,838.9 308.2,813.6 	"/>
	<polygon class="st2" points="752.8,681.5 776.8,723.1 752.8,764.7 774.6,764.7 798.7,723.1 774.6,681.5 	"/>
	<polygon class="st2" points="737.4,681.5 715.5,681.5 739.5,723.1 715.5,764.7 737.4,764.7 761.4,723.1 	"/>
	<path class="st2" d="M538.7,690.6l-7.8,24.3l-1.3,13.1l-2.9-15.4l10.2-30.4l-4-9.5l-6.6-3.8l-11,31.7l-1.2,11.6l-2.2-14.6
		l11.5-33.9l-4.3-8.3l-7.9-3.3L498,685.7l-1.2,12.6l-2.6-17.1l10.7-27.7l-6.5-7.8l-8.9-3.1c-6.1,6.3-12.2,18.6-16.4,27.9l-2.9,24.2
		l8.6,3.4c4.9,4.5,8.7,12.8,9,18.7l23.5,14.1L514,743l-3.1,3.6l-3.2-11.6L483,719.7c-0.3-6.5-2.5-12.1-6.8-16.9l-10.5-4.2l-13.9,3.4
		l6.8,18.9l-0.2,14.4c4.5,7.8,15.7,19.5,24.7,25.1l35.4,9.8l14.5-5.6c4.3-4.4,8.9-13,10.2-19.8l-2.4-4.2l0.7-11.4l7.1-23.3
		l-3.3-10.7L538.7,690.6z"/>
	<polygon class="st2" points="1029.2,686.9 1021.1,684.6 1015.2,686.9 1009,696.3 1017.7,700 1022.2,690.4 	"/>
	<polygon class="st2" points="1102.9,621.9 1089.1,613.6 1051.5,606.7 1050.9,620.6 1058.1,630 1074.3,637 1087.2,661.6 
		1075.1,674.9 1054.9,686.2 1034.5,688.1 1025.5,693.6 1021.2,704.7 1055.7,708.2 1091.1,696.4 1132.3,671.7 1137.3,655.5 
		1128.6,626.4 	"/>
	<polygon class="st2" points="1075.7,663.5 1083.2,659.1 1076.1,652.4 1068.7,651.4 1061.1,654.5 1071.8,657.1 	"/>
	<polygon class="st2" points="1074.5,670.6 1069.9,661.6 1057.7,656.9 1039,661.3 1016.6,654.7 1008,645.5 1017.4,636.1 1039,630.3 
		1046.6,620.6 1045.7,606.7 1002.5,612.5 983.1,623.2 962.5,628.7 955.1,657.5 960.3,672.8 987.1,680.2 1044.2,682.5 	"/>
	<path class="st2" d="M295.5,493.4l50,13.8l20.5-7.9c6.1-6.2,12.6-18.4,14.4-27.7l-5.1-9.4L360,456l-1-5.2l-17.6-5.7l-1.3-5.2
		l-16.7-6.2l-6.3,7.2l18.2,11.2l3.8,16.8l-4.4,5l-4.5-16.3l-28.5-18.1l9-2.5l8.4-9.4l2.4-14.7l-35.2-8.6l-23.8,32.8
		C266.1,456.5,279.2,479.4,295.5,493.4z"/>
	<polygon class="st2" points="326.7,427.5 340.1,432.3 344.5,427.7 346.8,439.1 358.3,442.8 363.2,437.7 365.7,449.8 376,453.9 
		384.6,443.1 386.7,416.8 369.7,408 368.2,401.3 350.8,394 348.8,387.3 332.3,380.2 330.8,373.8 310.5,366.2 298.4,380.6 
		293.6,397.8 329.8,406.3 	"/>
	<path class="st2" d="M240.3,557.9l-1.4,14.6c-0.6,5.3,2,10.2,7,13.5c4.3,2.7,10.2,2.6,15.1,0l12.1-7.5c4.2,2.1,9,3.4,13.2,5.5
		l3.8,13.9c1.3,5.1,5.8,9.1,11.2,10.3c5.4,1.3,10.4-0.7,13.8-5.1l9-11.6c4.6,0.1,9.3,0.8,14.4,0.1l8.1,12c3.2,4.2,8.1,6.8,13.2,6.1
		c5.2-0.7,9.9-4.6,11.2-10l4.1-13.6c4.4-1.2,9.4-3.2,13.8-4.4l12.2,8.2c4.4,3.4,10.2,3.3,14.5,0.7c4.9-2.6,7.5-7.5,7.5-12.8
		l-0.5-14.3c3.5-3.1,7.8-5.6,11.3-8.7l14.3,4c5.4,1.3,10.5,0,14.5-4.5c3.4-3.7,4.6-9.8,2.7-14.8l-5.7-13.7c2.8-3.6,4.9-7.8,7.6-12.1
		l14.9-1.3c5.2-0.7,10-3.9,12-8.8s0.6-10.6-2.6-14.7l-9.9-10.5c1.3-4.8,2.1-9.4,2.8-14.1l12.9-6.3c5-2,8.3-7,8.2-12.2
		c-0.1-5.9-2.7-10.8-7.6-13.4l0,0l-12.7-6.9l-0.5-3.9c-0.4-3.2-0.9-7.1-2-10.2l10.4-10.5c4.1-3.8,5.4-9.2,3.4-14.2s-6.4-9-11.7-9.6
		l-14.7-2c-1.9-4.3-4.4-8.6-6.8-12.2l6.1-13.2c2-4.8,1.9-10.7-1.9-14.8c-3.8-4.1-8.7-6.1-13.7-4.8l-14.7,3.2
		c-3.7-3.4-6.7-6.3-10.4-9.1l1.4-14.6c0.6-5.3-2-10.2-7-13.5c-4.3-2.7-10.2-2.6-15.1,0l-12,8.1c-4.2-2.1-9-3.4-13.2-5.5l-3.8-13.9
		c-1.3-5.1-5.1-9.2-10.5-10.4c-5.4-1.3-10.4,0.7-13.8,5.1l-9,11.6c-4.6-0.1-9.3-0.8-14.4-0.1l-8.1-12c-3.2-4.2-8.7-6.7-13.9-6.1
		s-9.9,4.6-11.2,9.3l-4.1,13.6c-4.4,1.2-9.4,3.2-13.8,4.4l-12.1-7.6c-4.4-3.4-10.2-3.3-14.5-0.7c-4.9,2.6-7.5,7.5-7.5,12.8l0.5,14.3
		c-3.5,3.1-7.8,5.6-11.3,8.7l-14.3-4c-5.4-1.3-10.5,0-14.5,4.5c-3.4,3.7-4.6,9.8-2.7,14.8l5.7,13.7c-2.8,3.6-4.9,7.8-7.6,12.1
		l-14.9,1.3c-5.2,0.7-10,3.9-12,8.8c-2,4.8-1.2,10.6,2.6,14.7l9.9,10.5c-1.3,4.8-2.1,9.4-2.8,14.1l-12.9,6.3c-5,2-8.3,7-8.2,12.2
		c0,5.2,2.6,10.1,7.6,12.8l12.7,6.9l0.5,3.9c0.4,3.2,0.9,7.1,2,10.2L176,481.1c-4.1,3.8-5.4,9.2-3.4,14.2s6.4,9,11.7,9.6l14.7,2
		c1.9,4.3,4.4,8.6,6.8,12.2l-6.1,13.2c-2,4.8-1.9,10.7,1.9,14.8c3.2,4.2,8.7,6.1,13.7,4.8l14.7-3.2
		C233.7,552.2,236.7,555.1,240.3,557.9z M321.1,331.9c60.6-7.9,115.9,34.8,123.7,95.3c6,46-17.2,89.1-55.3,110.5
		c0.5-2.1,0.8-4,1-5.9l-8.1-19.8l-15.5-4.8l-20.8,8.1l-50.7-15c-5.6,4.6-13.8,18.5-16.7,28l12.4,14.4c-34.3-15-60.1-47.1-65.3-87
		C217.9,395.1,260.5,339.7,321.1,331.9z"/>
</g>
<g class="st1">
	<g>
		<path class="st3" d="M47,760c3.3,0.2,6.1-2.3,6.3-5.6s-2.3-6.1-5.6-6.3l-37.3-2.2c-3.3-0.2-6.1,2.3-6.3,5.6
			c-0.2,3.3,2.3,6.1,5.6,6.3L47,760z"/>
		<path class="st3" d="M45.6,783.7c3.3,0.2,6.1-2.3,6.3-5.6s-2.3-6.1-5.6-6.3L9,769.6c-3.3-0.2-6.1,2.3-6.3,5.6
			c-0.2,3.3,2.3,6.1,5.6,6.3L45.6,783.7z"/>
		<path class="st3" d="M5.2,733.7l49.2,2.9c1.1-14.9,7.7-29.4,19.7-40C85.5,686.5,93,672,94,655.7c1.9-32.7-23-60.8-55.8-62.8l0,0
			c-32.7-1.9-60.8,23-62.8,55.8c-1,16.4,4.8,31.6,14.9,42.9C1,703.6,5.9,718.8,5.2,733.7L5.2,733.7z"/>
		<path class="st4" d="M13.3,662.8c-6.5-0.4-11.5-6-11.2-12.6c0.4-6.6,6-11.5,12.6-11.2c6.5,0.4,11.5,6,11.2,12.6l-4.9,83l17.8,1.1
			l4.9-83c0.4-6.6,6-11.5,12.6-11.2c6.5,0.4,11.5,6,11.2,12.6c-0.4,6.5-6,11.5-12.6,11.2L13.3,662.8z"/>
	</g>
	<path class="st2" d="M153.1,847.4c7.7-5.2,11.8-14.1,9.7-22.3l-4-22.6c5.7-4.9,11.2-10.9,15.7-16.7l22.5,3.4
		c8.5,1,17.4-3.3,21.8-10.2c4.2-7.9,4.1-17.3-1.2-25.1l-12.9-18.3c3.3-6.7,5.5-14.4,7.7-22l21.2-6.9c8-3.1,14.4-10.3,15.4-18.8
		s-3.3-17.4-11.2-21.7L218.6,655l-1.5-11.4l-1.5-11.4l15.8-15.7c6.6-6.1,8.5-15.8,5.3-23.8c-3.1-8-11.3-14.3-19.7-14.3l-20.4-3.6
		c-4-6.8-8.1-13.7-13-19.3l7.8-21c3.1-8.8,0.8-18-5.3-24.5c-6.1-6.6-15.8-8.5-23.7-4.3l-22.1,8.1c-6.9-4.4-12.7-8.9-19.4-12.2
		l-1.9-22.9c-1.2-9.3-7.4-16.9-15.1-19.1c-7.6-2.2-18-0.8-24.4,6.3l-14.7,16.6c-7.5-1.1-15-2.3-23.4-2.2l-12-19.5
		c-4.2-7.9-13.1-12-22.4-10.8s-15.9,7.3-18.9,16.1l-6.6,21.9c-7.1,2-15.1,5.1-22.1,8.1L-59,484c-8-5.3-17.5-5.1-25.2,0.1
		s-11.8,14.1-9.7,22.3l4,22.6c-5.7,4.9-11.2,10.9-15.7,16.7l-22.4-2.4c-8.5-1-17.4,3.3-22.8,10.3c-4.2,7.9-4.1,17.3,1.2,25.1
		l12.9,18.3c-3.3,6.7-5.5,14.4-7.7,22l-21.2,6.9c-8,3.1-14.4,10.3-15.4,18.8s3.3,17.4,11.2,21.7l19.3,11.2l1.5,11.4l1.5,11.4
		l-15.8,15.7c-6.6,6.1-8.5,15.8-5.3,23.8c3.4,10.1,11.5,15.3,20,16.3l22.2,1.3c4,6.8,8.1,13.7,13,19.3l-7.8,21
		c-3.1,8.8-0.8,18,5.3,24.5c6.1,6.6,15.8,8.5,23.7,4.3l20.9-9c5.8,4.5,12.7,8.9,19.4,12.2l1.9,22.9c1.2,9.3,7.4,16.9,15.1,19.1
		c8.8,3.1,18,0.8,24.4-6.3l14.7-16.6c7.5,1.1,15,2.3,23.4,2.2l12,19.5c4.2,7.9,13.1,12,22.4,10.8s15.9-7.3,18.9-16.1l6.6-21.9
		c7.1-2,15.1-5.1,22.1-8.1l18.4,12.3C136,852.8,146.4,852.5,153.1,847.4L153.1,847.4z M50.6,786.1C-15.5,794.7-77.3,748-86,680.9
		C-94.6,614.7-48,553,19.2,544.2c66.1-8.6,127.9,38,136.6,105.2C164.6,716.7,116.8,777.5,50.6,786.1L50.6,786.1z"/>
</g>
<g>
	<path class="st2" d="M57.1,116h25.3v4.1H61.8v14.3h17v4h-17v15h20.6v4.1H57.1V116z"/>
	<path class="st2" d="M112,157.5h-4.4v-2c0,0-4.6,2.6-9.1,2.6c-5.9,0-10.8-2.4-10.8-15.4c0-10.6,3.4-15.8,12.5-15.8
		c2.6,0,6.5,0.6,7.4,0.8v-13.3h4.4V157.5z M107.6,151.9v-20.3c-1-0.2-4.7-0.7-7.1-0.7c-6.3,0-8.2,4.1-8.2,11.9
		c0,9.7,3.2,11.3,6.7,11.3C103.3,154.1,107.6,151.9,107.6,151.9z"/>
	<path class="st2" d="M143.9,127.5v30h-4.5v-2.1c0,0-4.5,2.7-8.9,2.7c-8.4,0-10.1-3.9-10.1-14.9v-15.7h4.5v15.6c0,8.3,0.7,11,6.3,11
		c4.4,0,8.2-2.2,8.2-2.2v-24.4C139.4,127.5,143.9,127.5,143.9,127.5z"/>
	<path class="st2" d="M172,127.8l-0.2,3.7c0,0-4.8-0.5-7.1-0.5c-6.9,0-8.8,3-8.8,11c0,8.9,1.4,12.1,8.8,12.1c2.3,0,7.1-0.5,7.1-0.5
		l0.2,3.7c0,0-5.6,0.8-8.3,0.8c-9.5,0-12.4-4.4-12.4-16.1c0-10.9,3.5-15.1,12.5-15.1C166.6,126.9,172,127.8,172,127.8z"/>
	<path class="st2" d="M199.9,151.9c0.1,1.7,1.6,2.4,3.5,2.6l-0.2,3.5c-3.2,0-5.3-0.6-7.1-2.4c0,0-5.4,2.4-10.8,2.4
		c-5.5,0-8.5-3.1-8.5-9.2c0-5.8,3-8.3,9.2-8.9l9.4-0.9v-2.6c0-4.2-1.8-5.7-5.4-5.7c-4.2,0-11.3,0.8-11.3,0.8l-0.2-3.4
		c0,0,6.6-1.3,11.8-1.3c6.8,0,9.7,3.1,9.7,9.7L199.9,151.9L199.9,151.9z M186.5,143.4c-3.7,0.4-5.1,2.1-5.1,5.4
		c0,3.5,1.5,5.5,4.6,5.5c4.4,0,9.4-1.9,9.4-1.9v-9.9L186.5,143.4z"/>
	<path class="st2" d="M214.8,131.4v14.3c0,6.5,0.4,8.4,4.3,8.4c1.7,0,5.3-0.4,5.3-0.4l0.3,3.7c0,0-4,0.7-6.1,0.7
		c-6.2,0-8.3-2.3-8.3-11v-15.8H206v-3.9h4.3v-9.2h4.4v9.2h9.5v3.9h-9.4V131.4z"/>
	<path class="st2" d="M229.9,115.5h4.5v5.2h-4.5V115.5z M229.9,127.5h4.5v30h-4.5V127.5z"/>
	<path class="st2" d="M267.4,142.1c0,10.9-2.7,16-12.8,16c-10.1,0-12.8-5-12.8-16c0-10.3,3.4-15.2,12.8-15.2
		C264.1,126.9,267.4,131.8,267.4,142.1z M262.7,142.1c0-8.3-1.8-11.3-8.2-11.3c-6.4,0-8.2,3-8.2,11.3c0,8.5,1.1,12.1,8.2,12.1
		C261.7,154.2,262.7,150.7,262.7,142.1z"/>
	<path class="st2" d="M274.7,157.5v-30h4.4v2.1c0,0,4.9-2.7,9.3-2.7c8.3,0,10.1,4.1,10.1,14.8v15.8h-4.4v-15.7
		c0-7.9-0.9-10.9-6.5-10.9c-4.3,0-8.5,2.2-8.5,2.2v24.4L274.7,157.5L274.7,157.5z"/>
	<path class="st2" d="M320.9,116h4.6v41.5h-4.6V116z"/>
	<path class="st2" d="M334.9,157.5v-30h4.4v2.1c0,0,4.9-2.7,9.3-2.7c8.3,0,10.1,4.1,10.1,14.8v15.8h-4.4v-15.7
		c0-7.9-0.9-10.9-6.5-10.9c-4.3,0-8.5,2.2-8.5,2.2v24.4L334.9,157.5L334.9,157.5z"/>
	<path class="st2" d="M372.9,131.4v14.3c0,6.5,0.4,8.4,4.3,8.4c1.7,0,5.3-0.4,5.3-0.4l0.3,3.7c0,0-4,0.7-6.1,0.7
		c-6.2,0-8.3-2.3-8.3-11v-15.8h-4.3v-3.9h4.3v-9.2h4.4v9.2h9.5v3.9h-9.4V131.4z"/>
	<path class="st2" d="M410.1,153.6l0.1,3.5c0,0-6.8,1-11.7,1c-8.9,0-11.9-5.2-11.9-15.4c0-11.4,4.9-15.8,12.5-15.8
		c8,0,12.1,4.2,12.1,14l-0.2,3.4h-19.8c0,6.4,2,9.8,7.9,9.8C403.6,154.1,410.1,153.6,410.1,153.6z M406.7,140.8
		c0-7.4-2.3-10.1-7.6-10.1c-5.1,0-8,2.8-8,10.1H406.7z"/>
	<path class="st2" d="M418.3,127.5h4.4v4.1c0,0,5.2-3.6,11-4.7v4.6c-5.6,1.1-10.9,4.1-10.9,4.1v22h-4.5V127.5z"/>
	<path class="st2" d="M439,157.5v-30h4.4v2.1c0,0,4.9-2.7,9.3-2.7c8.3,0,10.1,4.1,10.1,14.8v15.8h-4.4v-15.7
		c0-7.9-0.9-10.9-6.5-10.9c-4.3,0-8.5,2.2-8.5,2.2v24.4L439,157.5L439,157.5z"/>
	<path class="st2" d="M492.4,151.9c0.1,1.7,1.6,2.4,3.5,2.6l-0.2,3.5c-3.2,0-5.3-0.6-7.1-2.4c0,0-5.4,2.4-10.8,2.4
		c-5.5,0-8.5-3.1-8.5-9.2c0-5.8,3-8.3,9.2-8.9l9.4-0.9v-2.6c0-4.2-1.8-5.7-5.4-5.7c-4.2,0-11.3,0.8-11.3,0.8l-0.2-3.4
		c0,0,6.6-1.3,11.8-1.3c6.8,0,9.7,3.1,9.7,9.7v15.4H492.4z M479,143.4c-3.7,0.4-5.1,2.1-5.1,5.4c0,3.5,1.5,5.5,4.6,5.5
		c4.4,0,9.4-1.9,9.4-1.9v-9.9L479,143.4z"/>
	<path class="st2" d="M507.3,131.4v14.3c0,6.5,0.4,8.4,4.3,8.4c1.7,0,5.3-0.4,5.3-0.4l0.3,3.7c0,0-4,0.7-6.1,0.7
		c-6.2,0-8.3-2.3-8.3-11v-15.8h-4.3v-3.9h4.3v-9.2h4.4v9.2h9.5v3.9h-9.4V131.4z"/>
	<path class="st2" d="M522.4,115.5h4.5v5.2h-4.5V115.5z M522.4,127.5h4.5v30h-4.5V127.5z"/>
	<path class="st2" d="M559.9,142.1c0,10.9-2.7,16-12.8,16s-12.8-5-12.8-16c0-10.3,3.4-15.2,12.8-15.2
		C556.6,126.9,559.9,131.8,559.9,142.1z M555.2,142.1c0-8.3-1.8-11.3-8.2-11.3s-8.2,3-8.2,11.3c0,8.5,1.1,12.1,8.2,12.1
		C554.2,154.2,555.2,150.7,555.2,142.1z"/>
	<path class="st2" d="M567.2,157.5v-30h4.4v2.1c0,0,4.9-2.7,9.3-2.7c8.3,0,10.1,4.1,10.1,14.8v15.8h-4.4v-15.7
		c0-7.9-0.9-10.9-6.5-10.9c-4.3,0-8.5,2.2-8.5,2.2v24.4L567.2,157.5L567.2,157.5z"/>
	<path class="st2" d="M620.6,151.9c0.1,1.7,1.6,2.4,3.5,2.6l-0.2,3.5c-3.2,0-5.3-0.6-7.1-2.4c0,0-5.4,2.4-10.8,2.4
		c-5.5,0-8.5-3.1-8.5-9.2c0-5.8,3-8.3,9.2-8.9l9.4-0.9v-2.6c0-4.2-1.8-5.7-5.4-5.7c-4.2,0-11.3,0.8-11.3,0.8l-0.2-3.4
		c0,0,6.6-1.3,11.8-1.3c6.8,0,9.7,3.1,9.7,9.7v15.4H620.6z M607.2,143.4c-3.7,0.4-5.1,2.1-5.1,5.4c0,3.5,1.5,5.5,4.6,5.5
		c4.4,0,9.4-1.9,9.4-1.9v-9.9L607.2,143.4z"/>
	<path class="st2" d="M629.8,114.4h4.5v43.1h-4.5V114.4z"/>
	<path class="st2" d="M83.3,228.8c-2.9,0.6-7.5,1.3-11.5,1.3c-12.4,0-15.2-7.6-15.2-21.2c0-14,2.7-21.5,15.2-21.5
		c4.3,0,8.8,0.8,11.5,1.3l-0.2,3.9c-2.7-0.5-7.6-1.1-10.8-1.1c-9.2,0-10.9,5.5-10.9,17.3c0,11.6,1.5,17.1,11,17.1
		c3.4,0,7.8-0.5,10.7-1.1L83.3,228.8z"/>
	<path class="st2" d="M113.8,214.1c0,10.9-2.7,16-12.8,16c-10.1,0-12.8-5-12.8-16c0-10.3,3.4-15.2,12.8-15.2
		C110.5,198.9,113.8,203.8,113.8,214.1z M109.2,214.1c0-8.3-1.8-11.3-8.2-11.3c-6.4,0-8.2,3-8.2,11.3c0,8.5,1.1,12.1,8.2,12.1
		C108.1,226.2,109.2,222.7,109.2,214.1z"/>
	<path class="st2" d="M145.5,214.1c0,10.9-2.7,16-12.8,16c-10.1,0-12.8-5-12.8-16c0-10.3,3.4-15.2,12.8-15.2
		C142.2,198.9,145.5,203.8,145.5,214.1z M140.9,214.1c0-8.3-1.8-11.3-8.2-11.3c-6.4,0-8.2,3-8.2,11.3c0,8.5,1.1,12.1,8.2,12.1
		C139.8,226.2,140.9,222.7,140.9,214.1z"/>
	<path class="st2" d="M152.8,199.5h4.4v2.2c0,0,4.6-2.8,9-2.8c7.6,0,10.9,4.6,10.9,15.2c0,11.8-3.8,16-13.1,16
		c-2.8,0-5.9-0.5-6.7-0.7v13.4h-4.5V199.5z M157.3,205.3v20.2c0.8,0.1,3.9,0.7,6.5,0.7c6.6,0,8.8-3.4,8.8-12.1
		c0-8.2-2.6-11.2-7-11.2C161.5,202.9,157.3,205.3,157.3,205.3z"/>
	<path class="st2" d="M206.6,225.6l0.1,3.5c0,0-6.8,1-11.7,1c-8.9,0-11.9-5.2-11.9-15.4c0-11.4,4.9-15.8,12.5-15.8
		c8,0,12.1,4.2,12.1,14l-0.2,3.4h-19.8c0,6.4,2,9.8,7.9,9.8C200,226.1,206.6,225.6,206.6,225.6z M203.2,212.8
		c0-7.4-2.3-10.1-7.6-10.1c-5.1,0-8,2.8-8,10.1H203.2z"/>
	<path class="st2" d="M214.7,199.5h4.4v4.1c0,0,5.2-3.6,11-4.7v4.6c-5.6,1.1-10.9,4.1-10.9,4.1v22h-4.5V199.5z"/>
	<path class="st2" d="M256.7,223.9c0.1,1.7,1.6,2.4,3.5,2.6L260,230c-3.2,0-5.3-0.6-7.1-2.4c0,0-5.4,2.4-10.8,2.4
		c-5.5,0-8.5-3.1-8.5-9.2c0-5.8,3-8.3,9.2-8.9l9.4-0.9v-2.6c0-4.2-1.8-5.7-5.4-5.7c-4.2,0-11.3,0.8-11.3,0.8l-0.2-3.4
		c0,0,6.6-1.3,11.8-1.3c6.8,0,9.7,3.1,9.7,9.7v15.4H256.7z M243.3,215.4c-3.7,0.4-5.1,2.1-5.1,5.4c0,3.5,1.5,5.5,4.6,5.5
		c4.4,0,9.4-1.9,9.4-1.9v-9.9L243.3,215.4z"/>
	<path class="st2" d="M271.5,203.4v14.3c0,6.5,0.4,8.4,4.3,8.4c1.7,0,5.3-0.4,5.3-0.4l0.3,3.7c0,0-4,0.7-6.1,0.7
		c-6.2,0-8.3-2.3-8.3-11v-15.8h-4.3v-3.9h4.3v-9.2h4.4v9.2h9.5v3.9h-9.4V203.4z"/>
	<path class="st2" d="M286.6,187.5h4.5v5.2h-4.5V187.5z M286.6,199.5h4.5v30h-4.5V199.5z"/>
	<path class="st2" d="M324.1,214.1c0,10.9-2.7,16-12.8,16s-12.8-5-12.8-16c0-10.3,3.4-15.2,12.8-15.2
		C320.8,198.9,324.1,203.8,324.1,214.1z M319.5,214.1c0-8.3-1.8-11.3-8.2-11.3s-8.2,3-8.2,11.3c0,8.5,1.1,12.1,8.2,12.1
		C318.4,226.2,319.5,222.7,319.5,214.1z"/>
	<path class="st2" d="M331.4,229.5v-30h4.4v2.1c0,0,4.9-2.7,9.3-2.7c8.3,0,10.1,4.1,10.1,14.8v15.8h-4.4v-15.7
		c0-7.9-0.9-10.9-6.5-10.9c-4.3,0-8.5,2.2-8.5,2.2v24.4L331.4,229.5L331.4,229.5z"/>
	<path class="st2" d="M382.2,215.5v14h-4.6V188h15.2c9.1,0,13.3,4.4,13.3,13.4c0,9.1-4.2,14.2-13.3,14.2L382.2,215.5L382.2,215.5z
		 M392.7,211.4c6.1,0,8.6-3.7,8.6-10.1c0-6.4-2.5-9.3-8.6-9.3h-10.5v19.4L392.7,211.4L392.7,211.4z"/>
	<path class="st2" d="M412.4,199.5h4.4v4.1c0,0,5.2-3.6,11-4.7v4.6c-5.6,1.1-10.9,4.1-10.9,4.1v22h-4.5V199.5z"/>
	<path class="st2" d="M456.9,214.1c0,10.9-2.7,16-12.8,16s-12.8-5-12.8-16c0-10.3,3.4-15.2,12.8-15.2
		C453.6,198.9,456.9,203.8,456.9,214.1z M452.3,214.1c0-8.3-1.8-11.3-8.2-11.3s-8.2,3-8.2,11.3c0,8.5,1.1,12.1,8.2,12.1
		C451.2,226.2,452.3,222.7,452.3,214.1z"/>
	<path class="st2" d="M464.3,199.5h4.4v29.3c0,7.4-2,10-10,14.1l-1.8-3.5c6.1-3.5,7.3-4.9,7.3-10.7L464.3,199.5L464.3,199.5z
		 M464.3,187.5h4.4v5.2h-4.4V187.5z"/>
	<path class="st2" d="M499.5,225.6l0.1,3.5c0,0-6.8,1-11.7,1c-8.9,0-11.9-5.2-11.9-15.4c0-11.4,4.9-15.8,12.5-15.8
		c8,0,12.1,4.2,12.1,14l-0.2,3.4h-19.8c0,6.4,2,9.8,7.9,9.8C493,226.1,499.5,225.6,499.5,225.6z M496.2,212.8
		c0-7.4-2.3-10.1-7.6-10.1c-5.1,0-8,2.8-8,10.1H496.2z"/>
	<path class="st2" d="M527.1,199.8l-0.2,3.7c0,0-4.8-0.5-7.1-0.5c-6.9,0-8.8,3-8.8,11c0,8.9,1.4,12.1,8.8,12.1
		c2.3,0,7.1-0.5,7.1-0.5l0.2,3.7c0,0-5.6,0.8-8.3,0.8c-9.5,0-12.4-4.4-12.4-16.1c0-10.9,3.5-15.1,12.5-15.1
		C521.7,198.9,527.1,199.8,527.1,199.8z"/>
	<path class="st2" d="M539.9,203.4v14.3c0,6.5,0.4,8.4,4.3,8.4c1.7,0,5.3-0.4,5.3-0.4l0.3,3.7c0,0-4,0.7-6.1,0.7
		c-6.2,0-8.3-2.3-8.3-11v-15.8h-4.3v-3.9h4.3v-9.2h4.4v9.2h9.5v3.9h-9.4V203.4z"/>
	<path class="st2" d="M574.8,203.9c0,0-6.7-1-10.5-1c-3.7,0-6.5,1-6.5,4.6c0,2.8,1.4,3.6,7.8,4.7c7.5,1.3,10.3,2.8,10.3,8.6
		c0,7-4.4,9.4-11.6,9.4c-3.8,0-10.6-1.1-10.6-1.1l0.2-3.9c0,0,6.8,1,9.9,1c4.9,0,7.6-1.1,7.6-5.2c0-3.1-1.6-3.9-8.1-4.9
		c-6.8-1.1-10-2.3-10-8.3c0-6.6,5.3-8.8,10.8-8.8c4.5,0,10.9,1.1,10.9,1.1L574.8,203.9z"/>
</g>
</svg>
