<?xml version="1.0" encoding="utf-8"?>
<!-- Generator: Adobe Illustrator 25.0.1, SVG Export Plug-In . SVG Version: 6.00 Build 0)  -->
<svg version="1.1" id="Layer_1" xmlns="http://www.w3.org/2000/svg" xmlns:xlink="http://www.w3.org/1999/xlink" x="0px" y="0px"
	 viewBox="0 0 720 720" style="enable-background:new 0 0 720 720;" xml:space="preserve">
<style type="text/css">
	.st0{fill:#C6E7F3;}
	.st1{fill:none;stroke:#C6E7F3;stroke-width:25.8948;stroke-miterlimit:10;}
	.st2{clip-path:url(#SVGID_2_);fill:#0080BE;}
	.st3{clip-path:url(#SVGID_2_);fill:#0081BF;}
	.st4{clip-path:url(#SVGID_2_);fill:none;stroke:#0081BF;stroke-width:51.7896;stroke-miterlimit:10;}
	.st5{clip-path:url(#SVGID_2_);fill:none;stroke:#C6E7F3;stroke-width:9.1623;stroke-miterlimit:10;}
	.st6{clip-path:url(#SVGID_2_);fill:#C5E6F3;}
</style>
<g>
	<ellipse class="st0" cx="360.4" cy="360.1" rx="339" ry="333.1"/>
	<ellipse class="st1" cx="360.4" cy="360.1" rx="339" ry="333.1"/>
	<g>
		<defs>
			<ellipse id="SVGID_1_" cx="359.6" cy="370.7" rx="339" ry="333.1"/>
		</defs>
		<clipPath id="SVGID_2_">
			<use xlink:href="#SVGID_1_"  style="overflow:visible;"/>
		</clipPath>
		<path class="st2" d="M555.4,245.4H212.6c-4.7,0-8.9,4.1-8.9,8.7v190.5c0,4.6,4.2,8.7,8.9,8.7s8.9-4.1,8.9-8.7V262.9h325V461H312.9
			c-4.7,0-8.9,4.1-8.9,8.7s4.2,8.7,8.9,8.7h242.4c4.7,0,8.9-4.1,8.9-8.7V254.1C564.2,249.5,560.6,245.4,555.4,245.4z"/>
		<ellipse class="st3" cx="131.6" cy="394.8" rx="47.5" ry="46.7"/>
		<path class="st2" d="M485.9,495.9c23.4,0,42.3,18.6,42.3,41.6s-18.9,41.6-42.3,41.6s-42.3-18.6-42.3-41.6S462.5,495.9,485.9,495.9
			z"/>
		<ellipse class="st2" cx="328.1" cy="537.5" rx="42.3" ry="41.6"/>
		<path class="st2" d="M296.7,440l61.1-77.5c2.1-2.6,1.6-6.2-1-8.2c-2.6-2.1-6.3-1.5-8.4,1l-60.6,78c-5.7-2.1-12.5-1-17.2,3.1
			l-40.8,34.4l-83.1-16.4c-1,0-2.6-0.5-3.7-0.5c-3.7-0.5-7.3-1-11.5-1h-1c-27.2,0-49.6,18.5-49.6,41.6v131.9h99.8V496.9l49.6,9.8
			c1,0,2.1,0.5,3.7,0.5c4.2,0,8.4-1.5,11.5-4.1l47-40C300.4,456.9,302,447.1,296.7,440z"/>
		<path class="st2" d="M486.4,587.8h-1c-29.8,0-53.3,16.4-53.3,37v2.1h108.2v-2.1C540.2,604.2,516.2,587.8,486.4,587.8z"/>
		<path class="st2" d="M328.6,587.8h-1c-29.8,0-53.3,16.4-53.3,37v2.1h108.2v-2.1C381.9,604.2,357.9,587.8,328.6,587.8z"/>
		<path class="st2" d="M503.6,291.1H289.4c-4.7,0-8.9,4.1-8.9,8.7s4.2,8.7,8.9,8.7h214.2c4.7,0,8.9-4.1,8.9-8.7
			S508.9,291.1,503.6,291.1z"/>
		<path class="st2" d="M503.6,353.2H395c-4.7,0-8.9,4.1-8.9,8.7c0,4.6,4.2,8.7,8.9,8.7h109.2c4.7,0,8.9-4.1,8.9-8.7
			C512.5,356.8,508.9,353.2,503.6,353.2z"/>
		<path class="st2" d="M503.6,418.9H369.4c-4.7,0-8.9,4.1-8.9,8.7s4.2,8.7,8.9,8.7h134.8c4.7,0,8.9-4.1,8.9-8.7
			C512.5,422.5,508.9,418.9,503.6,418.9z"/>
		<path class="st3" d="M112.5,11.2v-77.5h866.9V624l-220.6-93.9l-66.7,24.4L654,489.8l-74.6-23.2l-41.3,23.2l-66.7-145.3l-15.9,18.3
			l-47.6-64.7l-41.3,6.1l-41.3-75.7c0,0-31.8,19.5-34.9,23.2S204.6,126,204.6,126S115.7,60.4,114.1,64"/>
		<path class="st4" d="M112.5,11.2v-77.5h866.9V624l-220.6-93.9l-66.7,24.4L654,489.8l-74.6-23.2l-41.3,23.2l-66.7-145.3l-15.9,18.3
			l-47.6-64.7l-41.3,6.1l-41.3-75.7c0,0-31.8,19.5-34.9,23.2S204.6,126,204.6,126S115.7,60.4,114.1,64"/>
		<path class="st3" d="M981.3,626.3l-220.6-93.9L694,556.8l-38.1-64.7l-74.6-23.2L540,492.1l-66.7-145.3l-15.9,18.3l-47.6-64.7
			l-41.3,6.1l-41.3-75.7l-34.9,23.2l-85.7-125.7c0,0-88.9-75.9-90.5-72.2"/>
		<path class="st5" d="M981.3,626.3l-220.6-93.9L694,556.8l-38.1-64.7l-74.6-23.2L540,492.1l-66.7-145.3l-15.9,18.3l-47.6-64.7
			l-41.3,6.1l-41.3-75.7l-34.9,23.2l-85.7-125.7c0,0-88.9-75.9-90.5-72.2"/>
		<path class="st6" d="M551,196.9c-17.3-1.8-29.9-2.8-37.8-2.8c-7.9,0-12.5,0.2-13.7,0.6c-1.3,0.4-1.9,1.3-1.9,2.6
			c0,1.3,0.7,2.3,2.3,3.1c1.5,0.7,5.7,1.8,12.5,3.3c6.8,1.5,12.4,2.9,16.8,4.2c4.4,1.3,8.6,2.9,12.6,4.9s7,4.3,8.8,7
			c3.8,5.5,5.6,13.6,5.6,24.2c0,14.4-3.7,24.8-11.2,31.2c-7.5,6.4-18.7,9.9-33.8,10.4v13.5h-11.7v-13.5c-14.5-0.7-27.3-2.5-38.4-5.2
			l-5.8-1.3l1.7-32c18.8,2.7,34.2,4.1,46.3,4.1c3.6,0,6.1-0.3,7.5-1c1.4-0.7,2.1-1.7,2.1-3.1c0-1.4-0.7-2.3-2.2-2.8
			c-1.4-0.5-5.4-1.2-11.9-2.2c-17.2-2.7-28.9-6.9-35.1-12.6c-6.2-5.7-9.3-14.8-9.3-27.5c0-15.6,3.7-26.5,11.1-32.7
			c7.4-6.2,18.7-9.4,34-9.6v-15.2h11.7v15.2c11.2,0.5,22.8,1.7,34.8,3.5l6,0.9L551,196.9z"/>
		<rect x="274.3" y="624.8" class="st2" width="108.2" height="94.5"/>
		<rect x="432.1" y="624.8" class="st2" width="108.2" height="94.5"/>
		<path class="st6" d="M412.3,128.5c-11.5-1.2-19.9-1.8-25.2-1.8c-5.3,0-8.3,0.1-9.2,0.4c-0.8,0.3-1.3,0.9-1.3,1.7
			c0,0.9,0.5,1.5,1.5,2c1,0.5,3.8,1.2,8.3,2.2c4.6,1,8.3,1.9,11.2,2.8c2.9,0.9,5.7,2,8.4,3.3c2.7,1.3,4.6,2.9,5.9,4.7
			c2.5,3.7,3.8,9.1,3.8,16.1c0,9.6-2.5,16.6-7.5,20.8c-5,4.3-12.5,6.6-22.5,6.9v9h-7.8v-9c-9.7-0.5-18.2-1.6-25.6-3.4l-3.9-0.9
			l1.1-21.3c12.5,1.8,22.8,2.7,30.8,2.7c2.4,0,4.1-0.2,5-0.7c0.9-0.4,1.4-1.1,1.4-2c0-0.9-0.5-1.5-1.4-1.8c-1-0.3-3.6-0.8-8-1.5
			c-11.5-1.8-19.2-4.6-23.4-8.4c-4.1-3.8-6.2-9.9-6.2-18.4c0-10.4,2.5-17.7,7.4-21.8c4.9-4.1,12.5-6.2,22.7-6.4V93.6h7.8v10.1
			c7.4,0.3,15.2,1.1,23.2,2.3l4,0.6L412.3,128.5z"/>
		<path class="st6" d="M604.4,367.3c-7.3-0.8-12.6-1.2-16-1.2c-3.3,0-5.3,0.1-5.8,0.3c-0.5,0.2-0.8,0.5-0.8,1.1c0,0.5,0.3,1,1,1.3
			c0.6,0.3,2.4,0.8,5.3,1.4c2.9,0.6,5.3,1.2,7.1,1.8c1.8,0.5,3.6,1.2,5.3,2.1c1.7,0.8,2.9,1.8,3.7,3c1.6,2.3,2.4,5.7,2.4,10.2
			c0,6.1-1.6,10.5-4.7,13.2c-3.1,2.7-7.9,4.2-14.3,4.4v5.7h-4.9v-5.7c-6.1-0.3-11.5-1-16.2-2.2l-2.5-0.5l0.7-13.5
			c7.9,1.1,14.5,1.7,19.5,1.7c1.5,0,2.6-0.1,3.2-0.4s0.9-0.7,0.9-1.3c0-0.6-0.3-1-0.9-1.2c-0.6-0.2-2.3-0.5-5-0.9
			c-7.3-1.1-12.2-2.9-14.8-5.3c-2.6-2.4-3.9-6.3-3.9-11.6c0-6.6,1.6-11.2,4.7-13.8c3.1-2.6,7.9-4,14.4-4.1v-6.4h4.9v6.4
			c4.7,0.2,9.6,0.7,14.7,1.5l2.5,0.4L604.4,367.3z"/>
	</g>
	<ellipse class="st1" cx="360.4" cy="358.1" rx="339" ry="333.1"/>
</g>
</svg>
