<?xml version="1.0" encoding="utf-8"?>
<!-- Generator: Adobe Illustrator 25.4.1, SVG Export Plug-In . SVG Version: 6.00 Build 0)  -->
<svg version="1.1" id="Layer_1" xmlns="http://www.w3.org/2000/svg" xmlns:xlink="http://www.w3.org/1999/xlink" x="0px" y="0px"
	 viewBox="0 0 42.7 450.2" style="enable-background:new 0 0 42.7 450.2;" xml:space="preserve">
<style type="text/css">
	.st0{opacity:0.15;}
	.st1{fill:#426E90;}
</style>
<g class="st0">
	<path class="st1" d="M1.1,21.9V2.5h34.5v5.6H6.1v13.8H1.1z"/>
	<path class="st1" d="M1.1,26.1h34.5v21.8h-4.9V31.7h-9.8v13.2h-4.8V31.7H6v16.2H1.1C1.1,47.9,1.1,26.1,1.1,26.1z"/>
	<path class="st1" d="M31.3,63.7c0-4.3-1.5-6.4-4.5-6.4c-1.5,0-2.6,0.5-3.3,1.5c-0.7,1-1.5,3.2-2.4,6.7c-1,3.4-2.1,5.9-3.4,7.3
		s-3.4,2.1-6.3,2.1c-3.6,0-6.3-1-8.1-3.1s-2.7-4.9-2.7-8.4c0-2.9,0.3-6,1-9.5L2,52.1l4.5,0.6c-0.6,4.5-0.9,8-0.9,10.4
		c0,4.2,1.8,6.2,5.5,6.2c1.4,0,2.5-0.5,3.2-1.4s1.4-3.1,2.3-6.4c0.8-3.3,2-5.7,3.4-7.4c1.4-1.6,3.7-2.4,6.9-2.4s5.5,1,7.1,3
		c1.6,2,2.4,4.8,2.4,8.4c0,2.6-0.3,5.6-0.9,9.2l-0.3,1.8l-4.5-0.5C31,69,31.3,65.6,31.3,63.7z"/>
	<path class="st1" d="M1.1,93.8l34.5,8.5v11.1L1.1,122v-5.6l7.4-1.9v-13.3l-7.4-1.9V93.8z M30.9,106.6l-17.5-4.3v11l17.5-4.1V106.6z
		"/>
	<path class="st1" d="M12.1,130.8c-4.5,0-6.7,2.4-6.7,7.1s2.2,7.1,6.7,7.1h23.5v5.6H12.2c-4.1,0-7-1.1-8.9-3.2
		c-1.9-2.1-2.8-5.3-2.8-9.5s0.9-7.4,2.8-9.5c1.9-2.1,4.8-3.2,8.9-3.2h23.4v5.6H12.1z"/>
	<path class="st1" d="M30.6,154.6h5v25.2h-5v-9.7H1.1v-5.6h29.5V154.6z"/>
	<path class="st1" d="M1.1,184h34.5v21.8h-4.9v-16.2h-9.8v13.2h-4.8v-13.2H6v16.2H1.1C1.1,205.8,1.1,184,1.1,184z"/>
	<path class="st1" d="M12.1,216.2c-4.5,0-6.7,2.4-6.7,7.1s2.2,7.1,6.7,7.1h23.5v5.6H12.2c-4.1,0-7-1.1-8.9-3.2
		c-1.9-2.1-2.8-5.3-2.8-9.5s0.9-7.4,2.8-9.5c1.9-2.1,4.8-3.2,8.9-3.2h23.4v5.6L12.1,216.2L12.1,216.2z"/>
	<path class="st1" d="M13.4,248.1H1.1v-5.6h34.5v13.1c0,7.8-3.7,11.7-11,11.7c-4.9,0-8.2-1.9-10-5.6L1,267.4v-6.1l12.3-5v-8.2H13.4z
		 M24.6,261.6c4.1,0,6.2-2,6.2-5.9v-7.5H18.3v7.5c0,2,0.6,3.5,1.7,4.4C21.1,261.1,22.7,261.6,24.6,261.6z"/>
	<path class="st1" d="M15.1,273.1h10.3v8.4H15v-8.4H15.1z"/>
	<path class="st1" d="M30.6,282.5h5v25.2h-5V298H1.1v-5.6h29.5V282.5z"/>
	<path class="st1" d="M13.4,317.5H1.1v-5.6h34.5V325c0,7.8-3.7,11.7-11,11.7c-4.9,0-8.2-1.9-10-5.6L1,336.8v-6.1l12.3-5v-8.2H13.4z
		 M24.6,330.9c4.1,0,6.2-2,6.2-5.9v-7.5H18.3v7.6c0,2,0.6,3.5,1.7,4.4C21.1,330.4,22.7,330.9,24.6,330.9z"/>
	<path class="st1" d="M1.1,342h34.5v5.6H1.1V342z"/>
	<path class="st1" d="M0.5,366.4c0-5,1.4-8.5,4.2-10.3c2.8-1.8,7.4-2.7,13.8-2.7s10.9,0.9,13.6,2.7c2.7,1.8,4.1,5.2,4.1,10.2
		c0,3-0.4,6.3-1.3,9.9l-4.5-0.2c0.5-3,0.8-6,0.8-9.1c0-3-0.9-5.1-2.7-6.1c-1.8-1.1-5.2-1.6-10.1-1.6s-8.3,0.5-10.1,1.6
		c-1.8,1-2.7,3.1-2.7,6.1s0.3,6.1,0.8,9.2l-4.6,0.2C0.9,372.7,0.5,369.4,0.5,366.4z"/>
	<path class="st1" d="M1.1,381h34.5v21.8h-4.9v-16.2h-9.8v13.2h-4.8v-13.2H6v16.2H1.1C1.1,402.8,1.1,381,1.1,381z"/>
	<path class="st1" d="M15.1,406.7h10.3v8.4H15v-8.4H15.1z"/>
	<path class="st1" d="M31.3,433c0-4.3-1.5-6.4-4.5-6.4c-1.5,0-2.6,0.5-3.3,1.5c-0.7,1-1.5,3.2-2.4,6.7c-1,3.4-2.1,5.9-3.4,7.3
		s-3.4,2.1-6.3,2.1c-3.6,0-6.3-1-8.1-3.1s-2.7-4.9-2.7-8.4c0-2.9,0.3-6,1-9.5l0.3-1.8l4.5,0.6c-0.6,4.5-0.9,8-0.9,10.4
		c0,4.2,1.8,6.2,5.5,6.2c1.4,0,2.5-0.5,3.2-1.4s1.4-3.1,2.3-6.4c0.8-3.3,2-5.7,3.4-7.4c1.4-1.6,3.7-2.4,6.9-2.4s5.5,1,7.1,3
		c1.6,2,2.4,4.8,2.4,8.4c0,2.6-0.3,5.6-0.9,9.2l-0.3,1.8l-4.5-0.5C31,438.3,31.3,435,31.3,433z"/>
</g>
</svg>
