<?xml version="1.0" encoding="utf-8"?>
<!-- Generator: Adobe Illustrator 25.0.1, SVG Export Plug-In . SVG Version: 6.00 Build 0)  -->
<svg version="1.1" id="Layer_1" xmlns="http://www.w3.org/2000/svg" xmlns:xlink="http://www.w3.org/1999/xlink" x="0px" y="0px"
	 viewBox="0 0 79.3 80" style="enable-background:new 0 0 79.3 80;" xml:space="preserve">
<style type="text/css">
	.st0{fill:#3FBFE9;}
	.st1{fill:#FFFFFF;}
</style>
<g>
	<rect class="st0" width="79.3" height="79.3"/>
	<g>
		<path class="st1" d="M35,56.7v0.6c0,1.2-0.5,2.2-1.2,3.1l0,0c-13.2-0.3-19.5-8.5-18.9-17.3c0.6-9.2,8.7-18.5,18.9-23.1
			c-0.3,0.8-0.5,1.6-0.5,2.5c0,2.6,1.5,4.8,3.6,5.9c-1.5,2.8-3,6.4-4.5,10.9l-2.8,2.3l0.2,0.2h1.8c-0.7,2.4-1.5,5.4-2.1,8
			c-0.1,0.6-0.3,1.4-0.3,2C28.9,55.1,31.2,56.4,35,56.7"/>
	</g>
	<g>
		<path class="st1" d="M62,46.7c-4,5.2-10,9.5-16.7,11.8c-0.1-0.4-0.2-0.8-0.2-1.2v-1.9c5.2-1.5,10.8-4.6,15.2-9.8L62,46.7z"/>
	</g>
	<g>
		<path class="st1" d="M63.2,28.4c-0.4,6.1-6.5,10.7-18,11.7v-4.4c4.1-1.6,6.1-4.6,6.4-8.7c0.3-4.1-1.6-7.4-5.4-7.4
			c-0.1,0-0.2,0-0.4,0l0,0c-0.5-1-1.2-1.9-2.2-2.6c1.2-0.2,2.4-0.2,3.7-0.2C56.8,16.8,63.6,21.7,63.2,28.4"/>
	</g>
	<g>
		<circle class="st1" cx="39.9" cy="22.5" r="7.4"/>
		<path class="st0" d="M39.9,15.9c3.6,0,6.6,3,6.6,6.6c0,3.6-3,6.6-6.6,6.6c-3.6,0-6.6-3-6.6-6.6C33.3,18.8,36.2,15.9,39.9,15.9
			 M39.9,14.3c-4.5,0-8.2,3.7-8.2,8.2c0,4.5,3.7,8.2,8.2,8.2s8.2-3.7,8.2-8.2C48.1,17.9,44.4,14.3,39.9,14.3L39.9,14.3z"/>
	</g>
	<g>
		<g>
			<path class="st1" d="M28.8,64.9v-2.7l0.6-0.1c1.7-0.4,4.8-2.2,4.8-4.9v-0.8h0V44c0-1.5,0-1.5-1.8-1.5h-3.1l-1-1.1L44,28.7l2,0.9
				v27.6c0,2.3,2.7,4.4,4.6,4.9l0.6,0.1v2.6H28.8z"/>
			<path class="st0" d="M44.1,29.7l1.1,0.5v27.1c0,2.8,3.1,5.1,5.2,5.6v1.2H29.6v-1.2c1.8-0.4,5.5-2.3,5.5-5.6h0V44
				c0-2.2-0.6-2.3-2.6-2.3h-2.7l-0.2-0.2L44.1,29.7 M43.9,27.8l-0.8,0.6L28.5,40.3l-1.3,1.1l1.1,1.3l0.2,0.2l0.5,0.5h0.7h2.7
				c0.2,0,0.7,0,0.9,0c0,0.1,0,0.3,0,0.6v11.7l0,1.6c0,2.4-3.1,3.8-4.2,4.1L28,61.6v1.3v1.2v1.6h1.6h20.8H52v-1.6v-1.2v-1.3
				l-1.2-0.3c-1.6-0.4-4-2.2-4-4.1V30.2v-1l-0.9-0.4l-1.1-0.5L43.9,27.8L43.9,27.8z"/>
		</g>
	</g>
</g>
</svg>
