<?xml version="1.0" encoding="utf-8"?>
<!-- Generator: Adobe Illustrator 25.0.1, SVG Export Plug-In . SVG Version: 6.00 Build 0)  -->
<svg version="1.1" id="Layer_1" xmlns="http://www.w3.org/2000/svg" xmlns:xlink="http://www.w3.org/1999/xlink" x="0px" y="0px"
	 viewBox="0 0 720 720" style="enable-background:new 0 0 720 720;" xml:space="preserve">
<style type="text/css">
	.st0{fill:#C5CFD3;}
	.st1{fill:#C6E7F3;stroke:#C6E7F3;stroke-width:25.8948;stroke-miterlimit:10;}
	.st2{fill:#C6E7F3;}
	.st3{fill:#0081BF;}
	.st4{clip-path:url(#SVGID_3_);}
	.st5{clip-path:url(#SVGID_4_);}
</style>
<ellipse class="st0" cx="361" cy="653.8" rx="319.3" ry="53.4"/>
<g>
	<ellipse class="st1" cx="360.4" cy="359.1" rx="339" ry="333.1"/>
	<ellipse class="st1" cx="360.4" cy="357.1" rx="339" ry="333.1"/>
</g>
<g>
	<g>
		<g>
			<path class="st2" d="M349.6,516.9c-0.2,0-5.9-0.2-11.7-0.6c-3.6-0.2-6.4-0.5-8.6-0.8c-1.7-0.2-3-0.4-4.1-0.7
				c-8.7-2-12.5-9-12.5-15V499l2.6-21.8c-16.8-2.6-30.3-5.8-31-6l-13-3.1l7.5-60.1l15,2.1c0.2,0,14.2,2,29.7,3.4l3.4-27
				c-30.6-10.9-56.5-28.5-56.5-70.1c0-31,13.4-48.3,24.6-57.4c12.6-10.2,29.5-16,50.1-17.3l5.6-42.6h52.6l-5.8,46.1
				c14.7,2.1,25.9,4.4,26.5,4.5l13.2,2.7l-6.3,60.8l-14.9-1.6c-0.2,0-12.7-1.4-26.7-2.6l-2.9,23.2c18.2,6.7,29.5,13.3,37.7,22
				c10.9,11.5,15.8,26,15.8,47.1c0,25.3-8.7,46.1-25.2,60.2c-12.1,10.3-28.1,16.7-46.6,18.7l-4.8,37.4L349.6,516.9z"/>
			<path class="st3" d="M386.4,214l-5.5,44.1c20.8,2.1,40.1,6.1,40.1,6.1l-3.4,32.5c0,0-22.4-2.5-41.4-3.7l-6.1,49.3
				c42,13.5,54.9,25.7,54.9,58.8c0,44.1-30,64.7-69.9,64.7h-0.3l-4.6,36.2c0,0-22.7-0.9-22.7-2.1l4.3-35.6
				c-22.4-2.5-44.1-7.7-44.1-7.7l4-31.9c0,0,24.2,3.4,44.7,4.6l6.7-53.3c-42-12.6-57.9-28.5-57.9-59.8c0-42,27.9-60.1,69-60.1h4
				l5.5-42.3H386.4 M353.6,292.4c-18.7,0.9-27.6,8.9-27.6,21.1c0,9.8,4.6,14.7,22.4,21.5L353.6,292.4 M359.4,429.7
				c17.2-1.8,24.8-11.6,24.8-25.7c0-9.5-4.3-15.3-19-21.1L359.4,429.7 M420.2,184.2h-33.8h-22.7h-26.2l-3.4,26l-2.3,18
				c-18.3,2.8-33.8,9.3-46.2,19.3c-13.8,11.1-30.2,32.1-30.2,69c0,23.9,7.1,42.7,21.7,57.7c8.5,8.7,19.3,15.8,33.5,22l-0.1,1.1
				c-8.5-1-14.6-1.8-14.7-1.8l-29.9-4.2l-3.7,30l-4,31.9l-3.3,26.5l25.9,6.2c0.5,0.1,7.7,1.8,18,3.8l-0.8,6.9l-0.2,1.8v1.8
				c0,11.8,7,22.6,17.9,27.4c1.9,0.9,4,1.5,6.2,2c1.6,0.4,3.4,0.7,5.6,0.9c2.4,0.3,5.5,0.6,9.4,0.8c6,0.4,11.9,0.6,12.1,0.7
				l27.3,1.1l3.4-27.1l1.6-12.7c16.6-3.5,31.2-10.3,42.9-20.3c13.9-11.9,30.5-33.9,30.5-71.6c0-15.6-2.1-38.6-19.9-57.3
				c-7.2-7.5-15.9-13.3-25.3-18c3,0.3,4.8,0.5,4.8,0.5l29.8,3.3l3.1-29.8l3.4-32.5l2.8-26.8L427,235c-0.4-0.1-5.4-1.1-12.9-2.4
				l1.9-15L420.2,184.2L420.2,184.2z"/>
		</g>
	</g>
</g>
<g>
	<defs>
		<ellipse id="SVGID_1_" cx="361.4" cy="358.1" rx="333.1" ry="339"/>
	</defs>
	<defs>
		<ellipse id="SVGID_2_" cx="359.4" cy="358.1" rx="333.1" ry="339"/>
	</defs>
	<clipPath id="SVGID_3_">
		<use xlink:href="#SVGID_1_"  style="overflow:visible;"/>
	</clipPath>
	<clipPath id="SVGID_4_" class="st4">
		<use xlink:href="#SVGID_2_"  style="overflow:visible;"/>
	</clipPath>
	<g class="st5">
		<path class="st3" d="M338.5,357L15.1,151.6v-42.7l350.2,221.2l344.3-221.2v42.7L390.1,356l319.5,207.3V606L365.3,381.8L15.1,606
			v-42.7L338.5,357z"/>
	</g>
</g>
<g>
	<g>
		<g>
			<path class="st2" d="M350,506.8c-0.1,0-5.8-0.2-11.5-0.6c-10.5-0.7-15.8-1.1-15.8-6.3v-0.3l3.8-31.1c-20.6-2.6-39.1-7-39.9-7.2
				l-4.2-1l5.1-40.9l4.8,0.7c0.2,0,20.9,2.9,39.9,4.3l5.7-44.9c-41.3-13.1-57.5-31-57.5-63.1c0-21.7,7-38.3,20.9-49.5
				c12.6-10.2,30.3-15.3,52.7-15.3l5.5-42.3h32.3l-5.6,44.7c18.9,2.2,35.6,5.6,35.8,5.7l4.2,0.9l-4.3,41.6l-4.8-0.5
				c-0.2,0-19.1-2.1-36.7-3.4l-5.1,40.9c37.6,12.5,54.4,25.1,54.4,62.2c0,22.3-7.5,40.4-21.7,52.5c-12.2,10.4-29.1,16.2-49.1,16.9
				l-4.6,36.4L350,506.8z M365,423.8c9.7-2.7,14.5-9.2,14.5-19.9c0-5-0.9-9.4-10.3-14.2L365,423.8z M348.1,297.7
				c-11.5,1.7-17.3,7.1-17.3,15.8c0,5.3,0.7,9.1,13.6,14.7L348.1,297.7z"/>
			<path class="st2" d="M386.4,214l-5.5,44.1c20.8,2.1,40.1,6.1,40.1,6.1l-3.4,32.5c0,0-22.4-2.5-41.4-3.7l-6.1,49.3
				c42,13.5,54.9,25.7,54.9,58.8c0,44.1-30,64.7-69.9,64.7h-0.3l-4.6,36.2c0,0-22.7-0.9-22.7-2.1l4.3-35.6
				c-22.4-2.5-44.1-7.7-44.1-7.7l4-31.9c0,0,24.2,3.4,44.7,4.6l6.7-53.3c-42-12.6-57.9-28.5-57.9-59.8c0-42,27.9-60.1,69-60.1h4
				l5.5-42.3H386.4 M353.6,292.4c-18.7,0.9-27.6,8.9-27.6,21.1c0,9.8,4.6,14.7,22.4,21.5L353.6,292.4 M359.4,429.7
				c17.2-1.8,24.8-11.6,24.8-25.7c0-9.5-4.3-15.3-19-21.1L359.4,429.7 M397.2,204.4h-10.8h-22.7h-8.4l-1.1,8.3l-4.4,34
				c-47.2,1.5-74.1,26.6-74.1,69.6c0,18.6,5.1,32.4,15.9,43.6c8.9,9.2,22.1,16.5,41.1,22.9l-4.6,36.4c-17.5-1.4-34.9-3.9-35.1-3.9
				l-9.6-1.3l-1.2,9.6l-4,31.9l-1.1,8.5l8.3,2c0.8,0.2,16.8,4,35.7,6.7l-3.2,26.1l-0.1,0.6v0.6c0,3.6,2.2,8.3,8.4,9.8
				c0.9,0.2,2.1,0.4,3.6,0.6c2,0.2,4.8,0.5,8.3,0.7c5.7,0.4,11.4,0.6,11.6,0.6l8.8,0.4l1.1-8.7l3.6-28.1
				c19.3-1.3,35.7-7.4,47.9-17.8c15.3-13,23.4-32.4,23.4-56.2c0-19.6-4.4-33-14.3-43.4c-8.2-8.6-19.9-15.2-39.6-22.1l4-32.6
				c16,1.3,31.8,3,32,3l9.6,1l1-9.6l3.4-32.5l0.9-8.6l-8.5-1.7c-0.7-0.1-14.5-3-31.4-5.1l4.3-34.6L397.2,204.4L397.2,204.4z
				 M340.5,321c-4.9-2.9-4.9-4.9-4.9-7.4c0-2.1,0-6.7,7-9.5L340.5,321L340.5,321z M370.8,415.4l2.1-17.2c1.7,2,1.7,3.8,1.7,5.7
				C374.7,409,373.5,412.8,370.8,415.4L370.8,415.4z"/>
		</g>
	</g>
</g>
<g>
	<g>
		<g>
			<path class="st3" d="M417.6,296.7c0,0-22.4-2.5-41.4-3.7l-6.1,49.3c42,13.5,54.9,25.7,54.9,58.8c0,44.1-30,64.7-69.9,64.7h-0.3
				l-4.6,36.2c0,0-22.7-0.9-22.7-2.1l4.3-35.6c-22.4-2.5-44.1-7.7-44.1-7.7l4-31.9c0,0,24.2,3.4,44.7,4.6l6.7-53.3
				c-42-12.6-57.9-28.5-57.9-59.8c0-42,27.9-60.1,69-60.1h4l5.5-42.3h22.7l-5.5,44.1c20.8,2.1,40.1,6.1,40.1,6.1L417.6,296.7z
				 M348.4,335l5.2-42.6c-18.7,0.9-27.6,8.9-27.6,21.1C326,323.4,330.6,328.3,348.4,335z M365.2,382.8l-5.8,46.9
				c17.2-1.8,24.8-11.6,24.8-25.7C384.2,394.5,379.9,388.6,365.2,382.8z"/>
		</g>
	</g>
</g>
</svg>
