<?xml version="1.0" encoding="utf-8"?>
<!-- Generator: Adobe Illustrator 25.2.2, SVG Export Plug-In . SVG Version: 6.00 Build 0)  -->
<svg version="1.1" id="Layer_1" xmlns="http://www.w3.org/2000/svg" xmlns:xlink="http://www.w3.org/1999/xlink" x="0px" y="0px"
	 viewBox="0 0 350 350" style="enable-background:new 0 0 350 350;" xml:space="preserve">
<style type="text/css">
	.st0{fill:#0081BE;}
</style>
<desc>Created with Fabric.js 1.7.22</desc>
<path class="st0" d="M6,187.5c-0.7,0-1.3,0.6-1.4,1.3L2.1,208l2.5,18.8c0.1,0.8,0.7,1.3,1.4,1.3c0.7,0,1.3-0.5,1.4-1.3v0v0l3-18.8
	l-3-19.1C7.2,188.1,6.7,187.5,6,187.5L6,187.5z"/>
<path class="st0" d="M20.1,177.1c-0.1-0.8-0.7-1.4-1.4-1.4c-0.7,0-1.3,0.6-1.4,1.4c0,0-3.4,30.9-3.4,30.9l3.4,30.2
	c0.1,0.8,0.7,1.4,1.4,1.4c0.7,0,1.3-0.6,1.4-1.4l3.8-30.2L20.1,177.1L20.1,177.1z"/>
<path class="st0" d="M73.4,148.6c-1.4,0-2.5,1.1-2.6,2.6L68.1,208l2.7,36.7c0.1,1.4,1.2,2.6,2.6,2.6c1.4,0,2.5-1.1,2.6-2.6v0l3-36.7
	l-3-56.8C75.9,149.7,74.7,148.6,73.4,148.6z"/>
<path class="st0" d="M45.8,168.4c-1.1,0-1.9,0.9-2,2l-3,37.6l3,36.4c0.1,1.1,1,2,2,2c1.1,0,1.9-0.9,2-2l3.4-36.4l-3.4-37.7
	C47.7,169.2,46.9,168.4,45.8,168.4z"/>
<path class="st0" d="M101.4,247.3c1.7,0,3.1-1.4,3.2-3.2l2.6-36.1l-2.6-75.6c-0.1-1.8-1.5-3.2-3.2-3.2c-1.7,0-3.1,1.4-3.2,3.2
	L95.9,208l2.3,36.1C98.3,245.9,99.7,247.3,101.4,247.3z"/>
<path class="st0" d="M158.7,247.5c2.4,0,4.3-1.9,4.4-4.3v0v0l1.8-35.1l-1.8-87.4c0-2.4-2-4.3-4.4-4.3c-2.4,0-4.3,1.9-4.4,4.3
	l-1.6,87.3c0,0.1,1.6,35.1,1.6,35.1C154.4,245.5,156.4,247.5,158.7,247.5z"/>
<path class="st0" d="M129.8,247.3c2.1,0,3.7-1.7,3.8-3.8v0l2.2-35.6l-2.2-76.2c-0.1-2.1-1.7-3.8-3.8-3.8c-2.1,0-3.7,1.6-3.8,3.8
	l-2,76.2l2,35.5C126.1,245.7,127.8,247.3,129.8,247.3L129.8,247.3z"/>
<path class="st0" d="M59.5,247c1.2,0,2.2-1,2.3-2.3l3.2-36.7l-3.2-34.9c-0.1-1.3-1.1-2.3-2.3-2.3c-1.2,0-2.2,1-2.3,2.3L54.4,208
	l2.9,36.7C57.3,246,58.3,247,59.5,247z"/>
<path class="st0" d="M32.2,245c0.9,0,1.6-0.7,1.7-1.7l3.6-35.3l-3.6-36.6c-0.1-1-0.8-1.7-1.7-1.7c-0.9,0-1.6,0.7-1.7,1.7L27.2,208
	l3.2,35.3C30.5,244.3,31.3,245,32.2,245L32.2,245z"/>
<path class="st0" d="M144.2,130.6c-2.2,0-4,1.8-4.1,4.1l-1.8,73.4l1.8,35.3c0,2.2,1.8,4,4.1,4c2.2,0,4-1.8,4.1-4.1v0l2-35.3l-2-73.4
	C148.3,132.4,146.5,130.6,144.2,130.6L144.2,130.6z"/>
<path class="st0" d="M87.3,247.4c1.5,0,2.8-1.3,2.9-2.9l2.8-36.5l-2.8-69.8c-0.1-1.6-1.3-2.9-2.9-2.9c-1.6,0-2.8,1.3-2.9,2.9
	L81.9,208l2.5,36.5C84.5,246.1,85.8,247.4,87.3,247.4z"/>
<path class="st0" d="M119,243.9L119,243.9l2.4-35.9l-2.4-78.2c-0.1-1.9-1.6-3.5-3.5-3.5c-1.9,0-3.4,1.5-3.5,3.5l-2.2,78.2l2.2,35.9
	c0.1,1.9,1.6,3.4,3.5,3.4C117.5,247.4,119,245.8,119,243.9L119,243.9L119,243.9z"/>
<path class="st0" d="M303.6,163c-5.8,0-11.3,1.2-16.4,3.3c-3.4-38.1-35.3-68-74.3-68c-9.5,0-18.8,1.9-27.1,5.1c-3.2,1.2-4,2.5-4.1,5
	v134.2c0,2.6,2,4.7,4.6,5c0.1,0,116.5,0.1,117.2,0.1c23.4,0,42.3-18.9,42.3-42.3C345.9,181.9,327,163,303.6,163L303.6,163z"/>
<path class="st0" d="M173.2,108.1c-2.5,0-4.6,2.1-4.7,4.6l-1.9,95.3l1.9,34.6c0,2.5,2.1,4.6,4.7,4.6c2.5,0,4.6-2.1,4.7-4.6v0
	l2.1-34.6l-2.1-95.3C177.8,110.2,175.7,108.1,173.2,108.1L173.2,108.1z"/>
</svg>
