<?xml version="1.0" encoding="utf-8"?>
<!-- Generator: Adobe Illustrator 25.2.2, SVG Export Plug-In . SVG Version: 6.00 Build 0)  -->
<svg version="1.1" id="Layer_1" xmlns="http://www.w3.org/2000/svg" xmlns:xlink="http://www.w3.org/1999/xlink" x="0px" y="0px"
	 viewBox="0 0 595.3 490" style="enable-background:new 0 0 595.3 490;" xml:space="preserve">
<style type="text/css">
	.st0{fill:#0081BE;}
</style>
<path class="st0" d="M64.3,488l34.2-124.8c-21.1-36.5-32.2-77.9-32.1-120.4C66.4,110,174.4,2,307.1,2C371.5,2,432,27.1,477.5,72.6
	S548,178.6,548,243c-0.1,132.8-108.1,240.8-240.8,240.8c-40.3,0-80-10.1-115.2-29.3C191.9,454.5,64.3,488,64.3,488z M440.2,309.1
	c-1.5-2.5-5.5-4-11.5-7s-35.6-17.6-41.1-19.6s-9.5-3-13.5,3s-15.6,19.6-19.1,23.6s-7,4.5-13,1.5s-25.4-9.4-48.4-29.9
	c-17.9-16-30-35.7-33.5-41.7s-0.4-9.3,2.6-12.3c2.7-2.7,6-7,9-10.6c3.1-3.5,4-6,6.1-10c2-4,1-7.5-0.5-10.6
	c-1.5-3-13.5-32.6-18.5-44.7c-4.9-11.7-9.9-10.1-13.5-10.3l-11.5-0.2c-4,0-10.5,1.5-16,7.5s-21.1,20.6-21.1,50.2
	s21.6,58.2,24.6,62.2s42.4,64.8,102.8,90.9c14.4,6.2,25.6,9.9,34.3,12.7c14.4,4.6,27.5,3.9,37.9,2.4c11.6-1.7,35.6-14.6,40.6-28.6
	C441.7,323.7,441.7,311.6,440.2,309.1z"/>
</svg>
