<?xml version="1.0" encoding="utf-8"?>
<!-- Generator: Adobe Illustrator 25.0.1, SVG Export Plug-In . SVG Version: 6.00 Build 0)  -->
<svg version="1.1" id="Layer_1" xmlns="http://www.w3.org/2000/svg" xmlns:xlink="http://www.w3.org/1999/xlink" x="0px" y="0px"
	 viewBox="0 0 720 720" style="enable-background:new 0 0 720 720;" xml:space="preserve">
<style type="text/css">
	.st0{fill:#C5CFD3;}
	.st1{display:none;}
	.st2{display:inline;fill:#C6E7F3;}
	.st3{display:inline;fill:none;stroke:#C6E7F3;stroke-width:25.8948;stroke-miterlimit:10;}
	.st4{display:inline;}
	.st5{clip-path:url(#SVGID_2_);fill:#0080BE;}
	.st6{clip-path:url(#SVGID_4_);fill:#0081BF;}
	.st7{clip-path:url(#SVGID_6_);fill:#0080BE;}
	.st8{clip-path:url(#SVGID_8_);fill:#0080BE;}
	.st9{clip-path:url(#SVGID_10_);fill:#0080BE;}
	.st10{clip-path:url(#SVGID_12_);fill:#0080BE;}
	.st11{clip-path:url(#SVGID_14_);fill:#0080BE;}
	.st12{clip-path:url(#SVGID_16_);fill:#0080BE;}
	.st13{clip-path:url(#SVGID_18_);fill:#0080BE;}
	.st14{clip-path:url(#SVGID_20_);fill:#0080BE;}
	.st15{clip-path:url(#SVGID_22_);fill:#0081BF;}
	.st16{clip-path:url(#SVGID_24_);fill:none;stroke:#0081BF;stroke-width:51.7896;stroke-miterlimit:10;}
	.st17{clip-path:url(#SVGID_26_);fill:#0081BF;}
	.st18{clip-path:url(#SVGID_28_);fill:none;stroke:#C6E7F3;stroke-width:9.1623;stroke-miterlimit:10;}
	.st19{clip-path:url(#SVGID_30_);fill:#C5E6F3;}
	.st20{clip-path:url(#SVGID_32_);fill:#0080BE;}
	.st21{clip-path:url(#SVGID_34_);fill:#0080BE;}
	.st22{clip-path:url(#SVGID_36_);fill:#C5E6F3;}
	.st23{clip-path:url(#SVGID_38_);fill:#C5E6F3;}
	.st24{display:inline;fill:#C6E7F3;stroke:#C6E7F3;stroke-width:25.7942;stroke-miterlimit:10;}
	.st25{display:inline;fill:#0080BE;}
	.st26{fill:#C6E7F3;stroke:#C6E7F3;stroke-width:25.7305;stroke-miterlimit:10;}
	.st27{clip-path:url(#SVGID_40_);fill:#C6E7F3;}
	.st28{clip-path:url(#SVGID_42_);}
	.st29{fill:#0081BF;}
	.st30{fill:#C6E7F3;}
</style>
<ellipse class="st0" cx="361" cy="653.8" rx="319.3" ry="53.4"/>
<g class="st1">
	<ellipse class="st2" cx="360.4" cy="360.1" rx="339" ry="333.1"/>
	<ellipse class="st3" cx="360.4" cy="360.1" rx="339" ry="333.1"/>
	<g class="st4">
		<g>
			<defs>
				<ellipse id="SVGID_1_" cx="359.6" cy="370.7" rx="339" ry="333.1"/>
			</defs>
			<clipPath id="SVGID_2_">
				<use xlink:href="#SVGID_1_"  style="overflow:visible;"/>
			</clipPath>
			<path class="st5" d="M555.4,245.4H212.6c-4.7,0-8.9,4.1-8.9,8.7v190.5c0,4.6,4.2,8.7,8.9,8.7s8.9-4.1,8.9-8.7V262.9h325V461
				H312.9c-4.7,0-8.9,4.1-8.9,8.7s4.2,8.7,8.9,8.7h242.4c4.7,0,8.9-4.1,8.9-8.7V254.1C564.2,249.5,560.6,245.4,555.4,245.4z"/>
		</g>
		<g>
			<defs>
				<ellipse id="SVGID_3_" cx="359.6" cy="370.7" rx="339" ry="333.1"/>
			</defs>
			<clipPath id="SVGID_4_">
				<use xlink:href="#SVGID_3_"  style="overflow:visible;"/>
			</clipPath>
			<ellipse class="st6" cx="131.6" cy="394.8" rx="47.5" ry="46.7"/>
		</g>
		<g>
			<defs>
				<ellipse id="SVGID_5_" cx="359.6" cy="370.7" rx="339" ry="333.1"/>
			</defs>
			<clipPath id="SVGID_6_">
				<use xlink:href="#SVGID_5_"  style="overflow:visible;"/>
			</clipPath>
			<path class="st7" d="M485.9,495.9c23.4,0,42.3,18.6,42.3,41.6s-18.9,41.6-42.3,41.6s-42.3-18.6-42.3-41.6
				S462.5,495.9,485.9,495.9z"/>
		</g>
		<g>
			<defs>
				<ellipse id="SVGID_7_" cx="359.6" cy="370.7" rx="339" ry="333.1"/>
			</defs>
			<clipPath id="SVGID_8_">
				<use xlink:href="#SVGID_7_"  style="overflow:visible;"/>
			</clipPath>
			<ellipse class="st8" cx="328.1" cy="537.5" rx="42.3" ry="41.6"/>
		</g>
		<g>
			<defs>
				<ellipse id="SVGID_9_" cx="359.6" cy="370.7" rx="339" ry="333.1"/>
			</defs>
			<clipPath id="SVGID_10_">
				<use xlink:href="#SVGID_9_"  style="overflow:visible;"/>
			</clipPath>
			<path class="st9" d="M296.7,440l61.1-77.5c2.1-2.6,1.6-6.2-1-8.2c-2.6-2.1-6.3-1.5-8.4,1l-60.6,78c-5.7-2.1-12.5-1-17.2,3.1
				l-40.8,34.4l-83.1-16.4c-1,0-2.6-0.5-3.7-0.5c-3.7-0.5-7.3-1-11.5-1h-1c-27.2,0-49.6,18.5-49.6,41.6v131.9h99.8V496.9l49.6,9.8
				c1,0,2.1,0.5,3.7,0.5c4.2,0,8.4-1.5,11.5-4.1l47-40C300.4,456.9,302,447.1,296.7,440z"/>
		</g>
		<g>
			<defs>
				<ellipse id="SVGID_11_" cx="359.6" cy="370.7" rx="339" ry="333.1"/>
			</defs>
			<clipPath id="SVGID_12_">
				<use xlink:href="#SVGID_11_"  style="overflow:visible;"/>
			</clipPath>
			<path class="st10" d="M486.4,587.8h-1c-29.8,0-53.3,16.4-53.3,37v2.1h108.2v-2.1C540.2,604.2,516.2,587.8,486.4,587.8z"/>
		</g>
		<g>
			<defs>
				<ellipse id="SVGID_13_" cx="359.6" cy="370.7" rx="339" ry="333.1"/>
			</defs>
			<clipPath id="SVGID_14_">
				<use xlink:href="#SVGID_13_"  style="overflow:visible;"/>
			</clipPath>
			<path class="st11" d="M328.6,587.8h-1c-29.8,0-53.3,16.4-53.3,37v2.1h108.2v-2.1C381.9,604.2,357.9,587.8,328.6,587.8z"/>
		</g>
		<g>
			<defs>
				<ellipse id="SVGID_15_" cx="359.6" cy="370.7" rx="339" ry="333.1"/>
			</defs>
			<clipPath id="SVGID_16_">
				<use xlink:href="#SVGID_15_"  style="overflow:visible;"/>
			</clipPath>
			<path class="st12" d="M503.6,291.1H289.4c-4.7,0-8.9,4.1-8.9,8.7s4.2,8.7,8.9,8.7h214.2c4.7,0,8.9-4.1,8.9-8.7
				S508.9,291.1,503.6,291.1z"/>
		</g>
		<g>
			<defs>
				<ellipse id="SVGID_17_" cx="359.6" cy="370.7" rx="339" ry="333.1"/>
			</defs>
			<clipPath id="SVGID_18_">
				<use xlink:href="#SVGID_17_"  style="overflow:visible;"/>
			</clipPath>
			<path class="st13" d="M503.6,353.2H395c-4.7,0-8.9,4.1-8.9,8.7s4.2,8.7,8.9,8.7h109.2c4.7,0,8.9-4.1,8.9-8.7
				C512.5,356.8,508.9,353.2,503.6,353.2z"/>
		</g>
		<g>
			<defs>
				<ellipse id="SVGID_19_" cx="359.6" cy="370.7" rx="339" ry="333.1"/>
			</defs>
			<clipPath id="SVGID_20_">
				<use xlink:href="#SVGID_19_"  style="overflow:visible;"/>
			</clipPath>
			<path class="st14" d="M503.6,418.9H369.4c-4.7,0-8.9,4.1-8.9,8.7s4.2,8.7,8.9,8.7h134.8c4.7,0,8.9-4.1,8.9-8.7
				C512.5,422.5,508.9,418.9,503.6,418.9z"/>
		</g>
		<g>
			<defs>
				<ellipse id="SVGID_21_" cx="359.6" cy="370.7" rx="339" ry="333.1"/>
			</defs>
			<clipPath id="SVGID_22_">
				<use xlink:href="#SVGID_21_"  style="overflow:visible;"/>
			</clipPath>
			<path class="st15" d="M112.5,11.2v-77.5h866.9V624l-220.6-93.9l-66.7,24.4L654,489.8l-74.6-23.2l-41.3,23.2l-66.7-145.3
				l-15.9,18.3l-47.6-64.7l-41.3,6.1l-41.3-75.7c0,0-31.8,19.5-34.9,23.2S204.6,126,204.6,126s-88.9-65.6-90.5-62"/>
		</g>
		<g>
			<defs>
				<ellipse id="SVGID_23_" cx="359.6" cy="370.7" rx="339" ry="333.1"/>
			</defs>
			<clipPath id="SVGID_24_">
				<use xlink:href="#SVGID_23_"  style="overflow:visible;"/>
			</clipPath>
			<path class="st16" d="M112.5,11.2v-77.5h866.9V624l-220.6-93.9l-66.7,24.4L654,489.8l-74.6-23.2l-41.3,23.2l-66.7-145.3
				l-15.9,18.3l-47.6-64.7l-41.3,6.1l-41.3-75.7c0,0-31.8,19.5-34.9,23.2S204.6,126,204.6,126s-88.9-65.6-90.5-62"/>
		</g>
		<g>
			<defs>
				<ellipse id="SVGID_25_" cx="359.6" cy="370.7" rx="339" ry="333.1"/>
			</defs>
			<clipPath id="SVGID_26_">
				<use xlink:href="#SVGID_25_"  style="overflow:visible;"/>
			</clipPath>
			<path class="st17" d="M981.3,626.3l-220.6-93.9L694,556.8l-38.1-64.7l-74.6-23.2L540,492.1l-66.7-145.3l-15.9,18.3l-47.6-64.7
				l-41.3,6.1l-41.3-75.7L292.3,254l-85.7-125.7c0,0-88.9-75.9-90.5-72.2"/>
		</g>
		<g>
			<defs>
				<ellipse id="SVGID_27_" cx="359.6" cy="370.7" rx="339" ry="333.1"/>
			</defs>
			<clipPath id="SVGID_28_">
				<use xlink:href="#SVGID_27_"  style="overflow:visible;"/>
			</clipPath>
			<path class="st18" d="M981.3,626.3l-220.6-93.9L694,556.8l-38.1-64.7l-74.6-23.2L540,492.1l-66.7-145.3l-15.9,18.3l-47.6-64.7
				l-41.3,6.1l-41.3-75.7L292.3,254l-85.7-125.7c0,0-88.9-75.9-90.5-72.2"/>
		</g>
		<g>
			<defs>
				<ellipse id="SVGID_29_" cx="359.6" cy="370.7" rx="339" ry="333.1"/>
			</defs>
			<clipPath id="SVGID_30_">
				<use xlink:href="#SVGID_29_"  style="overflow:visible;"/>
			</clipPath>
			<path class="st19" d="M551,196.9c-17.3-1.8-29.9-2.8-37.8-2.8c-7.9,0-12.5,0.2-13.7,0.6c-1.3,0.4-1.9,1.3-1.9,2.6
				s0.7,2.3,2.3,3.1c1.5,0.7,5.7,1.8,12.5,3.3c6.8,1.5,12.4,2.9,16.8,4.2c4.4,1.3,8.6,2.9,12.6,4.9s7,4.3,8.8,7
				c3.8,5.5,5.6,13.6,5.6,24.2c0,14.4-3.7,24.8-11.2,31.2c-7.5,6.4-18.7,9.9-33.8,10.4v13.5h-11.7v-13.5
				c-14.5-0.7-27.3-2.5-38.4-5.2l-5.8-1.3l1.7-32c18.8,2.7,34.2,4.1,46.3,4.1c3.6,0,6.1-0.3,7.5-1s2.1-1.7,2.1-3.1
				c0-1.4-0.7-2.3-2.2-2.8c-1.4-0.5-5.4-1.2-11.9-2.2c-17.2-2.7-28.9-6.9-35.1-12.6c-6.2-5.7-9.3-14.8-9.3-27.5
				c0-15.6,3.7-26.5,11.1-32.7s18.7-9.4,34-9.6v-15.2h11.7v15.2c11.2,0.5,22.8,1.7,34.8,3.5l6,0.9L551,196.9z"/>
		</g>
		<g>
			<defs>
				<ellipse id="SVGID_31_" cx="359.6" cy="370.7" rx="339" ry="333.1"/>
			</defs>
			<clipPath id="SVGID_32_">
				<use xlink:href="#SVGID_31_"  style="overflow:visible;"/>
			</clipPath>
			<rect x="274.3" y="624.8" class="st20" width="108.2" height="94.5"/>
		</g>
		<g>
			<defs>
				<ellipse id="SVGID_33_" cx="359.6" cy="370.7" rx="339" ry="333.1"/>
			</defs>
			<clipPath id="SVGID_34_">
				<use xlink:href="#SVGID_33_"  style="overflow:visible;"/>
			</clipPath>
			<rect x="432.1" y="624.8" class="st21" width="108.2" height="94.5"/>
		</g>
		<g>
			<defs>
				<ellipse id="SVGID_35_" cx="359.6" cy="370.7" rx="339" ry="333.1"/>
			</defs>
			<clipPath id="SVGID_36_">
				<use xlink:href="#SVGID_35_"  style="overflow:visible;"/>
			</clipPath>
			<path class="st22" d="M412.3,128.5c-11.5-1.2-19.9-1.8-25.2-1.8c-5.3,0-8.3,0.1-9.2,0.4c-0.8,0.3-1.3,0.9-1.3,1.7
				c0,0.9,0.5,1.5,1.5,2s3.8,1.2,8.3,2.2c4.6,1,8.3,1.9,11.2,2.8c2.9,0.9,5.7,2,8.4,3.3c2.7,1.3,4.6,2.9,5.9,4.7
				c2.5,3.7,3.8,9.1,3.8,16.1c0,9.6-2.5,16.6-7.5,20.8c-5,4.3-12.5,6.6-22.5,6.9v9h-7.8v-9c-9.7-0.5-18.2-1.6-25.6-3.4l-3.9-0.9
				l1.1-21.3c12.5,1.8,22.8,2.7,30.8,2.7c2.4,0,4.1-0.2,5-0.7c0.9-0.4,1.4-1.1,1.4-2s-0.5-1.5-1.4-1.8c-1-0.3-3.6-0.8-8-1.5
				c-11.5-1.8-19.2-4.6-23.4-8.4c-4.1-3.8-6.2-9.9-6.2-18.4c0-10.4,2.5-17.7,7.4-21.8c4.9-4.1,12.5-6.2,22.7-6.4V93.6h7.8v10.1
				c7.4,0.3,15.2,1.1,23.2,2.3l4,0.6L412.3,128.5z"/>
		</g>
		<g>
			<defs>
				<ellipse id="SVGID_37_" cx="359.6" cy="370.7" rx="339" ry="333.1"/>
			</defs>
			<clipPath id="SVGID_38_">
				<use xlink:href="#SVGID_37_"  style="overflow:visible;"/>
			</clipPath>
			<path class="st23" d="M604.4,367.3c-7.3-0.8-12.6-1.2-16-1.2c-3.3,0-5.3,0.1-5.8,0.3c-0.5,0.2-0.8,0.5-0.8,1.1c0,0.5,0.3,1,1,1.3
				c0.6,0.3,2.4,0.8,5.3,1.4c2.9,0.6,5.3,1.2,7.1,1.8c1.8,0.5,3.6,1.2,5.3,2.1c1.7,0.8,2.9,1.8,3.7,3c1.6,2.3,2.4,5.7,2.4,10.2
				c0,6.1-1.6,10.5-4.7,13.2c-3.1,2.7-7.9,4.2-14.3,4.4v5.7h-4.9v-5.7c-6.1-0.3-11.5-1-16.2-2.2l-2.5-0.5l0.7-13.5
				c7.9,1.1,14.5,1.7,19.5,1.7c1.5,0,2.6-0.1,3.2-0.4s0.9-0.7,0.9-1.3c0-0.6-0.3-1-0.9-1.2c-0.6-0.2-2.3-0.5-5-0.9
				c-7.3-1.1-12.2-2.9-14.8-5.3s-3.9-6.3-3.9-11.6c0-6.6,1.6-11.2,4.7-13.8c3.1-2.6,7.9-4,14.4-4.1v-6.4h4.9v6.4
				c4.7,0.2,9.6,0.7,14.7,1.5l2.5,0.4L604.4,367.3z"/>
		</g>
	</g>
	<ellipse class="st3" cx="360.4" cy="358.1" rx="339" ry="333.1"/>
</g>
<g class="st1">
	<ellipse class="st24" cx="356.5" cy="360" rx="336.5" ry="333"/>
	<path class="st25" d="M556.1,463.6l39.1-38.7c4-4,4-10.4,0-14.4c-1.2-1.2-2.7-2.1-4.4-2.6l-32.4-9.4
		c35.3-122.2-36.1-249.6-159.6-284.6c-19.6-5.6-39.9-8.5-60.3-8.9c-1.2-0.1-2.4-0.1-3.6-0.1c-0.1,0-0.3,0-0.4,0
		c-1.2,0-2.4,0-3.1,0.1c-128.4,1.9-231,106.3-229.2,233.4c1.8,124.4,103.1,224.9,228.9,226.9c1.2,0.1,2.5,0.1,3.8,0.1s2.5,0,3.4-0.1
		c32.4-0.3,64.4-7.5,93.9-21l4.7,16c1.6,5.4,7.3,8.5,12.7,6.9c1.7-0.5,3.2-1.4,4.4-2.6l39.1-38.7l56.7,56c4.2,4,10.8,4,15,0
		l47.9-47.4c4-4.2,4-10.7,0-14.9L556.1,463.6z M468.3,372.4c0.8-8.8,1.4-17.9,1.6-27h76.7c-0.8,16.1-3.4,32-7.9,47.4L468.3,372.4z
		 M378.3,362.6l19.4,65.4c-17.1-1.2-34.7-1.9-52.6-2.1v-80.6h104.1c-0.2,7.2-0.6,14.2-1.2,21.2L391,350c-5.4-1.6-11.2,1.5-12.7,6.9
		C377.7,358.7,377.7,360.7,378.3,362.6L378.3,362.6z M345.1,244.5c30.5-0.3,61-2.2,91.3-5.9c7.9,28.2,12.2,57.2,12.9,86.4H345.1
		V244.5z M345.1,224.2v-98c34.1,5.8,65.6,40.2,84.9,92.8C401.8,222.2,373.5,223.9,345.1,224.2L345.1,224.2z M324.5,126.2v98
		c-28.4-0.3-56.7-2-84.9-5.2C259,166.5,290.5,132.1,324.5,126.2z M324.5,244.5V325H220.3c0.7-29.2,5-58.2,12.9-86.4
		C263.5,242.3,294,244.2,324.5,244.5z M324.5,345.4v80.5c-30.5,0.3-61,2.2-91.3,5.8c-7.9-28.1-12.3-57.2-13-86.4L324.5,345.4z
		 M324.5,446.2v97.9c-34-5.8-65.5-40.2-84.9-92.7C267.8,448.2,296.2,446.5,324.5,446.2z M345.1,544.1v-97.9
		c20,0.2,39.7,1.1,58.8,2.6l10.7,36.2C395.4,519.1,371.1,539.8,345.1,544.1z M546.5,325h-76.6c-0.7-30.2-5-60.1-12.9-89.3
		c19.3-2.8,38.3-7.1,57-12.7C533.5,253.7,544.8,288.8,546.5,325z M501.5,205.5c-16.7,4.6-33.6,8.2-50.7,10.7
		c-9.4-29.4-25.3-56.4-46.4-79.1C442.7,150.3,476.4,174,501.5,205.5z M265.2,137.1c-21.1,22.7-36.9,49.7-46.4,79.1
		c-17.1-2.5-34.1-6-50.8-10.7C193.2,174,226.9,150.3,265.2,137.1L265.2,137.1z M155.7,223.1c18.6,5.6,37.7,9.9,57,12.7
		c-7.9,29.1-12.3,59.1-12.9,89.3h-76.6C124.8,288.8,136,253.7,155.7,223.1z M123.1,345.4h76.6c0.7,30.2,5,60.1,12.9,89.2
		c-19.3,2.9-38.3,7.1-57,12.7C136,416.7,124.8,381.6,123.1,345.4z M168.1,464.9c16.7-4.6,33.6-8.2,50.8-10.6
		c9.4,29.4,25.3,56.4,46.4,79.1C226.9,520.1,193.2,496.4,168.1,464.9z M404,533.5c6.7-6.9,12.9-14.3,18.3-22.2l3.9,13.2
		C419,527.9,411.6,531,404,533.5z M557.2,560.6l-56.9-56.3c-4-4-10.5-4-14.5,0l-34.1,33.8l-48.4-163.4l165.2,47.9l-34.1,33.8
		c-4,4-4,10.4,0,14.4l56.9,56.3L557.2,560.6z"/>
</g>
<g class="st1">
	<polygon class="st25" points="458.3,506.2 418.8,545.8 368.5,374.1 540.1,424.4 500.6,464 554.6,518.1 512.4,560.2 	"/>
	<path class="st2" d="M382.7,388.3l139.2,40.8l-28.8,28.8c-3.4,3.4-3.4,8.9,0,12.2l47.9,48l-28.6,28.6l-48-47.9
		c-1.7-1.7-3.9-2.5-6.1-2.5s-4.4,0.8-6.1,2.5l-28.8,28.8L382.7,388.3 M354.3,360l9.9,33.8L405,532.9l9.1,31.1l22.9-22.9l21.3-21.3
		l40.5,40.4l13.6,13.6l13.6-13.6l28.6-28.6l13.6-13.6l-13.6-13.6L514.2,464l21.3-21.3l22.9-22.9l-31.1-9.1l-139.2-40.8L354.3,360
		L354.3,360z"/>
</g>
<g>
	<ellipse class="st26" cx="360" cy="354.9" rx="340" ry="327.9"/>
	<g>
		<g>
			<defs>
				<ellipse id="SVGID_39_" cx="360" cy="365.1" rx="340" ry="327.9"/>
			</defs>
			<clipPath id="SVGID_40_">
				<use xlink:href="#SVGID_39_"  style="overflow:visible;"/>
			</clipPath>
			<path class="st27" d="M490.5,712.3v-97.2l73.6-70.9V393.9l-31.5-30.4v-87c0-27.9-23.6-50.7-52.5-50.7c-17.2,0-32.4,8.2-42,20.6
				c-9.6-12.4-24.8-20.6-42-20.6s-32.4,8.2-42,20.6c-9.6-12.4-24.8-20.6-42-20.6s-32.4,8.2-42,20.6c-9.6-12.4-24.8-20.6-42-20.6
				c-29,0-52.5,22.7-52.5,50.7v91.2v30.4v176.5l42,40.5v97.2H490.5z"/>
		</g>
		<g>
			<defs>
				<ellipse id="SVGID_41_" cx="360" cy="365.1" rx="340" ry="327.9"/>
			</defs>
			<clipPath id="SVGID_42_">
				<use xlink:href="#SVGID_41_"  style="overflow:visible;"/>
			</clipPath>
			<g class="st28">
				<g>
					<path class="st29" d="M56.6,462.4v-34.1l-13.9-13.4v-99.8c0-11.1,9.3-20.2,20.8-20.2c5.2,0,10.1,1.9,13.9,5.2
						c3.8-3.3,8.7-5.2,13.9-5.2s10.1,1.9,13.9,5.2c3.8-3.3,8.7-5.2,13.9-5.2s10.1,1.9,13.9,5.2c3.8-3.3,8.7-5.2,13.9-5.2
						c11.5,0,20.8,9.1,20.8,20.2v27.2l10.4,10v52.5l-24.3,23.4v34.1H56.6z"/>
					<path class="st29" d="M146.7,298.4c9.5,0,17.3,7.5,17.3,16.7v28.7l10.4,10v49.6l-24.3,23.4v32.1h-90v-32.1l-13.9-13.4v-58.2
						v-10v-30.1c0-9.2,7.7-16.7,17.3-16.7c5.7,0,10.7,2.7,13.9,6.8c3.2-4.1,8.2-6.8,13.9-6.8c5.7,0,10.7,2.7,13.9,6.8
						c3.2-4.1,8.2-6.8,13.9-6.8c5.7,0,10.7,2.7,13.9,6.8C136,301.1,141,298.4,146.7,298.4 M146.7,291.4c-5,0-9.8,1.5-13.9,4.3
						c-4-2.8-8.8-4.3-13.9-4.3c-5,0-9.8,1.5-13.9,4.3c-4-2.8-8.8-4.3-13.9-4.3c-5,0-9.8,1.5-13.9,4.3c-4-2.8-8.8-4.3-13.9-4.3
						c-13.4,0-24.3,10.6-24.3,23.7v30.1v10v58.2v3l2.1,2.1l11.7,11.3v29.1v7h7h90h7v-7v-29.1l22.1-21.3l2.1-2.1v-3v-49.6v-3
						l-2.1-2.1l-8.2-8v-25.7C171,302.1,160.1,291.4,146.7,291.4L146.7,291.4z"/>
				</g>
				<g>
					<path class="st30" d="M132.8,345.4v-30.2c0-7.5,6.2-13.5,13.9-13.5s13.9,6.1,13.9,13.5v30.2H132.8z"/>
					<path class="st29" d="M146.7,305.1c5.7,0,10.4,4.5,10.4,10v26.7h-20.8v-26.7C136.3,309.6,140.9,305.1,146.7,305.1 M146.7,298.1
						c-9.6,0-17.4,7.6-17.4,17v26.7v7h7h20.8h7v-7v-26.7C164.1,305.7,156.3,298.1,146.7,298.1L146.7,298.1z"/>
				</g>
				<g>
					<path class="st30" d="M105,345.4v-28.9c0-7.2,5.3-13,11.7-13s11.7,5.8,11.7,13v28.9H105z"/>
					<path class="st29" d="M116.8,307c4.5,0,8.2,4.3,8.2,9.5v25.4h-16.5v-25.4C108.5,311.3,112.2,307,116.8,307 M116.8,300
						c-8.4,0-15.2,7.4-15.2,16.5v25.4v7h7H125h7v-7v-25.4C132,307.4,125.2,300,116.8,300L116.8,300z"/>
				</g>
				<g>
					<path class="st30" d="M91.2,368.7c-7.7,0-13.9-6.1-13.9-13.5v-40.1c0-7.5,6.2-13.5,13.9-13.5c7.7,0,13.9,6.1,13.9,13.5v30.2
						h-6.9c0,5,1.5,9.8,4.2,14l1.4,2.1l-1.6,2c-0.3,0.4-0.7,0.9-1.2,1.3C98.4,367.4,94.9,368.7,91.2,368.7z"/>
					<path class="st29" d="M91.2,305.1c5.7,0,10.4,4.5,10.4,10v26.7h-6.9v3.3c0,5.7,1.6,11.2,4.8,16.1c-0.3,0.4-0.6,0.7-0.9,1.1
						c-2,1.9-4.6,2.9-7.4,2.9c-5.7,0-10.4-4.5-10.4-10v-40.1C80.8,309.6,85.5,305.1,91.2,305.1 M91.2,298.1c-4.6,0-8.9,1.7-12.2,4.9
						c-3.4,3.2-5.2,7.5-5.2,12.1v40.1c0,9.4,7.8,17,17.4,17c4.6,0,8.9-1.7,12.2-4.9l0.1-0.1l0.1-0.1c0.6-0.6,1-1.1,1.4-1.6l3.3-4
						l-2.8-4.3c-1.7-2.6-2.9-5.5-3.4-8.5h6.6v-7v-26.7C108.6,305.7,100.8,298.1,91.2,298.1L91.2,298.1z"/>
				</g>
				<g>
					<path class="st30" d="M63.5,368.8c-7.7,0-13.9-6.1-13.9-13.5v-40.1c0-7.5,6.2-13.5,13.9-13.5s13.9,6.1,13.9,13.5v40.1
						C77.4,362.7,71.2,368.8,63.5,368.8z"/>
					<path class="st29" d="M63.5,305.1c5.7,0,10.4,4.5,10.4,10v40.1c0,5.5-4.6,10-10.4,10c-5.7,0-10.4-4.5-10.4-10v-10v-30.1
						C53.1,309.6,57.8,305.1,63.5,305.1 M63.5,298.1c-9.6,0-17.4,7.6-17.4,17v30.1v10c0,9.4,7.8,17,17.4,17s17.4-7.6,17.4-17v-40.1
						C80.9,305.7,73.1,298.1,63.5,298.1L63.5,298.1z"/>
				</g>
				<g>
					<path class="st30" d="M63.5,455.6v-30.1l-13.9-13.3v-50.5l5.6,4c2.5,1.8,5.4,2.8,8.3,2.8c4.4,0,8.4-2,11.1-5.4l2.8-3.6l2.8,3.6
						c2.7,3.5,6.7,5.4,11.1,5.4c3.6,0,7.1-1.4,9.8-3.9c0.2-0.2,0.3-0.4,0.5-0.5l2.4-2.4l0,0c-0.1-0.1-0.2-0.3-0.3-0.4
						c-2.8-3.7-4.6-7.8-5.2-12.2l-0.6-4h62.7l10.5,10.1v47l-24.3,23.4v30.1H63.5z M131.1,372.4l-3.3,3c2.4-1.6,5.2-2.8,8.2-3.3h-7.8
						L131.1,372.4z"/>
					<path class="st29" d="M159,348.5l8.4,8.1v44L143.1,424v28.1H67V424l-13.9-13.3v-42.2c2.9,2.1,6.5,3.4,10.4,3.4
						c5.7,0,10.7-2.7,13.9-6.8c3.2,4.1,8.2,6.8,13.9,6.8c4.6,0,8.9-1.7,12.3-4.9c0.2-0.2,0.3-0.3,0.4-0.5c5.1,4.9,11.8,7.9,19,8.6
						c-4.6,4.3-7.5,10.3-7.5,16.9h6.9c0-9.2,7.8-16.7,17.3-16.7h6.9v-6.7h-20.8c-7.7,0-14.9-3.5-19.5-9.5c-2.4-3.2-4-6.8-4.6-10.6
						h27.5H159 M161.9,341.5H159h-29.7h-27.5h-8.1l1.2,8c0.6,4.2,2.1,8.1,4.4,11.7l-0.3,0.3c-0.2,0.2-0.4,0.4-0.5,0.6
						c-2,1.8-4.6,2.8-7.3,2.8c-3.3,0-6.3-1.5-8.3-4.1l-5.5-7.1l-5.5,7.1c-2,2.6-5,4.1-8.3,4.1c-2.8,0-5-1.1-6.3-2.1l-11.1-8.1v13.7
						v42.2v3l2.1,2.1L60,427v25.2v7h7h76.2h7v-7V427l22.1-21.3l2.1-2.1v-3v-44v-3l-2.1-2.1l-8.4-8.1L161.9,341.5L161.9,341.5z"/>
				</g>
			</g>
			<g class="st28">
				<g>
					<path class="st29" d="M567.7,470.8v-34.1l-13.9-13.4v-99.8c0-11.1,9.3-20.2,20.8-20.2c5.2,0,10.1,1.9,13.9,5.2
						c3.8-3.3,8.7-5.2,13.9-5.2c5.2,0,10.1,1.9,13.9,5.2c3.8-3.3,8.7-5.2,13.9-5.2c5.2,0,10.1,1.9,13.9,5.2
						c3.8-3.3,8.7-5.2,13.9-5.2c11.5,0,20.8,9.1,20.8,20.2v27.2l10.4,10v52.5l-24.3,23.4v34.1H567.7z"/>
					<path class="st29" d="M657.8,306.9c9.5,0,17.3,7.5,17.3,16.7v28.7l10.4,10v49.6l-24.3,23.4v32.1h-90v-32.1l-13.9-13.4v-58.2
						v-10v-30.1c0-9.2,7.7-16.7,17.3-16.7c5.7,0,10.7,2.7,13.9,6.8c3.2-4.1,8.2-6.8,13.9-6.8s10.7,2.7,13.9,6.8
						c3.2-4.1,8.2-6.8,13.9-6.8s10.7,2.7,13.9,6.8C647.1,309.6,652.1,306.9,657.8,306.9 M657.8,299.9c-5,0-9.8,1.5-13.9,4.3
						c-4-2.8-8.8-4.3-13.9-4.3c-5,0-9.8,1.5-13.9,4.3c-4-2.8-8.8-4.3-13.9-4.3s-9.8,1.5-13.9,4.3c-4-2.8-8.8-4.3-13.9-4.3
						c-13.4,0-24.3,10.6-24.3,23.7v30.1v10v58.2v3l2.1,2.1l11.7,11.3v29.1v7h7h90h7v-7v-29.1l22.1-21.3l2.1-2.1v-3v-49.6v-3
						l-2.1-2.1l-8.2-8v-25.7C682.1,310.5,671.2,299.9,657.8,299.9L657.8,299.9z"/>
				</g>
				<g>
					<path class="st30" d="M643.9,353.8v-30.2c0-7.5,6.2-13.5,13.9-13.5s13.9,6.1,13.9,13.5v30.2H643.9z"/>
					<path class="st29" d="M657.8,313.5c5.7,0,10.4,4.5,10.4,10v26.7h-20.8v-26.7C647.4,318.1,652,313.5,657.8,313.5 M657.8,306.5
						c-9.6,0-17.4,7.6-17.4,17v26.7v7h7h20.8h7v-7v-26.7C675.1,314.2,667.3,306.5,657.8,306.5L657.8,306.5z"/>
				</g>
				<g>
					<path class="st30" d="M616.1,353.8V325c0-7.2,5.3-13,11.7-13c6.5,0,11.7,5.8,11.7,13v28.9H616.1z"/>
					<path class="st29" d="M627.9,315.4c4.5,0,8.2,4.3,8.2,9.5v25.4h-16.5V325C619.6,319.7,623.3,315.4,627.9,315.4 M627.9,308.4
						c-8.4,0-15.2,7.4-15.2,16.5v25.4v7h7h16.5h7v-7V325C643.1,315.8,636.3,308.4,627.9,308.4L627.9,308.4z"/>
				</g>
				<g>
					<path class="st30" d="M602.3,377.2c-7.7,0-13.9-6.1-13.9-13.5v-40.1c0-7.5,6.2-13.5,13.9-13.5c7.7,0,13.9,6.1,13.9,13.5v30.2
						h-6.9c0,5,1.5,9.8,4.2,14l1.4,2.2l-1.6,2c-0.3,0.4-0.7,0.9-1.2,1.3C609.4,375.8,606,377.2,602.3,377.2z"/>
					<path class="st29" d="M602.3,313.5c5.7,0,10.4,4.5,10.4,10v26.7h-6.9v3.3c0,5.7,1.6,11.2,4.8,16.1c-0.3,0.4-0.6,0.7-0.9,1.1
						c-2,1.9-4.6,2.9-7.4,2.9c-5.7,0-10.4-4.5-10.4-10v-40.1C591.9,318.1,596.6,313.5,602.3,313.5 M602.3,306.5
						c-4.6,0-8.9,1.7-12.2,4.9c-3.4,3.2-5.2,7.5-5.2,12.1v40.1c0,9.4,7.8,17,17.4,17c4.6,0,8.9-1.7,12.2-4.9l0.1-0.1l0.1-0.1
						c0.6-0.6,1-1.1,1.4-1.6l3.3-4l-2.8-4.3c-1.7-2.6-2.9-5.5-3.4-8.5h6.6v-7v-26.7C619.7,314.2,611.9,306.5,602.3,306.5
						L602.3,306.5z"/>
				</g>
				<g>
					<path class="st30" d="M574.6,377.2c-7.7,0-13.9-6.1-13.9-13.5v-40.1c0-7.5,6.2-13.5,13.9-13.5c7.7,0,13.9,6.1,13.9,13.5v40.1
						C588.5,371.2,582.2,377.2,574.6,377.2z"/>
					<path class="st29" d="M574.6,313.5c5.7,0,10.4,4.5,10.4,10v40.1c0,5.5-4.7,10-10.4,10s-10.4-4.5-10.4-10v-10v-30.1
						C564.2,318,568.8,313.5,574.6,313.5 M574.6,306.5c-9.6,0-17.4,7.6-17.4,17v30.1v10c0,9.4,7.8,17,17.4,17s17.4-7.6,17.4-17
						v-40.1C592,314.2,584.2,306.5,574.6,306.5L574.6,306.5z"/>
				</g>
				<g>
					<path class="st30" d="M574.5,464.1V434l-13.9-13.3v-50.5l5.6,4c2.5,1.8,5.4,2.8,8.3,2.8c4.4,0,8.4-2,11.1-5.4l2.8-3.6l2.8,3.6
						c2.7,3.5,6.7,5.4,11.1,5.4c3.6,0,7.1-1.4,9.8-3.9c0.2-0.2,0.3-0.4,0.5-0.5l2.4-2.4l0,0c-0.1-0.1-0.2-0.3-0.3-0.4
						c-2.8-3.7-4.6-7.8-5.2-12.2l-0.6-4h62.7l10.5,10.1v47L657.7,434v30.1H574.5z M642.2,380.8l-3.3,3c2.4-1.6,5.2-2.8,8.2-3.3h-7.8
						L642.2,380.8z"/>
					<path class="st29" d="M670.1,357l8.4,8.1v44l-24.3,23.4v28.1H578v-28.1l-13.9-13.3V377c2.9,2.1,6.5,3.4,10.4,3.4
						c5.7,0,10.7-2.7,13.9-6.8c3.2,4.1,8.2,6.8,13.9,6.8c4.6,0,8.9-1.7,12.3-4.9c0.2-0.2,0.3-0.3,0.4-0.5c5.1,4.9,11.8,7.9,19,8.6
						c-4.6,4.3-7.5,10.3-7.5,16.9h6.9c0-9.2,7.8-16.7,17.3-16.7h6.9v-6.7h-20.8c-7.7,0-14.9-3.5-19.5-9.5c-2.4-3.2-4-6.8-4.6-10.6
						h27.5H670.1 M672.9,350h-2.8h-29.7h-27.5h-8.1l1.2,8c0.6,4.2,2.1,8.1,4.4,11.7l-0.3,0.3c-0.2,0.2-0.4,0.4-0.5,0.6
						c-2,1.8-4.6,2.8-7.3,2.8c-3.3,0-6.3-1.5-8.3-4.1l-5.5-7.1l-5.5,7.1c-2,2.6-5,4.1-8.3,4.1c-2.8,0-5-1.1-6.3-2.1l-11.1-8.1V377
						v42.2v3l2.1,2.1l11.7,11.3v25.2v7h7h76.2h7v-7v-25.2l22.1-21.3l2.1-2.1v-3v-44v-3l-2.1-2.1l-8.4-8.1L672.9,350L672.9,350z"/>
				</g>
			</g>
			<g class="st28">
				<path class="st29" d="M685.4,665.4v-59.2l44.8-43.2v-91.6l-19.2-18.5v-53c0-17-14.4-30.9-32-30.9c-10.5,0-19.7,5-25.6,12.6
					c-5.8-7.6-15.1-12.6-25.6-12.6c-10.5,0-19.7,5-25.6,12.6c-5.8-7.6-15.1-12.6-25.6-12.6c-10.5,0-19.7,5-25.6,12.6
					C545.3,374,536,369,525.5,369c-17.7,0-32,13.8-32,30.9v55.6V474v107.5l25.6,24.7v59.2H685.4z"/>
				<path class="st30" d="M679,381.3c10.6,0,19.2,8.3,19.2,18.5v49.4h-38.4v-49.4C659.8,389.7,668.4,381.3,679,381.3z"/>
				<path class="st30" d="M627.8,381.3c10.6,0,19.2,8.3,19.2,18.5v49.4h-38.4v-49.4C608.6,389.7,617.2,381.3,627.8,381.3z"/>
				<path class="st30" d="M576.6,381.3c10.6,0,19.2,8.3,19.2,18.5v49.4H583v6.2c0,10.6,3,20.8,8.9,29.7c-0.5,0.7-1.1,1.3-1.7,1.9
					c-3.7,3.5-8.5,5.4-13.6,5.4c-10.6,0-19.2-8.3-19.2-18.5v-74.1C557.3,389.7,566,381.3,576.6,381.3z"/>
				<path class="st30" d="M506.2,399.8c0-10.2,8.6-18.5,19.2-18.5c10.6,0,19.2,8.3,19.2,18.5V474c0,10.2-8.6,18.5-19.2,18.5
					c-10.6,0-19.2-8.3-19.2-18.5v-18.5V399.8L506.2,399.8z"/>
				<path class="st30" d="M506.2,576.4v-77.9c5.4,3.9,11.9,6.3,19.2,6.3c10.5,0,19.7-5,25.6-12.6c5.8,7.6,15.1,12.6,25.6,12.6
					c8.5,0,16.5-3.2,22.7-9.1c0.3-0.3,0.5-0.6,0.8-0.9c9.4,9,21.9,14.7,35.2,15.9c-8.5,7.9-13.9,18.9-13.9,31.2h12.8
					c0-17,14.4-30.9,32-30.9h12.8v-12.4h-38.4c-14.1,0-27.6-6.5-35.9-17.5c-4.5-5.8-7.4-12.5-8.4-19.6h50.7h55l15.5,14.9v81.3
					L672.5,601v52H531.8v-52L506.2,576.4z"/>
			</g>
			<g class="st28">
				<path class="st30" d="M497.2,718.2V621l73.6-70.9V399.8l-31.5-30.4v-87c0-27.9-23.6-50.7-52.5-50.7c-17.2,0-32.4,8.2-42,20.6
					c-9.6-12.4-24.8-20.6-42-20.6s-32.4,8.2-42,20.6c-9.6-12.4-24.8-20.6-42-20.6s-32.4,8.2-42,20.6c-9.6-12.4-24.8-20.6-42-20.6
					c-29,0-52.5,22.7-52.5,50.7v91.2V404v176.5l42,40.5v97.2H497.2z"/>
				<path class="st29" d="M486.7,251.9c17.4,0,31.5,13.6,31.5,30.4v81.1h-63v-81.1C455.2,265.6,469.3,251.9,486.7,251.9z"/>
				<path class="st29" d="M402.6,251.9c17.4,0,31.5,13.6,31.5,30.4v81.1h-63v-81.1C371.1,265.6,385.2,251.9,402.6,251.9z"/>
				<path class="st29" d="M318.6,251.9c17.4,0,31.5,13.6,31.5,30.4v81.1h-21v10.1c0,17.4,5,34.1,14.6,48.7c-0.9,1.1-1.8,2.2-2.8,3.2
					c-6.1,5.8-14,8.9-22.4,8.9c-17.4,0-31.5-13.6-31.5-30.4V282.3C287,265.6,301.2,251.9,318.6,251.9z"/>
				<path class="st29" d="M203,282.3c0-16.8,14.1-30.4,31.5-30.4s31.5,13.6,31.5,30.4V404c0,16.8-14.1,30.4-31.5,30.4
					S203,420.8,203,404v-30.4L203,282.3L203,282.3z"/>
				<path class="st29" d="M203,572.1V444.2c8.8,6.4,19.6,10.4,31.5,10.4c17.2,0,32.4-8.2,42-20.6c9.6,12.4,24.8,20.6,42,20.6
					c13.9,0,27.1-5.3,37.3-14.9c0.5-0.5,0.8-1,1.3-1.5c15.5,14.8,35.9,24.1,57.7,26.1c-14,12.9-22.8,31.1-22.8,51.2h21
					c0-27.9,23.6-50.7,52.5-50.7h21v-20.3h-63c-23.2,0-45.3-10.7-59-28.7c-7.4-9.6-12.1-20.5-13.8-32.2H434h90.2l25.4,24.5v133.5
					L476,612.5v85.3H245v-85.3L203,572.1z"/>
			</g>
			<g class="st28">
				<path class="st29" d="M237.2,766v-78.7l59.6-57.4V508.1l-25.5-24.6v-70.5c0-22.6-19.1-41.1-42.5-41.1c-13.9,0-26.2,6.6-34,16.7
					c-7.8-10-20.1-16.7-34-16.7c-13.9,0-26.2,6.6-34,16.7c-7.8-10-20.1-16.7-34-16.7s-26.2,6.6-34,16.7c-7.8-10-20.1-16.7-34-16.7
					c-23.5,0-42.5,18.4-42.5,41.1v73.9v24.6v142.9l34,32.8V766H237.2z"/>
				<path class="st30" d="M228.7,388.4c14.1,0,25.5,11,25.5,24.6v65.7h-51V413C203.2,399.5,214.6,388.4,228.7,388.4z"/>
				<path class="st30" d="M160.6,388.4c14.1,0,25.5,11,25.5,24.6v65.7h-51V413C135.1,399.5,146.5,388.4,160.6,388.4z"/>
				<path class="st30" d="M92.6,388.4c14.1,0,25.5,11,28.8,23.7v65.7l-20.3,0.9v8.2c0,14.1,4,27.6,11.8,39.4
					c-0.7,0.9-1.5,1.8-2.3,2.6c-4.9,4.7-11.3,7.2-18.1,7.2c-14.1,0-25.5-11-25.5-24.6V413C67,399.5,78.5,388.4,92.6,388.4z"/>
				<path class="st30" d="M-1.1,413c0-13.6,11.4-24.6,25.5-24.6S50,399.4,50,413v98.6c0,13.6-11.4,24.6-25.5,24.6
					s-25.5-11-25.5-24.6v-24.6L-1.1,413L-1.1,413z"/>
				<path class="st30" d="M-1.1,647.7V544.1c7.1,5.2,15.9,8.4,25.5,8.4c13.9,0,26.2-6.6,34-16.7c7.8,10,20.1,16.7,34,16.7
					c11.3,0,21.9-4.3,30.2-12.1c0.4-0.4,0.6-0.8,1.1-1.2c12.6,12,29.1,19.5,46.7,21.1c-11.3,10.4-18.5,25.2-18.5,41.5h17
					c0-22.6,19.1-41.1,42.5-41.1h17v-16.4h-51c-18.8,0-36.7-8.7-47.8-23.2c-6-7.8-9.8-16.6-11.2-26.1H186h73l20.6,19.8V623
					L220,680.4v69.1H33v-69.1L-1.1,647.7z"/>
			</g>
		</g>
	</g>
</g>
</svg>
