<?xml version="1.0" encoding="utf-8"?>
<!-- Generator: Adobe Illustrator 26.5.0, SVG Export Plug-In . SVG Version: 6.00 Build 0)  -->
<svg version="1.1" id="Layer_1" xmlns="http://www.w3.org/2000/svg" xmlns:xlink="http://www.w3.org/1999/xlink" x="0px" y="0px"
	 viewBox="0 0 80 60" style="enable-background:new 0 0 80 60;" xml:space="preserve">
<style type="text/css">
	.st0{fill:#0073B6;}
</style>
<path class="st0" d="M76.2,12.9H26.9c-1.1,0-2-0.9-2-2s0.9-2,2-2h49.3c1.1,0,2,0.9,2,2S77.2,12.9,76.2,12.9z"/>
<path class="st0" d="M11.5,12.9H3.9c-1.1,0-2-0.9-2-2s0.9-2,2-2h7.7c1.1,0,2,0.9,2,2S12.7,12.9,11.5,12.9z"/>
<path class="st0" d="M76.2,31.5h-13c-1.1,0-2-0.9-2-2s0.9-2,2-2h13c1.1,0,2,0.9,2,2S77.2,31.5,76.2,31.5z"/>
<path class="st0" d="M47.8,31.5h-44c-1.1,0-2-0.9-2-2s0.9-2,2-2h44c1.1,0,2,0.9,2,2S48.9,31.5,47.8,31.5z"/>
<path class="st0" d="M76.2,50.1H26.9c-1.1,0-2-0.9-2-2c0-1.1,0.9-2,2-2h49.3c1.1,0,2,0.9,2,2C78.1,49.2,77.2,50.1,76.2,50.1z"/>
<path class="st0" d="M11.5,50.1H3.9c-1.1,0-2-0.9-2-2c0-1.2,0.9-2.1,2-2.1h7.7c1.1,0,2,0.9,2,2C13.6,49.2,12.7,50.1,11.5,50.1z"/>
<path class="st0" d="M19.2,20.6c-5.3,0-9.6-4.4-9.6-9.6s4.4-9.6,9.6-9.6s9.6,4.4,9.6,9.6S24.6,20.6,19.2,20.6z M19.2,5.3
	c-3.2,0-5.7,2.6-5.7,5.7s2.6,5.7,5.7,5.7s5.7-2.6,5.7-5.7S22.4,5.3,19.2,5.3z"/>
<path class="st0" d="M55.5,39.1c-5.3,0-9.6-4.4-9.6-9.6s4.4-9.6,9.6-9.6s9.6,4.4,9.6,9.6S60.9,39.1,55.5,39.1z M55.5,23.8
	c-3.2,0-5.7,2.6-5.7,5.7s2.6,5.7,5.7,5.7c3.2,0,5.7-2.6,5.7-5.7S58.7,23.8,55.5,23.8z"/>
<path class="st0" d="M19.2,57.8c-5.3,0-9.6-4.4-9.6-9.6c0-5.4,4.4-9.6,9.6-9.6s9.6,4.4,9.6,9.6C29,53.5,24.6,57.8,19.2,57.8z
	 M19.2,42.5c-3.2,0-5.7,2.6-5.7,5.7c0,3.2,2.6,5.7,5.7,5.7s5.7-2.6,5.7-5.7C24.9,45,22.4,42.5,19.2,42.5z"/>
</svg>
