<?xml version="1.0" encoding="utf-8"?>
<!-- Generator: Adobe Illustrator 25.2.2, SVG Export Plug-In . SVG Version: 6.00 Build 0)  -->
<svg version="1.1" id="Layer_1" xmlns="http://www.w3.org/2000/svg" xmlns:xlink="http://www.w3.org/1999/xlink" x="0px" y="0px"
	 viewBox="0 0 350 350" style="enable-background:new 0 0 350 350;" xml:space="preserve">
<style type="text/css">
	.st0{fill:#0081BE;}
</style>
<g>
	<path class="st0" d="M237,40.1l-31.6-0.1c-35.5,0-58.5,23.5-58.5,60v27.6H115c-2.7,0-4.9,2.2-4.9,4.9v40.1c0,2.7,2.2,4.9,4.9,4.9
		h31.8v101.1c0,2.7,2.2,4.9,4.9,4.9h41.5c2.7,0,4.9-2.2,4.9-4.9V177.6h37.1c2.7,0,4.9-2.2,4.9-4.9v-40.1c0-1.3-0.5-2.6-1.4-3.5
		s-2.2-1.4-3.5-1.4h-37.2v-23.5c0-11.3,2.7-17,17.4-17h21.3c2.7,0,4.9-2.2,4.9-4.9V45.1C241.8,42.3,239.6,40.1,237,40.1z"/>
</g>
</svg>
