<?xml version="1.0" encoding="utf-8"?>
<!-- Generator: Adobe Illustrator 25.1.0, SVG Export Plug-In . SVG Version: 6.00 Build 0)  -->
<svg version="1.1" id="Layer_1" xmlns="http://www.w3.org/2000/svg" xmlns:xlink="http://www.w3.org/1999/xlink" x="0px" y="0px"
	 viewBox="0 0 100 100" style="enable-background:new 0 0 100 100;" xml:space="preserve">
<path d="M50,4.9c-24.9,0-45,20.1-45,45s20.1,45,45,45s45-20.1,45-45S74.9,4.9,50,4.9z M60.1,87.6c3.3-5.3,5.9-13.2,7.3-22.5h18.5
	C81.2,76.1,71.7,84.4,60.1,87.6z M14.1,65h18.5c1.4,9.3,4,17.2,7.3,22.5C28.3,84.4,18.8,76.1,14.1,65L14.1,65z M39.9,12.2
	c-3,4.8-5.4,11.7-6.9,19.8H15.3C20.4,22.3,29.3,15.1,39.9,12.2L39.9,12.2z M84.7,32.1H67c-1.4-8.1-3.8-15-6.9-19.8
	C70.7,15.1,79.6,22.3,84.7,32.1z M50,88.9c-1.8,0-4.8-3-7.5-9.5c-1.8-4.6-3.1-9.5-3.8-14.4h22.6c-0.7,4.9-2,9.8-3.8,14.4
	C54.8,85.9,51.8,88.9,50,88.9z M50,10.9c1.8,0,4.8,3,7.5,9.5c1.5,3.8,2.6,7.7,3.3,11.7H39.1c0.7-4,1.8-7.9,3.3-11.7
	C45.2,13.9,48.2,10.9,50,10.9z M37.5,49.9c0-4,0.2-7.9,0.7-11.8h23.6c0.5,3.9,0.7,7.9,0.7,11.8c0,3.1-0.2,6.2-0.4,9.1H37.9
	C37.7,56.1,37.5,53,37.5,49.9z M31.9,59H12.1c-1.7-6.9-1.4-14.2,0.8-21h19.3c-0.4,3.9-0.7,7.9-0.6,11.9C31.5,53,31.6,56.1,31.9,59z
	 M67.8,38h19.3c2.2,6.8,2.4,14.1,0.8,21H68.1c0.2-3,0.4-6,0.4-9.1C68.5,46,68.3,42,67.8,38L67.8,38z"/>
</svg>
