<?xml version="1.0" encoding="utf-8"?>
<!-- Generator: Adobe Illustrator 25.4.1, SVG Export Plug-In . SVG Version: 6.00 Build 0)  -->
<svg version="1.1" id="Layer_1" xmlns="http://www.w3.org/2000/svg" xmlns:xlink="http://www.w3.org/1999/xlink" x="0px" y="0px"
	 viewBox="0 0 42.7 315.6" style="enable-background:new 0 0 42.7 315.6;" xml:space="preserve">
<style type="text/css">
	.st0{opacity:0.15;}
	.st1{fill:#426E90;}
</style>
<g class="st0">
	<path class="st1" d="M1.2,22V2.7h34.5v5.6H6.2V22H1.2z"/>
	<path class="st1" d="M4.9,49.4c-2.8-2.1-4.2-5.7-4.2-10.9c0-5.2,1.4-8.9,4.3-10.9c2.8-2.1,7.3-3.1,13.4-3.1c6.1,0,10.6,1,13.6,3.1
		c3,2.1,4.4,5.7,4.4,10.9c0,5.2-1.5,8.8-4.4,10.9c-2.9,2.1-7.5,3.1-13.6,3.1C12.2,52.5,7.7,51.5,4.9,49.4z M8.5,32
		c-2,1.1-3,3.3-3,6.6s1,5.4,2.9,6.5c1.9,1.1,5.2,1.7,9.8,1.7c4.6,0,7.9-0.6,10-1.7s3.1-3.3,3.1-6.5c0-3.2-1-5.3-3.1-6.5
		s-5.4-1.8-10-1.8S10.5,30.8,8.5,32z"/>
	<path class="st1" d="M31.4,68.5c0-4.3-1.5-6.4-4.5-6.4c-1.5,0-2.6,0.5-3.3,1.5c-0.7,1-1.5,3.2-2.4,6.7c-1,3.4-2.1,5.9-3.4,7.3
		c-1.3,1.4-3.4,2.1-6.3,2.1c-3.6,0-6.3-1-8.1-3.1s-2.7-4.9-2.7-8.4c0-2.9,0.3-6,1-9.5L2,56.8l4.5,0.6c-0.6,4.5-0.9,8-0.9,10.4
		c0,4.2,1.8,6.2,5.5,6.2c1.4,0,2.5-0.5,3.2-1.4c0.7-0.9,1.4-3.1,2.3-6.4c0.8-3.3,2-5.7,3.4-7.4c1.4-1.6,3.7-2.4,6.9-2.4s5.5,1,7.1,3
		c1.6,2,2.4,4.8,2.4,8.4c0,2.6-0.3,5.6-0.9,9.2l-0.3,1.8l-4.5-0.5C31.1,73.7,31.4,70.4,31.4,68.5z"/>
	<path class="st1" d="M1.2,98.6l34.5,8.5v11.1l-34.5,8.6v-5.6l7.4-1.9V106l-7.4-1.9V98.6z M31.1,111.4l-17.5-4.3v11l17.5-4.2V111.4z
		"/>
	<path class="st1" d="M12.3,135.6c-4.5,0-6.7,2.4-6.7,7.1s2.2,7.1,6.7,7.1h23.5v5.6H12.4c-4.1,0-7-1.1-8.9-3.2
		c-1.9-2.1-2.8-5.3-2.8-9.5s0.9-7.4,2.8-9.5c1.9-2.1,4.8-3.2,8.9-3.2h23.4v5.6H12.3z"/>
	<path class="st1" d="M30.8,159.4h5v25.2h-5v-9.7H1.2v-5.6h29.5V159.4z"/>
	<path class="st1" d="M4.9,212c-2.8-2.1-4.2-5.7-4.2-10.9c0-5.2,1.4-8.9,4.3-10.9c2.8-2.1,7.3-3.1,13.4-3.1c6.1,0,10.6,1,13.6,3.1
		c3,2.1,4.4,5.7,4.4,10.9c0,5.2-1.5,8.8-4.4,10.9c-2.9,2.1-7.5,3.1-13.6,3.1C12.2,215.1,7.7,214,4.9,212z M8.5,194.5
		c-2,1.1-3,3.3-3,6.6s1,5.4,2.9,6.5c1.9,1.1,5.2,1.7,9.8,1.7c4.6,0,7.9-0.6,10-1.7s3.1-3.3,3.1-6.5c0-3.2-1-5.3-3.1-6.5
		s-5.4-1.8-10-1.8S10.5,193.4,8.5,194.5z"/>
	<path class="st1" d="M13.5,226.3H1.2v-5.6h34.5v13.1c0,7.8-3.7,11.7-11,11.7c-4.9,0-8.2-1.9-10-5.6l-13.6,5.7v-6.1l12.3-5V226.3z
		 M24.7,239.7c4.1,0,6.2-2,6.2-5.9v-7.5H18.4v7.6c0,2,0.6,3.5,1.7,4.4C21.3,239.3,22.8,239.7,24.7,239.7z"/>
	<path class="st1" d="M1.2,250.8h34.5v21.8h-4.9v-16.2h-9.8v13.2h-4.8v-13.2H6.2v16.2H1.2V250.8z"/>
	<path class="st1" d="M31.4,288.4c0-4.3-1.5-6.4-4.5-6.4c-1.5,0-2.6,0.5-3.3,1.5c-0.7,1-1.5,3.2-2.4,6.7c-1,3.4-2.1,5.9-3.4,7.3
		c-1.3,1.4-3.4,2.1-6.3,2.1c-3.6,0-6.3-1-8.1-3.1s-2.7-4.9-2.7-8.4c0-2.9,0.3-6,1-9.5l0.4-1.8l4.5,0.6c-0.6,4.5-0.9,8-0.9,10.4
		c0,4.2,1.8,6.2,5.5,6.2c1.4,0,2.5-0.5,3.2-1.4c0.7-0.9,1.4-3.1,2.3-6.4c0.8-3.3,2-5.7,3.4-7.4c1.4-1.6,3.7-2.4,6.9-2.4s5.5,1,7.1,3
		c1.6,2,2.4,4.8,2.4,8.4c0,2.6-0.3,5.6-0.9,9.2l-0.3,1.8l-4.5-0.5C31.1,293.6,31.4,290.3,31.4,288.4z"/>
</g>
</svg>
