<?xml version="1.0" encoding="utf-8"?>
<!-- Generator: Adobe Illustrator 26.2.1, SVG Export Plug-In . SVG Version: 6.00 Build 0)  -->
<svg version="1.1" id="Layer_1" xmlns="http://www.w3.org/2000/svg" xmlns:xlink="http://www.w3.org/1999/xlink" x="0px" y="0px"
	 viewBox="0 0 580 580" style="enable-background:new 0 0 580 580;" xml:space="preserve">
<style type="text/css">
	.st0{opacity:0.2;fill-rule:evenodd;clip-rule:evenodd;fill:#0079B4;}
</style>
<path class="st0" d="M380.9,298.3L260.6,417.8c-9.8,10.6-26,10.6-35.8,0c-9.8-9.8-9.8-26,0-35.8l102.4-101.6L224.8,178
	c-9.8-9.8-9.8-26,0-35.8c9.8-9.8,26-9.8,35.8,0l120.3,119.5C390.6,272.3,390.6,287.7,380.9,298.3L380.9,298.3z M7,280.4
	c0,77.2,31.7,147.1,82.1,197.5c50.4,51.2,120.3,82.1,198.3,82.1c77.2,0,147.1-30.9,197.5-82.1c51.2-50.4,82.1-120.3,82.1-197.5
	c0-78-30.9-147.9-82.1-198.3C434.5,31.7,364.6,0,287.4,0c-78,0-147.9,31.7-198.3,82.1S7,202.4,7,280.4L7,280.4z"/>
</svg>
