<?xml version="1.0" encoding="utf-8"?>
<!-- Generator: Adobe Illustrator 25.3.0, SVG Export Plug-In . SVG Version: 6.00 Build 0)  -->
<svg version="1.1" id="Layer_1" xmlns="http://www.w3.org/2000/svg" xmlns:xlink="http://www.w3.org/1999/xlink" x="0px" y="0px"
	 viewBox="0 0 79.3 80" style="enable-background:new 0 0 79.3 80;" xml:space="preserve">
<style type="text/css">
	.st0{fill:#FFFFFF;}
	.st1{fill:#45B4E2;}
	.st2{fill:#0072BB;}
</style>
<g>
	<rect x="0.1" class="st0" width="79.2" height="79.7"/>
	<rect x="0.1" y="0.2" class="st0" width="79.2" height="79.7"/>
	<g>
		<path class="st0" d="M66.9,46.6c-0.4,0.6-1,1.3-1.2,1.9l-0.1,0.1c-0.1,0.1-0.1,0.2-0.2,0.2l-0.1,0.2h-0.1
			c-2.9,3.5-6.4,6.7-10.3,9.1l-0.2,0.2v1.5v7.5H27.6v-4.9l-0.6-0.2c-3.1-1.2-6.2-2.8-8.9-5c-3.9-3.2-6.2-8.1-6.2-13.6
			c0-1.5,0.2-3,0.4-4.4c1.9-8.4,10-17.6,19.9-22.6l0.1-0.1l0.2-0.2l0.1-0.1c1.9-2.7,4.9-4.4,8.1-4.4c1.6,0,3,0.4,4.4,1.2h0.2
			l0.2,0.1h0.2c0.4,0,0.6,0,1.1,0c6.6,0,13.3,2,16.1,4.9c2.9,3,4.5,6.6,4.5,10.2c0,2.6-1,5.2-2.6,7.3c-1.4,1.6-2.8,3-4.5,4L59.1,40
			l5.8,3.9c0.4,0.2,1.2,0.6,1.6,1.2l0.7,0.5L66.9,46.6z"/>
		<path class="st1" d="M61.3,45.6c-5.6,6.2-10.5,8.9-14.8,10.2c0,0.4,0,0.9,0,1.4s0.1,1.2,0.4,1.6c6.4-2.4,12.2-6.6,16.3-12
			c0.2-0.2,0.2-0.2,0.2-0.2l-1.9-1.2C61.4,45.3,61.4,45.6,61.3,45.6z"/>
		<path class="st1" d="M31.4,48.4c0.2-1.5,1-4.1,1.9-7.1c-1.6,0-2.2,0-2.2,0l-0.2-0.2l3.4-2.7c1.2-4.1,2.6-8.4,3.5-11.2
			c-1.9-1.2-3.1-3.4-3.1-5.7c0-1.1,0.2-2,0.6-2.9c-9.6,4.4-17.9,13.1-19.7,21.1c-1.2,5.5,0.4,11.6,4.5,15c4.7,3.7,9.7,5.5,15,5.8
			c0.9-1,1.4-2,1.4-3.5C30.7,57.1,30.6,52.4,31.4,48.4z"/>
		<path class="st1" d="M47.1,18.8c1.9,0.2,3.5,0.9,4.5,2.5c3.2,5-0.5,12-5.2,15.1c0,1.6,0,3.2,0,4.5c8.4-1.6,12.6-3.4,16.2-7.6
			c3.5-4.1,2-9.5-1.7-13.5c-2-2-8.8-4.4-15.8-3.9C46,16.7,46.7,17.5,47.1,18.8z"/>
		<path class="st2" d="M47.8,21.7c0,3.7-3,6.7-6.7,6.7c-3.7,0-6.7-3-6.7-6.7s3-6.7,6.7-6.7C44.8,14.8,47.8,17.9,47.8,21.7z"/>
		<path class="st2" d="M36.1,57.2c0,3.4-3.5,5.4-5.2,5.8h-0.2v1.2h21.2V63h-0.2c-2.1-0.5-5.2-2.9-5.2-5.8c0-3.7,0-4,0-27.7L45.3,29
			L30.5,41l0.2,0.2c0,0,0.7,0,2.8,0s2.6,0.1,2.6,2.4C36.1,45.3,36.1,52.8,36.1,57.2z"/>
	</g>
</g>
</svg>
