<?xml version="1.0" encoding="utf-8"?>
<!-- Generator: Adobe Illustrator 25.2.2, SVG Export Plug-In . SVG Version: 6.00 Build 0)  -->
<svg version="1.1" id="Layer_1" xmlns="http://www.w3.org/2000/svg" xmlns:xlink="http://www.w3.org/1999/xlink" x="0px" y="0px"
	 viewBox="0 0 350 350" style="enable-background:new 0 0 350 350;" xml:space="preserve">
<style type="text/css">
	.st0{fill:#0081BE;}
</style>
<desc>Created with Fabric.js 1.7.22</desc>
<g id="icon" transform="translate(-1.9444444444444287 -1.9444444444444287) scale(3.89 3.89)">
	<path class="st0" d="M86.7,23.3c-1-3.7-3.9-6.6-7.6-7.6c-6.7-1.8-33.6-1.8-33.6-1.8s-26.8,0-33.6,1.8c-3.7,1-6.6,3.9-7.6,7.6
		C2.6,30,2.6,44,2.6,44s0,13.9,1.8,20.7c1,3.7,3.9,6.6,7.6,7.6c6.7,1.8,33.6,1.8,33.6,1.8s26.8,0,33.6-1.8c3.7-1,6.6-3.9,7.6-7.6
		c1.6-6.8,1.6-20.7,1.6-20.7S88.5,30,86.7,23.3z M36.9,56.9V31.1L59.3,44L36.9,56.9z"/>
</g>
</svg>
