<?xml version="1.0" encoding="utf-8"?>
<!-- Generator: Adobe Illustrator 24.3.0, SVG Export Plug-In . SVG Version: 6.00 Build 0)  -->
<svg version="1.1" id="Layer_1" xmlns="http://www.w3.org/2000/svg" xmlns:xlink="http://www.w3.org/1999/xlink" x="0px" y="0px"
	 viewBox="0 0 85.3 82.3" style="enable-background:new 0 0 85.3 82.3;" xml:space="preserve">
<g transform="translate(551.000000, 543.000000)">
	<path d="M-494.1-491.4c3.9-4.8,6.3-11,6.3-17.7c0-15.5-12.6-28.1-28.1-28.1s-28.1,12.6-28.1,28.1c0,15.5,12.6,28.1,28.1,28.1
		c6.7,0,12.9-2.4,17.7-6.3l20.9,20.9c1.1,1.1,3,1.1,4.1,0s1.1-3,0-4.1L-494.1-491.4z M-515.9-486.8c-12.3,0-22.3-10-22.3-22.3
		c0-12.3,10-22.3,22.3-22.3s22.3,10,22.3,22.3C-493.6-496.8-503.6-486.8-515.9-486.8z"/>
</g>
</svg>
